<?xml version="1.0" encoding="utf-8"?>
<!-- Generator: Adobe Illustrator 22.0.1, SVG Export Plug-In . SVG Version: 6.00 Build 0)  -->
<svg version="1.1" id="Layer_1" xmlns="http://www.w3.org/2000/svg" xmlns:xlink="http://www.w3.org/1999/xlink" x="0px" y="0px"
	 viewBox="0 0 470 466.79" enable-background="new 0 0 470 466.79" xml:space="preserve">
<g>
	<g>
		<path fill="#1A1A1A" d="M7.594,57.831c1.848-3.694,2.903-7.652,2.903-11.874S9.442,37.774,7.594,34.08h4.882
			c1.848,3.694,2.903,7.654,2.903,11.877s-1.055,8.181-2.903,11.874H7.594z"/>
		<path fill="#1A1A1A" d="M26.742,45.956c0-4.222,1.055-8.183,2.903-11.877h4.882c-1.846,3.694-2.903,7.654-2.903,11.877
			s1.057,8.181,2.903,11.874h-4.882C27.797,54.137,26.742,50.179,26.742,45.956z"/>
		<path fill="#1A1A1A" d="M45.17,49.915h5.278v5.278H45.17V49.915z"/>
		<path fill="#1A1A1A" d="M61.078,57.831c1.848-3.694,2.903-7.652,2.903-11.874s-1.055-8.183-2.903-11.877h4.882
			c1.848,3.694,2.903,7.654,2.903,11.877s-1.055,8.181-2.903,11.874H61.078z"/>
		<path fill="#1A1A1A" d="M80.229,45.956c0-4.222,1.057-8.183,2.903-11.877h4.882c-1.846,3.694-2.903,7.654-2.903,11.877
			s1.057,8.181,2.903,11.874h-4.882C81.286,54.137,80.229,50.179,80.229,45.956z"/>
		<path fill="#1A1A1A" d="M98.655,49.915h5.278v5.278h-5.278V49.915z"/>
		<path fill="#1A1A1A" d="M114.563,57.831c1.848-3.694,2.903-7.652,2.903-11.874s-1.055-8.183-2.903-11.877h4.882
			c1.848,3.694,2.903,7.654,2.903,11.877s-1.055,8.181-2.903,11.874H114.563z"/>
		<path fill="#1A1A1A" d="M133.713,45.956c0-4.222,1.057-8.183,2.903-11.877h4.882c-1.846,3.694-2.903,7.654-2.903,11.877
			s1.057,8.181,2.903,11.874h-4.882C134.77,54.137,133.713,50.179,133.713,45.956z"/>
		<path fill="#1A1A1A" d="M152.141,49.915h5.278v5.278h-5.278V49.915z"/>
		<path fill="#1A1A1A" d="M168.047,57.831c1.848-3.694,2.903-7.652,2.903-11.874s-1.055-8.183-2.903-11.877h4.882
			c1.848,3.694,2.903,7.654,2.903,11.877s-1.055,8.181-2.903,11.874H168.047z"/>
		<path fill="#1A1A1A" d="M187.197,45.956c0-4.222,1.057-8.183,2.903-11.877h4.882c-1.846,3.694-2.903,7.654-2.903,11.877
			s1.057,8.181,2.903,11.874H190.1C188.254,54.137,187.197,50.179,187.197,45.956z"/>
		<path fill="#1A1A1A" d="M205.626,49.915h5.278v5.278h-5.278V49.915z"/>
		<path fill="#1A1A1A" d="M221.531,57.831c1.848-3.694,2.903-7.652,2.903-11.874s-1.055-8.183-2.903-11.877h4.882
			c1.848,3.694,2.903,7.654,2.903,11.877s-1.055,8.181-2.903,11.874H221.531z"/>
		<path fill="#1A1A1A" d="M240.682,45.956c0-4.222,1.057-8.183,2.903-11.877h4.882c-1.846,3.694-2.903,7.654-2.903,11.877
			s1.057,8.181,2.903,11.874h-4.882C241.739,54.137,240.682,50.179,240.682,45.956z"/>
		<path fill="#1A1A1A" d="M259.11,49.915h5.278v5.278h-5.278V49.915z"/>
		<path fill="#1A1A1A" d="M275.018,57.831c1.848-3.694,2.903-7.652,2.903-11.874s-1.055-8.183-2.903-11.877h4.882
			c1.848,3.694,2.903,7.654,2.903,11.877s-1.055,8.181-2.903,11.874H275.018z"/>
		<path fill="#1A1A1A" d="M294.168,45.956c0-4.222,1.055-8.183,2.903-11.877h4.882c-1.846,3.694-2.903,7.654-2.903,11.877
			s1.057,8.181,2.903,11.874h-4.882C295.223,54.137,294.168,50.179,294.168,45.956z"/>
		<path fill="#1A1A1A" d="M312.594,49.915h5.277v5.278h-5.277V49.915z"/>
		<path fill="#1A1A1A" d="M328.502,57.831c1.848-3.694,2.903-7.652,2.903-11.874s-1.055-8.183-2.903-11.877h4.882
			c1.848,3.694,2.903,7.654,2.903,11.877s-1.055,8.181-2.903,11.874H328.502z"/>
		<path fill="#1A1A1A" d="M347.652,45.956c0-4.222,1.055-8.183,2.903-11.877h4.882c-1.846,3.694-2.903,7.654-2.903,11.877
			s1.057,8.181,2.903,11.874h-4.882C348.707,54.137,347.652,50.179,347.652,45.956z"/>
		<path fill="#1A1A1A" d="M366.081,49.915h5.277v5.278h-5.277V49.915z"/>
		<path fill="#1A1A1A" d="M381.986,57.831c1.848-3.694,2.903-7.652,2.903-11.874s-1.055-8.183-2.903-11.877h4.882
			c1.848,3.694,2.903,7.654,2.903,11.877s-1.055,8.181-2.903,11.874H381.986z"/>
		<path fill="#1A1A1A" d="M401.137,45.956c0-4.222,1.055-8.183,2.903-11.877h4.882c-1.846,3.694-2.903,7.654-2.903,11.877
			s1.057,8.181,2.903,11.874h-4.882C402.192,54.137,401.137,50.179,401.137,45.956z"/>
		<path fill="#1A1A1A" d="M419.565,49.915h5.278v5.278h-5.278V49.915z"/>
		<path fill="#1A1A1A" d="M435.47,57.831c1.848-3.694,2.903-7.652,2.903-11.874s-1.055-8.183-2.903-11.877h4.882
			c1.848,3.694,2.903,7.654,2.903,11.877s-1.055,8.181-2.903,11.874H435.47z"/>
		<path fill="#1A1A1A" d="M454.621,45.956c0-4.222,1.055-8.183,2.903-11.877h4.882c-1.846,3.694-2.903,7.654-2.903,11.877
			s1.057,8.181,2.903,11.874h-4.882C455.676,54.137,454.621,50.179,454.621,45.956z"/>
	</g>
	<g>
		<g>
			<path fill="#1A1A1A" d="M0,11.877C0,7.654,1.057,3.694,2.905,0h4.882C5.939,3.694,4.882,7.654,4.882,11.877
				s1.057,8.181,2.905,11.874H2.905C1.057,20.057,0,16.099,0,11.877z"/>
			<path fill="#1A1A1A" d="M18.428,15.835h5.278v5.278h-5.278V15.835z"/>
			<path fill="#1A1A1A" d="M34.338,23.751c1.848-3.694,2.901-7.652,2.901-11.874S36.186,3.694,34.338,0h4.882
				c1.848,3.694,2.901,7.654,2.901,11.877s-1.053,8.181-2.901,11.874H34.338z"/>
			<path fill="#1A1A1A" d="M53.484,11.877c0-4.222,1.057-8.183,2.905-11.877h4.882c-1.848,3.694-2.905,7.654-2.905,11.877
				s1.057,8.181,2.905,11.874H56.39C54.542,20.057,53.484,16.099,53.484,11.877z"/>
			<path fill="#1A1A1A" d="M71.913,15.835h5.278v5.278h-5.278V15.835z"/>
			<path fill="#1A1A1A" d="M87.823,23.751c1.848-3.694,2.901-7.652,2.901-11.874S89.671,3.694,87.823,0h4.882
				c1.848,3.694,2.901,7.654,2.901,11.877s-1.053,8.181-2.901,11.874H87.823z"/>
			<path fill="#1A1A1A" d="M106.973,11.877c0-4.222,1.057-8.183,2.901-11.877h4.882c-1.844,3.694-2.901,7.654-2.901,11.877
				s1.057,8.181,2.901,11.874h-4.882C108.03,20.057,106.973,16.099,106.973,11.877z"/>
			<path fill="#1A1A1A" d="M125.397,15.835h5.278v5.278h-5.278V15.835z"/>
			<path fill="#1A1A1A" d="M141.307,23.751c1.848-3.694,2.901-7.652,2.901-11.874S143.155,3.694,141.307,0h4.882
				c1.848,3.694,2.901,7.654,2.901,11.877s-1.053,8.181-2.901,11.874H141.307z"/>
			<path fill="#1A1A1A" d="M160.457,11.877c0-4.222,1.057-8.183,2.901-11.877h4.882c-1.844,3.694-2.901,7.654-2.901,11.877
				s1.057,8.181,2.901,11.874h-4.882C161.514,20.057,160.457,16.099,160.457,11.877z"/>
			<path fill="#1A1A1A" d="M178.886,15.835h5.278v5.278h-5.278V15.835z"/>
			<path fill="#1A1A1A" d="M194.791,23.751c1.848-3.694,2.901-7.652,2.901-11.874S196.639,3.694,194.791,0h4.882
				c1.848,3.694,2.901,7.654,2.901,11.877s-1.053,8.181-2.901,11.874H194.791z"/>
			<path fill="#1A1A1A" d="M213.941,11.877c0-4.222,1.057-8.183,2.901-11.877h4.882c-1.844,3.694-2.901,7.654-2.901,11.877
				s1.057,8.181,2.901,11.874h-4.882C214.999,20.057,213.941,16.099,213.941,11.877z"/>
			<path fill="#1A1A1A" d="M232.37,15.835h5.278v5.278h-5.278V15.835z"/>
			<path fill="#1A1A1A" d="M248.275,23.751c1.848-3.694,2.901-7.652,2.901-11.874S250.123,3.694,248.275,0h4.882
				c1.848,3.694,2.901,7.654,2.901,11.877s-1.053,8.181-2.901,11.874H248.275z"/>
			<path fill="#1A1A1A" d="M267.426,11.877c0-4.222,1.057-8.183,2.901-11.877h4.882c-1.844,3.694-2.901,7.654-2.901,11.877
				s1.057,8.181,2.901,11.874h-4.882C268.483,20.057,267.426,16.099,267.426,11.877z"/>
			<path fill="#1A1A1A" d="M285.854,15.835h5.278v5.278h-5.278V15.835z"/>
			<path fill="#1A1A1A" d="M301.76,23.751c1.848-3.694,2.905-7.652,2.905-11.874S303.608,3.694,301.76,0h4.882
				c1.848,3.694,2.905,7.654,2.905,11.877s-1.057,8.181-2.905,11.874H301.76z"/>
			<path fill="#1A1A1A" d="M320.91,11.877c0-4.222,1.057-8.183,2.905-11.877h4.882c-1.848,3.694-2.905,7.654-2.905,11.877
				s1.057,8.181,2.905,11.874h-4.882C321.967,20.057,320.91,16.099,320.91,11.877z"/>
			<path fill="#1A1A1A" d="M339.338,15.835h5.278v5.278h-5.278V15.835z"/>
			<path fill="#1A1A1A" d="M355.244,23.751c1.848-3.694,2.905-7.652,2.905-11.874S357.092,3.694,355.244,0h4.882
				c1.848,3.694,2.905,7.654,2.905,11.877s-1.057,8.181-2.905,11.874H355.244z"/>
			<path fill="#1A1A1A" d="M374.394,11.877c0-4.222,1.057-8.183,2.905-11.877h4.882c-1.848,3.694-2.905,7.654-2.905,11.877
				s1.057,8.181,2.905,11.874H377.3C375.452,20.057,374.394,16.099,374.394,11.877z"/>
			<path fill="#1A1A1A" d="M392.823,15.835h5.278v5.278h-5.278V15.835z"/>
			<path fill="#1A1A1A" d="M408.728,23.751c1.848-3.694,2.905-7.652,2.905-11.874S410.576,3.694,408.728,0h4.882
				c1.848,3.694,2.905,7.654,2.905,11.877s-1.057,8.181-2.905,11.874H408.728z"/>
			<path fill="#1A1A1A" d="M427.879,11.877c0-4.222,1.057-8.183,2.905-11.877h4.882c-1.848,3.694-2.905,7.654-2.905,11.877
				s1.057,8.181,2.905,11.874h-4.882C428.936,20.057,427.879,16.099,427.879,11.877z"/>
			<path fill="#1A1A1A" d="M446.307,15.835h5.278v5.278h-5.278V15.835z"/>
			<path fill="#1A1A1A" d="M462.213,23.751c1.848-3.694,2.905-7.652,2.905-11.874S464.061,3.694,462.213,0h4.882
				C468.943,3.694,470,7.654,470,11.877s-1.057,8.181-2.905,11.874H462.213z"/>
		</g>
	</g>
	<g>
		<g>
			<path fill="#1A1A1A" d="M0.001,80.036c0-4.222,1.055-8.183,2.903-11.877h4.882c-1.846,3.694-2.903,7.654-2.903,11.877
				s1.057,8.181,2.903,11.874H2.904C1.056,88.217,0.001,84.259,0.001,80.036z"/>
			<path fill="#1A1A1A" d="M18.429,83.995h5.278v5.278h-5.278V83.995z"/>
			<path fill="#1A1A1A" d="M34.337,91.911c1.848-3.694,2.903-7.652,2.903-11.874s-1.055-8.183-2.903-11.877h4.882
				c1.848,3.694,2.903,7.654,2.903,11.877s-1.055,8.181-2.903,11.874H34.337z"/>
			<path fill="#1A1A1A" d="M53.485,80.036c0-4.222,1.055-8.183,2.903-11.877h4.882c-1.846,3.694-2.903,7.654-2.903,11.877
				s1.057,8.181,2.903,11.874h-4.882C54.54,88.217,53.485,84.259,53.485,80.036z"/>
			<path fill="#1A1A1A" d="M71.914,83.995h5.278v5.278h-5.278V83.995z"/>
			<path fill="#1A1A1A" d="M87.821,91.911c1.848-3.694,2.903-7.652,2.903-11.874s-1.055-8.183-2.903-11.877h4.882
				c1.848,3.694,2.903,7.654,2.903,11.877s-1.055,8.181-2.903,11.874H87.821z"/>
			<path fill="#1A1A1A" d="M106.972,80.036c0-4.222,1.057-8.183,2.903-11.877h4.882c-1.846,3.694-2.903,7.654-2.903,11.877
				s1.057,8.181,2.903,11.874h-4.882C108.029,88.217,106.972,84.259,106.972,80.036z"/>
			<path fill="#1A1A1A" d="M125.398,83.995h5.278v5.278h-5.278V83.995z"/>
			<path fill="#1A1A1A" d="M141.306,91.911c1.848-3.694,2.903-7.652,2.903-11.874s-1.055-8.183-2.903-11.877h4.882
				c1.848,3.694,2.903,7.654,2.903,11.877s-1.055,8.181-2.903,11.874H141.306z"/>
			<path fill="#1A1A1A" d="M160.456,80.036c0-4.222,1.057-8.183,2.903-11.877h4.882c-1.846,3.694-2.903,7.654-2.903,11.877
				s1.057,8.181,2.903,11.874h-4.882C161.513,88.217,160.456,84.259,160.456,80.036z"/>
			<path fill="#1A1A1A" d="M178.884,83.995h5.278v5.278h-5.278V83.995z"/>
			<path fill="#1A1A1A" d="M194.79,91.911c1.848-3.694,2.903-7.652,2.903-11.874s-1.055-8.183-2.903-11.877h4.882
				c1.848,3.694,2.903,7.654,2.903,11.877s-1.055,8.181-2.903,11.874H194.79z"/>
			<path fill="#1A1A1A" d="M213.94,80.036c0-4.222,1.057-8.183,2.903-11.877h4.882c-1.846,3.694-2.903,7.654-2.903,11.877
				s1.057,8.181,2.903,11.874h-4.882C214.998,88.217,213.94,84.259,213.94,80.036z"/>
			<path fill="#1A1A1A" d="M232.369,83.995h5.278v5.278h-5.278V83.995z"/>
			<path fill="#1A1A1A" d="M248.274,91.911c1.848-3.694,2.903-7.652,2.903-11.874s-1.055-8.183-2.903-11.877h4.882
				c1.848,3.694,2.903,7.654,2.903,11.877s-1.055,8.181-2.903,11.874H248.274z"/>
			<path fill="#1A1A1A" d="M267.425,80.036c0-4.222,1.057-8.183,2.903-11.877h4.882c-1.846,3.694-2.903,7.654-2.903,11.877
				s1.057,8.181,2.903,11.874h-4.882C268.482,88.217,267.425,84.259,267.425,80.036z"/>
			<path fill="#1A1A1A" d="M285.853,83.995h5.278v5.278h-5.278V83.995z"/>
			<path fill="#1A1A1A" d="M301.761,91.911c1.848-3.694,2.903-7.652,2.903-11.874s-1.055-8.183-2.903-11.877h4.882
				c1.848,3.694,2.903,7.654,2.903,11.877s-1.055,8.181-2.903,11.874H301.761z"/>
			<path fill="#1A1A1A" d="M320.911,80.036c0-4.222,1.055-8.183,2.903-11.877h4.882c-1.846,3.694-2.903,7.654-2.903,11.877
				s1.057,8.181,2.903,11.874h-4.882C321.966,88.217,320.911,84.259,320.911,80.036z"/>
			<path fill="#1A1A1A" d="M339.337,83.995h5.277v5.278h-5.277V83.995z"/>
			<path fill="#1A1A1A" d="M355.245,91.911c1.848-3.694,2.903-7.652,2.903-11.874s-1.055-8.183-2.903-11.877h4.882
				c1.848,3.694,2.903,7.654,2.903,11.877s-1.055,8.181-2.903,11.874H355.245z"/>
			<path fill="#1A1A1A" d="M374.395,80.036c0-4.222,1.055-8.183,2.903-11.877h4.882c-1.846,3.694-2.903,7.654-2.903,11.877
				s1.057,8.181,2.903,11.874h-4.882C375.451,88.217,374.395,84.259,374.395,80.036z"/>
			<path fill="#1A1A1A" d="M392.824,83.995h5.277v5.278h-5.277V83.995z"/>
			<path fill="#1A1A1A" d="M408.729,91.911c1.848-3.694,2.903-7.652,2.903-11.874s-1.055-8.183-2.903-11.877h4.882
				c1.848,3.694,2.903,7.654,2.903,11.877s-1.055,8.181-2.903,11.874H408.729z"/>
			<path fill="#1A1A1A" d="M427.88,80.036c0-4.222,1.055-8.183,2.903-11.877h4.882c-1.846,3.694-2.903,7.654-2.903,11.877
				s1.057,8.181,2.903,11.874h-4.882C428.935,88.217,427.88,84.259,427.88,80.036z"/>
			<path fill="#1A1A1A" d="M446.308,83.995h5.278v5.278h-5.278V83.995z"/>
			<path fill="#1A1A1A" d="M462.214,91.911c1.848-3.694,2.903-7.652,2.903-11.874s-1.055-8.183-2.903-11.877h4.882
				c1.848,3.694,2.903,7.654,2.903,11.877s-1.055,8.181-2.903,11.874H462.214z"/>
		</g>
	</g>
	<g>
		<path fill="#1A1A1A" d="M7.594,194.15c1.848-3.694,2.903-7.652,2.903-11.874c0-4.222-1.055-8.183-2.903-11.877h4.882
			c1.848,3.694,2.903,7.654,2.903,11.877c0,4.222-1.055,8.181-2.903,11.874H7.594z"/>
		<path fill="#1A1A1A" d="M26.742,182.276c0-4.222,1.055-8.183,2.903-11.877h4.882c-1.846,3.694-2.903,7.654-2.903,11.877
			c0,4.222,1.057,8.181,2.903,11.874h-4.882C27.797,190.457,26.742,186.499,26.742,182.276z"/>
		<path fill="#1A1A1A" d="M45.17,186.234h5.278v5.278H45.17V186.234z"/>
		<path fill="#1A1A1A" d="M61.078,194.15c1.848-3.694,2.903-7.652,2.903-11.874c0-4.222-1.055-8.183-2.903-11.877h4.882
			c1.848,3.694,2.903,7.654,2.903,11.877c0,4.222-1.055,8.181-2.903,11.874H61.078z"/>
		<path fill="#1A1A1A" d="M80.229,182.276c0-4.222,1.057-8.183,2.903-11.877h4.882c-1.846,3.694-2.903,7.654-2.903,11.877
			c0,4.222,1.057,8.181,2.903,11.874h-4.882C81.286,190.457,80.229,186.499,80.229,182.276z"/>
		<path fill="#1A1A1A" d="M98.655,186.234h5.278v5.278h-5.278V186.234z"/>
		<path fill="#1A1A1A" d="M114.563,194.15c1.848-3.694,2.903-7.652,2.903-11.874c0-4.222-1.055-8.183-2.903-11.877h4.882
			c1.848,3.694,2.903,7.654,2.903,11.877c0,4.222-1.055,8.181-2.903,11.874H114.563z"/>
		<path fill="#1A1A1A" d="M133.713,182.276c0-4.222,1.057-8.183,2.903-11.877h4.882c-1.846,3.694-2.903,7.654-2.903,11.877
			c0,4.222,1.057,8.181,2.903,11.874h-4.882C134.77,190.457,133.713,186.499,133.713,182.276z"/>
		<path fill="#1A1A1A" d="M152.141,186.234h5.278v5.278h-5.278V186.234z"/>
		<path fill="#1A1A1A" d="M168.047,194.15c1.848-3.694,2.903-7.652,2.903-11.874c0-4.222-1.055-8.183-2.903-11.877h4.882
			c1.848,3.694,2.903,7.654,2.903,11.877c0,4.222-1.055,8.181-2.903,11.874H168.047z"/>
		<path fill="#1A1A1A" d="M187.197,182.276c0-4.222,1.057-8.183,2.903-11.877h4.882c-1.846,3.694-2.903,7.654-2.903,11.877
			c0,4.222,1.057,8.181,2.903,11.874H190.1C188.254,190.457,187.197,186.499,187.197,182.276z"/>
		<path fill="#1A1A1A" d="M205.626,186.234h5.278v5.278h-5.278V186.234z"/>
		<path fill="#1A1A1A" d="M221.531,194.15c1.848-3.694,2.903-7.652,2.903-11.874c0-4.222-1.055-8.183-2.903-11.877h4.882
			c1.848,3.694,2.903,7.654,2.903,11.877c0,4.222-1.055,8.181-2.903,11.874H221.531z"/>
		<path fill="#1A1A1A" d="M240.682,182.276c0-4.222,1.057-8.183,2.903-11.877h4.882c-1.846,3.694-2.903,7.654-2.903,11.877
			c0,4.222,1.057,8.181,2.903,11.874h-4.882C241.739,190.457,240.682,186.499,240.682,182.276z"/>
		<path fill="#1A1A1A" d="M259.11,186.234h5.278v5.278h-5.278V186.234z"/>
		<path fill="#1A1A1A" d="M275.018,194.15c1.848-3.694,2.903-7.652,2.903-11.874c0-4.222-1.055-8.183-2.903-11.877h4.882
			c1.848,3.694,2.903,7.654,2.903,11.877c0,4.222-1.055,8.181-2.903,11.874H275.018z"/>
		<path fill="#1A1A1A" d="M294.168,182.276c0-4.222,1.055-8.183,2.903-11.877h4.882c-1.846,3.694-2.903,7.654-2.903,11.877
			c0,4.222,1.057,8.181,2.903,11.874h-4.882C295.223,190.457,294.168,186.499,294.168,182.276z"/>
		<path fill="#1A1A1A" d="M312.594,186.234h5.277v5.278h-5.277V186.234z"/>
		<path fill="#1A1A1A" d="M328.502,194.15c1.848-3.694,2.903-7.652,2.903-11.874c0-4.222-1.055-8.183-2.903-11.877h4.882
			c1.848,3.694,2.903,7.654,2.903,11.877c0,4.222-1.055,8.181-2.903,11.874H328.502z"/>
		<path fill="#1A1A1A" d="M347.652,182.276c0-4.222,1.055-8.183,2.903-11.877h4.882c-1.846,3.694-2.903,7.654-2.903,11.877
			c0,4.222,1.057,8.181,2.903,11.874h-4.882C348.707,190.457,347.652,186.499,347.652,182.276z"/>
		<path fill="#1A1A1A" d="M366.081,186.234h5.277v5.278h-5.277V186.234z"/>
		<path fill="#1A1A1A" d="M381.986,194.15c1.848-3.694,2.903-7.652,2.903-11.874c0-4.222-1.055-8.183-2.903-11.877h4.882
			c1.848,3.694,2.903,7.654,2.903,11.877c0,4.222-1.055,8.181-2.903,11.874H381.986z"/>
		<path fill="#1A1A1A" d="M401.137,182.276c0-4.222,1.055-8.183,2.903-11.877h4.882c-1.846,3.694-2.903,7.654-2.903,11.877
			c0,4.222,1.057,8.181,2.903,11.874h-4.882C402.192,190.457,401.137,186.499,401.137,182.276z"/>
		<path fill="#1A1A1A" d="M419.565,186.234h5.278v5.278h-5.278V186.234z"/>
		<path fill="#1A1A1A" d="M435.47,194.15c1.848-3.694,2.903-7.652,2.903-11.874c0-4.222-1.055-8.183-2.903-11.877h4.882
			c1.848,3.694,2.903,7.654,2.903,11.877c0,4.222-1.055,8.181-2.903,11.874H435.47z"/>
		<path fill="#1A1A1A" d="M454.621,182.276c0-4.222,1.055-8.183,2.903-11.877h4.882c-1.846,3.694-2.903,7.654-2.903,11.877
			c0,4.222,1.057,8.181,2.903,11.874h-4.882C455.676,190.457,454.621,186.499,454.621,182.276z"/>
	</g>
	<g>
		<g>
			<path fill="#1A1A1A" d="M0.001,148.196c0-4.222,1.055-8.183,2.903-11.877h4.882c-1.846,3.694-2.903,7.654-2.903,11.877
				s1.057,8.181,2.903,11.874H2.904C1.056,156.377,0.001,152.419,0.001,148.196z"/>
			<path fill="#1A1A1A" d="M18.429,152.154h5.278v5.278h-5.278V152.154z"/>
			<path fill="#1A1A1A" d="M34.337,160.071c1.848-3.694,2.903-7.652,2.903-11.874s-1.055-8.183-2.903-11.877h4.882
				c1.848,3.694,2.903,7.654,2.903,11.877s-1.055,8.181-2.903,11.874H34.337z"/>
			<path fill="#1A1A1A" d="M53.485,148.196c0-4.222,1.055-8.183,2.903-11.877h4.882c-1.846,3.694-2.903,7.654-2.903,11.877
				s1.057,8.181,2.903,11.874h-4.882C54.54,156.377,53.485,152.419,53.485,148.196z"/>
			<path fill="#1A1A1A" d="M71.914,152.154h5.278v5.278h-5.278V152.154z"/>
			<path fill="#1A1A1A" d="M87.821,160.071c1.848-3.694,2.903-7.652,2.903-11.874s-1.055-8.183-2.903-11.877h4.882
				c1.848,3.694,2.903,7.654,2.903,11.877s-1.055,8.181-2.903,11.874H87.821z"/>
			<path fill="#1A1A1A" d="M106.972,148.196c0-4.222,1.057-8.183,2.903-11.877h4.882c-1.846,3.694-2.903,7.654-2.903,11.877
				s1.057,8.181,2.903,11.874h-4.882C108.029,156.377,106.972,152.419,106.972,148.196z"/>
			<path fill="#1A1A1A" d="M125.398,152.154h5.278v5.278h-5.278V152.154z"/>
			<path fill="#1A1A1A" d="M141.306,160.071c1.848-3.694,2.903-7.652,2.903-11.874s-1.055-8.183-2.903-11.877h4.882
				c1.848,3.694,2.903,7.654,2.903,11.877s-1.055,8.181-2.903,11.874H141.306z"/>
			<path fill="#1A1A1A" d="M160.456,148.196c0-4.222,1.057-8.183,2.903-11.877h4.882c-1.846,3.694-2.903,7.654-2.903,11.877
				s1.057,8.181,2.903,11.874h-4.882C161.513,156.377,160.456,152.419,160.456,148.196z"/>
			<path fill="#1A1A1A" d="M178.884,152.154h5.278v5.278h-5.278V152.154z"/>
			<path fill="#1A1A1A" d="M194.79,160.071c1.848-3.694,2.903-7.652,2.903-11.874s-1.055-8.183-2.903-11.877h4.882
				c1.848,3.694,2.903,7.654,2.903,11.877s-1.055,8.181-2.903,11.874H194.79z"/>
			<path fill="#1A1A1A" d="M213.94,148.196c0-4.222,1.057-8.183,2.903-11.877h4.882c-1.846,3.694-2.903,7.654-2.903,11.877
				s1.057,8.181,2.903,11.874h-4.882C214.998,156.377,213.94,152.419,213.94,148.196z"/>
			<path fill="#1A1A1A" d="M232.369,152.154h5.278v5.278h-5.278V152.154z"/>
			<path fill="#1A1A1A" d="M248.274,160.071c1.848-3.694,2.903-7.652,2.903-11.874s-1.055-8.183-2.903-11.877h4.882
				c1.848,3.694,2.903,7.654,2.903,11.877s-1.055,8.181-2.903,11.874H248.274z"/>
			<path fill="#1A1A1A" d="M267.425,148.196c0-4.222,1.057-8.183,2.903-11.877h4.882c-1.846,3.694-2.903,7.654-2.903,11.877
				s1.057,8.181,2.903,11.874h-4.882C268.482,156.377,267.425,152.419,267.425,148.196z"/>
			<path fill="#1A1A1A" d="M285.853,152.154h5.278v5.278h-5.278V152.154z"/>
			<path fill="#1A1A1A" d="M301.761,160.071c1.848-3.694,2.903-7.652,2.903-11.874s-1.055-8.183-2.903-11.877h4.882
				c1.848,3.694,2.903,7.654,2.903,11.877s-1.055,8.181-2.903,11.874H301.761z"/>
			<path fill="#1A1A1A" d="M320.911,148.196c0-4.222,1.055-8.183,2.903-11.877h4.882c-1.846,3.694-2.903,7.654-2.903,11.877
				s1.057,8.181,2.903,11.874h-4.882C321.966,156.377,320.911,152.419,320.911,148.196z"/>
			<path fill="#1A1A1A" d="M339.337,152.154h5.277v5.278h-5.277V152.154z"/>
			<path fill="#1A1A1A" d="M355.245,160.071c1.848-3.694,2.903-7.652,2.903-11.874s-1.055-8.183-2.903-11.877h4.882
				c1.848,3.694,2.903,7.654,2.903,11.877s-1.055,8.181-2.903,11.874H355.245z"/>
			<path fill="#1A1A1A" d="M374.395,148.196c0-4.222,1.055-8.183,2.903-11.877h4.882c-1.846,3.694-2.903,7.654-2.903,11.877
				s1.057,8.181,2.903,11.874h-4.882C375.451,156.377,374.395,152.419,374.395,148.196z"/>
			<path fill="#1A1A1A" d="M392.824,152.154h5.277v5.278h-5.277V152.154z"/>
			<path fill="#1A1A1A" d="M408.729,160.071c1.848-3.694,2.903-7.652,2.903-11.874s-1.055-8.183-2.903-11.877h4.882
				c1.848,3.694,2.903,7.654,2.903,11.877s-1.055,8.181-2.903,11.874H408.729z"/>
			<path fill="#1A1A1A" d="M427.88,148.196c0-4.222,1.055-8.183,2.903-11.877h4.882c-1.846,3.694-2.903,7.654-2.903,11.877
				s1.057,8.181,2.903,11.874h-4.882C428.935,156.377,427.88,152.419,427.88,148.196z"/>
			<path fill="#1A1A1A" d="M446.308,152.154h5.278v5.278h-5.278V152.154z"/>
			<path fill="#1A1A1A" d="M462.214,160.071c1.848-3.694,2.903-7.652,2.903-11.874s-1.055-8.183-2.903-11.877h4.882
				c1.848,3.694,2.903,7.654,2.903,11.877s-1.055,8.181-2.903,11.874H462.214z"/>
		</g>
	</g>
	<g>
		<path fill="#1A1A1A" d="M11.268,262.31c1.848-3.694,2.903-7.652,2.903-11.874c0-4.222-1.055-8.183-2.903-11.877h4.407
			c1.848,3.694,2.903,7.654,2.903,11.877c0,4.222-1.055,8.181-2.903,11.874H11.268z"/>
		<path fill="#1A1A1A" d="M30.195,250.436c0-4.222,1.055-8.183,2.903-11.877h4.407c-1.848,3.694-2.903,7.654-2.903,11.877
			c0,4.222,1.055,8.181,2.903,11.874h-4.407C31.25,258.616,30.195,254.658,30.195,250.436z"/>
		<path fill="#1A1A1A" d="M48.357,254.948h4.725v4.723h-4.725V254.948z"/>
		<path fill="#1A1A1A" d="M63.921,262.31c1.848-3.694,2.903-7.652,2.903-11.874c0-4.222-1.055-8.183-2.903-11.877h4.407
			c1.848,3.694,2.903,7.654,2.903,11.877c0,4.222-1.055,8.181-2.903,11.874H63.921z"/>
		<path fill="#1A1A1A" d="M82.848,250.436c0-4.222,1.055-8.183,2.903-11.877h4.407c-1.848,3.694-2.903,7.654-2.903,11.877
			c0,4.222,1.055,8.181,2.903,11.874h-4.407C83.903,258.616,82.848,254.658,82.848,250.436z"/>
		<path fill="#1A1A1A" d="M101.01,254.948h4.725v4.723h-4.725V254.948z"/>
		<path fill="#1A1A1A" d="M116.574,262.31c1.848-3.694,2.903-7.652,2.903-11.874c0-4.222-1.055-8.183-2.903-11.877h4.407
			c1.848,3.694,2.903,7.654,2.903,11.877c0,4.222-1.055,8.181-2.903,11.874H116.574z"/>
		<path fill="#1A1A1A" d="M135.503,250.436c0-4.222,1.055-8.183,2.903-11.877h4.407c-1.848,3.694-2.903,7.654-2.903,11.877
			c0,4.222,1.055,8.181,2.903,11.874h-4.407C136.558,258.616,135.503,254.658,135.503,250.436z"/>
		<path fill="#1A1A1A" d="M153.665,254.948h4.725v4.723h-4.725V254.948z"/>
		<path fill="#1A1A1A" d="M169.227,262.31c1.848-3.694,2.903-7.652,2.903-11.874c0-4.222-1.055-8.183-2.903-11.877h4.407
			c1.848,3.694,2.903,7.654,2.903,11.877c0,4.222-1.055,8.181-2.903,11.874H169.227z"/>
		<path fill="#1A1A1A" d="M188.156,250.436c0-4.222,1.055-8.183,2.903-11.877h4.407c-1.848,3.694-2.903,7.654-2.903,11.877
			c0,4.222,1.055,8.181,2.903,11.874h-4.407C189.211,258.616,188.156,254.658,188.156,250.436z"/>
		<path fill="#1A1A1A" d="M206.317,254.948h4.725v4.723h-4.725V254.948z"/>
		<path fill="#1A1A1A" d="M221.881,262.31c1.848-3.694,2.903-7.652,2.903-11.874c0-4.222-1.055-8.183-2.903-11.877h4.407
			c1.848,3.694,2.903,7.654,2.903,11.877c0,4.222-1.055,8.181-2.903,11.874H221.881z"/>
		<path fill="#1A1A1A" d="M240.808,250.436c0-4.222,1.055-8.183,2.903-11.877h4.407c-1.848,3.694-2.903,7.654-2.903,11.877
			c0,4.222,1.055,8.181,2.903,11.874h-4.407C241.863,258.616,240.808,254.658,240.808,250.436z"/>
		<path fill="#1A1A1A" d="M258.97,254.948h4.725v4.723h-4.725V254.948z"/>
		<path fill="#1A1A1A" d="M274.534,262.31c1.848-3.694,2.903-7.652,2.903-11.874c0-4.222-1.055-8.183-2.903-11.877h4.407
			c1.848,3.694,2.903,7.654,2.903,11.877c0,4.222-1.055,8.181-2.903,11.874H274.534z"/>
		<path fill="#1A1A1A" d="M293.461,250.436c0-4.222,1.055-8.183,2.903-11.877h4.407c-1.848,3.694-2.903,7.654-2.903,11.877
			c0,4.222,1.055,8.181,2.903,11.874h-4.407C294.516,258.616,293.461,254.658,293.461,250.436z"/>
		<path fill="#1A1A1A" d="M311.623,254.948h4.725v4.723h-4.725V254.948z"/>
		<path fill="#1A1A1A" d="M327.187,262.31c1.848-3.694,2.903-7.652,2.903-11.874c0-4.222-1.055-8.183-2.903-11.877h4.407
			c1.848,3.694,2.903,7.654,2.903,11.877c0,4.222-1.055,8.181-2.903,11.874H327.187z"/>
		<path fill="#1A1A1A" d="M346.116,250.436c0-4.222,1.055-8.183,2.903-11.877h4.407c-1.848,3.694-2.903,7.654-2.903,11.877
			c0,4.222,1.055,8.181,2.903,11.874h-4.407C347.171,258.616,346.116,254.658,346.116,250.436z"/>
		<path fill="#1A1A1A" d="M364.278,254.948h4.725v4.723h-4.725V254.948z"/>
		<path fill="#1A1A1A" d="M379.84,262.31c1.848-3.694,2.903-7.652,2.903-11.874c0-4.222-1.055-8.183-2.903-11.877h4.407
			c1.848,3.694,2.903,7.654,2.903,11.877c0,4.222-1.055,8.181-2.903,11.874H379.84z"/>
		<path fill="#1A1A1A" d="M398.769,250.436c0-4.222,1.055-8.183,2.903-11.877h4.407c-1.848,3.694-2.903,7.654-2.903,11.877
			c0,4.222,1.055,8.181,2.903,11.874h-4.407C399.824,258.616,398.769,254.658,398.769,250.436z"/>
		<path fill="#1A1A1A" d="M416.93,254.948h4.725v4.723h-4.725V254.948z"/>
		<path fill="#1A1A1A" d="M432.494,262.31c1.848-3.694,2.903-7.652,2.903-11.874c0-4.222-1.055-8.183-2.903-11.877h4.407
			c1.848,3.694,2.903,7.654,2.903,11.877c0,4.222-1.055,8.181-2.903,11.874H432.494z"/>
		<path fill="#1A1A1A" d="M451.421,250.436c0-4.222,1.055-8.183,2.903-11.877h4.407c-1.848,3.694-2.903,7.654-2.903,11.877
			c0,4.222,1.055,8.181,2.903,11.874h-4.407C452.476,258.616,451.421,254.658,451.421,250.436z"/>
	</g>
	<g>
		<g>
			<path fill="#1A1A1A" d="M0.001,216.356c0-4.222,1.055-8.183,2.903-11.877h4.882c-1.846,3.694-2.903,7.654-2.903,11.877
				s1.057,8.181,2.903,11.874H2.904C1.056,224.537,0.001,220.578,0.001,216.356z"/>
			<path fill="#1A1A1A" d="M18.429,220.314h5.278v5.278h-5.278V220.314z"/>
			<path fill="#1A1A1A" d="M34.337,228.23c1.848-3.694,2.903-7.652,2.903-11.874s-1.055-8.183-2.903-11.877h4.882
				c1.848,3.694,2.903,7.654,2.903,11.877s-1.055,8.181-2.903,11.874H34.337z"/>
			<path fill="#1A1A1A" d="M53.485,216.356c0-4.222,1.055-8.183,2.903-11.877h4.882c-1.846,3.694-2.903,7.654-2.903,11.877
				s1.057,8.181,2.903,11.874h-4.882C54.54,224.537,53.485,220.578,53.485,216.356z"/>
			<path fill="#1A1A1A" d="M71.914,220.314h5.278v5.278h-5.278V220.314z"/>
			<path fill="#1A1A1A" d="M87.821,228.23c1.848-3.694,2.903-7.652,2.903-11.874s-1.055-8.183-2.903-11.877h4.882
				c1.848,3.694,2.903,7.654,2.903,11.877s-1.055,8.181-2.903,11.874H87.821z"/>
			<path fill="#1A1A1A" d="M106.972,216.356c0-4.222,1.057-8.183,2.903-11.877h4.882c-1.846,3.694-2.903,7.654-2.903,11.877
				s1.057,8.181,2.903,11.874h-4.882C108.029,224.537,106.972,220.578,106.972,216.356z"/>
			<path fill="#1A1A1A" d="M125.398,220.314h5.278v5.278h-5.278V220.314z"/>
			<path fill="#1A1A1A" d="M141.306,228.23c1.848-3.694,2.903-7.652,2.903-11.874s-1.055-8.183-2.903-11.877h4.882
				c1.848,3.694,2.903,7.654,2.903,11.877s-1.055,8.181-2.903,11.874H141.306z"/>
			<path fill="#1A1A1A" d="M160.456,216.356c0-4.222,1.057-8.183,2.903-11.877h4.882c-1.846,3.694-2.903,7.654-2.903,11.877
				s1.057,8.181,2.903,11.874h-4.882C161.513,224.537,160.456,220.578,160.456,216.356z"/>
			<path fill="#1A1A1A" d="M178.884,220.314h5.278v5.278h-5.278V220.314z"/>
			<path fill="#1A1A1A" d="M194.79,228.23c1.848-3.694,2.903-7.652,2.903-11.874s-1.055-8.183-2.903-11.877h4.882
				c1.848,3.694,2.903,7.654,2.903,11.877s-1.055,8.181-2.903,11.874H194.79z"/>
			<path fill="#1A1A1A" d="M213.94,216.356c0-4.222,1.057-8.183,2.903-11.877h4.882c-1.846,3.694-2.903,7.654-2.903,11.877
				s1.057,8.181,2.903,11.874h-4.882C214.998,224.537,213.94,220.578,213.94,216.356z"/>
			<path fill="#1A1A1A" d="M232.369,220.314h5.278v5.278h-5.278V220.314z"/>
			<path fill="#1A1A1A" d="M248.274,228.23c1.848-3.694,2.903-7.652,2.903-11.874s-1.055-8.183-2.903-11.877h4.882
				c1.848,3.694,2.903,7.654,2.903,11.877s-1.055,8.181-2.903,11.874H248.274z"/>
			<path fill="#1A1A1A" d="M267.425,216.356c0-4.222,1.057-8.183,2.903-11.877h4.882c-1.846,3.694-2.903,7.654-2.903,11.877
				s1.057,8.181,2.903,11.874h-4.882C268.482,224.537,267.425,220.578,267.425,216.356z"/>
			<path fill="#1A1A1A" d="M285.853,220.314h5.278v5.278h-5.278V220.314z"/>
			<path fill="#1A1A1A" d="M301.761,228.23c1.848-3.694,2.903-7.652,2.903-11.874s-1.055-8.183-2.903-11.877h4.882
				c1.848,3.694,2.903,7.654,2.903,11.877s-1.055,8.181-2.903,11.874H301.761z"/>
			<path fill="#1A1A1A" d="M320.911,216.356c0-4.222,1.055-8.183,2.903-11.877h4.882c-1.846,3.694-2.903,7.654-2.903,11.877
				s1.057,8.181,2.903,11.874h-4.882C321.966,224.537,320.911,220.578,320.911,216.356z"/>
			<path fill="#1A1A1A" d="M339.337,220.314h5.277v5.278h-5.277V220.314z"/>
			<path fill="#1A1A1A" d="M355.245,228.23c1.848-3.694,2.903-7.652,2.903-11.874s-1.055-8.183-2.903-11.877h4.882
				c1.848,3.694,2.903,7.654,2.903,11.877s-1.055,8.181-2.903,11.874H355.245z"/>
			<path fill="#1A1A1A" d="M374.395,216.356c0-4.222,1.055-8.183,2.903-11.877h4.882c-1.846,3.694-2.903,7.654-2.903,11.877
				s1.057,8.181,2.903,11.874h-4.882C375.451,224.537,374.395,220.578,374.395,216.356z"/>
			<path fill="#1A1A1A" d="M392.824,220.314h5.277v5.278h-5.277V220.314z"/>
			<path fill="#1A1A1A" d="M408.729,228.23c1.848-3.694,2.903-7.652,2.903-11.874s-1.055-8.183-2.903-11.877h4.882
				c1.848,3.694,2.903,7.654,2.903,11.877s-1.055,8.181-2.903,11.874H408.729z"/>
			<path fill="#1A1A1A" d="M427.88,216.356c0-4.222,1.055-8.183,2.903-11.877h4.882c-1.846,3.694-2.903,7.654-2.903,11.877
				s1.057,8.181,2.903,11.874h-4.882C428.935,224.537,427.88,220.578,427.88,216.356z"/>
			<path fill="#1A1A1A" d="M446.308,220.314h5.278v5.278h-5.278V220.314z"/>
			<path fill="#1A1A1A" d="M462.214,228.23c1.848-3.694,2.903-7.652,2.903-11.874s-1.055-8.183-2.903-11.877h4.882
				c1.848,3.694,2.903,7.654,2.903,11.877s-1.055,8.181-2.903,11.874H462.214z"/>
		</g>
	</g>
	<g>
		<g>
			<path fill="#1A1A1A" d="M3.869,284.516c0-4.222,1.055-8.183,2.903-11.877h4.407c-1.848,3.694-2.903,7.654-2.903,11.877
				s1.055,8.181,2.903,11.874H6.772C4.924,292.696,3.869,288.738,3.869,284.516z"/>
			<path fill="#1A1A1A" d="M22.031,289.028h4.725v4.723h-4.725V289.028z"/>
			<path fill="#1A1A1A" d="M37.595,296.39c1.848-3.694,2.903-7.652,2.903-11.874s-1.055-8.183-2.903-11.877h4.407
				c1.848,3.694,2.903,7.654,2.903,11.877s-1.055,8.181-2.903,11.874H37.595z"/>
			<path fill="#1A1A1A" d="M56.522,284.516c0-4.222,1.055-8.183,2.903-11.877h4.407c-1.848,3.694-2.903,7.654-2.903,11.877
				s1.055,8.181,2.903,11.874h-4.407C57.577,292.696,56.522,288.738,56.522,284.516z"/>
			<path fill="#1A1A1A" d="M74.684,289.028h4.725v4.723h-4.725V289.028z"/>
			<path fill="#1A1A1A" d="M90.248,296.39c1.848-3.694,2.903-7.652,2.903-11.874s-1.055-8.183-2.903-11.877h4.407
				c1.848,3.694,2.903,7.654,2.903,11.877s-1.055,8.181-2.903,11.874H90.248z"/>
			<path fill="#1A1A1A" d="M109.174,284.516c0-4.222,1.055-8.183,2.903-11.877h4.407c-1.848,3.694-2.903,7.654-2.903,11.877
				s1.055,8.181,2.903,11.874h-4.407C110.229,292.696,109.174,288.738,109.174,284.516z"/>
			<path fill="#1A1A1A" d="M127.336,289.028h4.725v4.723h-4.725V289.028z"/>
			<path fill="#1A1A1A" d="M142.9,296.39c1.848-3.694,2.903-7.652,2.903-11.874s-1.055-8.183-2.903-11.877h4.407
				c1.848,3.694,2.903,7.654,2.903,11.877s-1.055,8.181-2.903,11.874H142.9z"/>
			<path fill="#1A1A1A" d="M161.829,284.516c0-4.222,1.055-8.183,2.903-11.877h4.407c-1.848,3.694-2.903,7.654-2.903,11.877
				s1.055,8.181,2.903,11.874h-4.407C162.884,292.696,161.829,288.738,161.829,284.516z"/>
			<path fill="#1A1A1A" d="M179.991,289.028h4.725v4.723h-4.725V289.028z"/>
			<path fill="#1A1A1A" d="M195.553,296.39c1.848-3.694,2.903-7.652,2.903-11.874s-1.055-8.183-2.903-11.877h4.407
				c1.848,3.694,2.903,7.654,2.903,11.877s-1.055,8.181-2.903,11.874H195.553z"/>
			<path fill="#1A1A1A" d="M214.482,284.516c0-4.222,1.055-8.183,2.903-11.877h4.407c-1.848,3.694-2.903,7.654-2.903,11.877
				s1.055,8.181,2.903,11.874h-4.407C215.537,292.696,214.482,288.738,214.482,284.516z"/>
			<path fill="#1A1A1A" d="M232.644,289.028h4.725v4.723h-4.725V289.028z"/>
			<path fill="#1A1A1A" d="M248.208,296.39c1.848-3.694,2.903-7.652,2.903-11.874s-1.055-8.183-2.903-11.877h4.407
				c1.848,3.694,2.903,7.654,2.903,11.877s-1.055,8.181-2.903,11.874H248.208z"/>
			<path fill="#1A1A1A" d="M267.135,284.516c0-4.222,1.055-8.183,2.903-11.877h4.407c-1.848,3.694-2.903,7.654-2.903,11.877
				s1.055,8.181,2.903,11.874h-4.407C268.19,292.696,267.135,288.738,267.135,284.516z"/>
			<path fill="#1A1A1A" d="M285.297,289.028h4.725v4.723h-4.725V289.028z"/>
			<path fill="#1A1A1A" d="M300.86,296.39c1.848-3.694,2.903-7.652,2.903-11.874s-1.055-8.183-2.903-11.877h4.407
				c1.848,3.694,2.903,7.654,2.903,11.877s-1.055,8.181-2.903,11.874H300.86z"/>
			<path fill="#1A1A1A" d="M319.787,284.516c0-4.222,1.055-8.183,2.903-11.877h4.407c-1.848,3.694-2.903,7.654-2.903,11.877
				s1.055,8.181,2.903,11.874h-4.407C320.842,292.696,319.787,288.738,319.787,284.516z"/>
			<path fill="#1A1A1A" d="M337.949,289.028h4.725v4.723h-4.725V289.028z"/>
			<path fill="#1A1A1A" d="M353.513,296.39c1.848-3.694,2.903-7.652,2.903-11.874s-1.055-8.183-2.903-11.877h4.407
				c1.848,3.694,2.903,7.654,2.903,11.877s-1.055,8.181-2.903,11.874H353.513z"/>
			<path fill="#1A1A1A" d="M372.442,284.516c0-4.222,1.055-8.183,2.903-11.877h4.407c-1.848,3.694-2.903,7.654-2.903,11.877
				s1.055,8.181,2.903,11.874h-4.407C373.497,292.696,372.442,288.738,372.442,284.516z"/>
			<path fill="#1A1A1A" d="M390.604,289.028h4.725v4.723h-4.725V289.028z"/>
			<path fill="#1A1A1A" d="M406.166,296.39c1.848-3.694,2.903-7.652,2.903-11.874s-1.055-8.183-2.903-11.877h4.407
				c1.848,3.694,2.903,7.654,2.903,11.877s-1.055,8.181-2.903,11.874H406.166z"/>
			<path fill="#1A1A1A" d="M425.095,284.516c0-4.222,1.055-8.183,2.903-11.877h4.407c-1.848,3.694-2.903,7.654-2.903,11.877
				s1.055,8.181,2.903,11.874h-4.407C426.15,292.696,425.095,288.738,425.095,284.516z"/>
			<path fill="#1A1A1A" d="M443.257,289.028h4.725v4.723h-4.725V289.028z"/>
			<path fill="#1A1A1A" d="M458.821,296.39c1.848-3.694,2.903-7.652,2.903-11.874s-1.055-8.183-2.903-11.877h4.407
				c1.848,3.694,2.903,7.654,2.903,11.877s-1.055,8.181-2.903,11.874H458.821z"/>
		</g>
	</g>
	<g>
		<path fill="#1A1A1A" d="M0,352.676c0-4.222,1.055-8.183,2.903-11.877h4.882c-1.846,3.694-2.903,7.654-2.903,11.877
			s1.057,8.181,2.903,11.874H2.903C1.055,360.856,0,356.898,0,352.676z"/>
		<path fill="#1A1A1A" d="M18.428,356.634h5.278v5.277h-5.278V356.634z"/>
		<path fill="#1A1A1A" d="M34.336,364.55c1.848-3.694,2.903-7.652,2.903-11.874s-1.055-8.183-2.903-11.877h4.882
			c1.848,3.694,2.903,7.654,2.903,11.877s-1.055,8.181-2.903,11.874H34.336z"/>
		<path fill="#1A1A1A" d="M53.486,352.676c0-4.222,1.057-8.183,2.903-11.877h4.882c-1.846,3.694-2.903,7.654-2.903,11.877
			s1.057,8.181,2.903,11.874H56.39C54.544,360.856,53.486,356.898,53.486,352.676z"/>
		<path fill="#1A1A1A" d="M71.913,356.634h5.278v5.277h-5.278V356.634z"/>
		<path fill="#1A1A1A" d="M87.82,364.55c1.848-3.694,2.903-7.652,2.903-11.874s-1.055-8.183-2.903-11.877h4.882
			c1.848,3.694,2.903,7.654,2.903,11.877s-1.055,8.181-2.903,11.874H87.82z"/>
		<path fill="#1A1A1A" d="M106.971,352.676c0-4.222,1.057-8.183,2.903-11.877h4.882c-1.846,3.694-2.903,7.654-2.903,11.877
			s1.057,8.181,2.903,11.874h-4.882C108.028,360.856,106.971,356.898,106.971,352.676z"/>
		<path fill="#1A1A1A" d="M125.399,356.634h5.278v5.277h-5.278V356.634z"/>
		<path fill="#1A1A1A" d="M141.305,364.55c1.848-3.694,2.903-7.652,2.903-11.874s-1.055-8.183-2.903-11.877h4.882
			c1.848,3.694,2.903,7.654,2.903,11.877s-1.055,8.181-2.903,11.874H141.305z"/>
		<path fill="#1A1A1A" d="M160.455,352.676c0-4.222,1.057-8.183,2.903-11.877h4.882c-1.846,3.694-2.903,7.654-2.903,11.877
			s1.057,8.181,2.903,11.874h-4.882C161.512,360.856,160.455,356.898,160.455,352.676z"/>
		<path fill="#1A1A1A" d="M178.883,356.634h5.278v5.277h-5.278V356.634z"/>
		<path fill="#1A1A1A" d="M194.789,364.55c1.848-3.694,2.903-7.652,2.903-11.874s-1.055-8.183-2.903-11.877h4.882
			c1.848,3.694,2.903,7.654,2.903,11.877s-1.055,8.181-2.903,11.874H194.789z"/>
		<path fill="#1A1A1A" d="M213.939,352.676c0-4.222,1.057-8.183,2.903-11.877h4.882c-1.846,3.694-2.903,7.654-2.903,11.877
			s1.057,8.181,2.903,11.874h-4.882C214.997,360.856,213.939,356.898,213.939,352.676z"/>
		<path fill="#1A1A1A" d="M232.368,356.634h5.278v5.277h-5.278V356.634z"/>
		<path fill="#1A1A1A" d="M248.275,364.55c1.848-3.694,2.903-7.652,2.903-11.874s-1.055-8.183-2.903-11.877h4.882
			c1.848,3.694,2.903,7.654,2.903,11.877s-1.055,8.181-2.903,11.874H248.275z"/>
		<path fill="#1A1A1A" d="M267.426,352.676c0-4.222,1.055-8.183,2.903-11.877h4.882c-1.846,3.694-2.903,7.654-2.903,11.877
			s1.057,8.181,2.903,11.874h-4.882C268.481,360.856,267.426,356.898,267.426,352.676z"/>
		<path fill="#1A1A1A" d="M285.852,356.634h5.278v5.277h-5.278V356.634z"/>
		<path fill="#1A1A1A" d="M301.76,364.55c1.848-3.694,2.903-7.652,2.903-11.874s-1.055-8.183-2.903-11.877h4.882
			c1.848,3.694,2.903,7.654,2.903,11.877s-1.055,8.181-2.903,11.874H301.76z"/>
		<path fill="#1A1A1A" d="M320.91,352.676c0-4.222,1.055-8.183,2.903-11.877h4.882c-1.846,3.694-2.903,7.654-2.903,11.877
			s1.057,8.181,2.903,11.874h-4.882C321.965,360.856,320.91,356.898,320.91,352.676z"/>
		<path fill="#1A1A1A" d="M339.338,356.634h5.278v5.277h-5.278V356.634z"/>
		<path fill="#1A1A1A" d="M355.244,364.55c1.848-3.694,2.903-7.652,2.903-11.874s-1.055-8.183-2.903-11.877h4.882
			c1.848,3.694,2.903,7.654,2.903,11.877s-1.055,8.181-2.903,11.874H355.244z"/>
		<path fill="#1A1A1A" d="M374.394,352.676c0-4.222,1.055-8.183,2.903-11.877h4.882c-1.846,3.694-2.903,7.654-2.903,11.877
			s1.057,8.181,2.903,11.874h-4.882C375.449,360.856,374.394,356.898,374.394,352.676z"/>
		<path fill="#1A1A1A" d="M392.823,356.634h5.278v5.277h-5.278V356.634z"/>
		<path fill="#1A1A1A" d="M408.728,364.55c1.848-3.694,2.903-7.652,2.903-11.874s-1.055-8.183-2.903-11.877h4.882
			c1.848,3.694,2.903,7.654,2.903,11.877s-1.055,8.181-2.903,11.874H408.728z"/>
		<path fill="#1A1A1A" d="M427.879,352.676c0-4.222,1.055-8.183,2.903-11.877h4.882c-1.846,3.694-2.903,7.654-2.903,11.877
			s1.057,8.181,2.903,11.874h-4.882C428.934,360.856,427.879,356.898,427.879,352.676z"/>
		<path fill="#1A1A1A" d="M446.307,356.634h5.278v5.277h-5.278V356.634z"/>
		<path fill="#1A1A1A" d="M462.215,364.55c1.848-3.694,2.903-7.652,2.903-11.874s-1.055-8.183-2.903-11.877h4.882
			c1.848,3.694,2.903,7.654,2.903,11.877s-1.055,8.181-2.903,11.874H462.215z"/>
	</g>
	<g>
		<g>
			<path fill="#1A1A1A" d="M7.594,330.47c1.848-3.694,2.901-7.652,2.901-11.874s-1.053-8.183-2.901-11.877h4.882
				c1.848,3.694,2.901,7.654,2.901,11.877s-1.053,8.181-2.901,11.874H7.594z"/>
			<path fill="#1A1A1A" d="M26.74,318.596c0-4.222,1.057-8.183,2.905-11.877h4.882c-1.848,3.694-2.905,7.654-2.905,11.877
				s1.057,8.181,2.905,11.874h-4.882C27.797,326.776,26.74,322.818,26.74,318.596z"/>
			<path fill="#1A1A1A" d="M45.168,322.554h5.278v5.278h-5.278V322.554z"/>
			<path fill="#1A1A1A" d="M61.078,330.47c1.848-3.694,2.901-7.652,2.901-11.874s-1.053-8.183-2.901-11.877h4.882
				c1.848,3.694,2.901,7.654,2.901,11.877s-1.053,8.181-2.901,11.874H61.078z"/>
			<path fill="#1A1A1A" d="M80.229,318.596c0-4.222,1.057-8.183,2.901-11.877h4.882c-1.844,3.694-2.901,7.654-2.901,11.877
				s1.057,8.181,2.901,11.874H83.13C81.286,326.776,80.229,322.818,80.229,318.596z"/>
			<path fill="#1A1A1A" d="M98.653,322.554h5.278v5.278h-5.278V322.554z"/>
			<path fill="#1A1A1A" d="M114.563,330.47c1.848-3.694,2.901-7.652,2.901-11.874s-1.053-8.183-2.901-11.877h4.882
				c1.848,3.694,2.901,7.654,2.901,11.877s-1.053,8.181-2.901,11.874H114.563z"/>
			<path fill="#1A1A1A" d="M133.713,318.596c0-4.222,1.057-8.183,2.901-11.877h4.882c-1.844,3.694-2.901,7.654-2.901,11.877
				s1.057,8.181,2.901,11.874h-4.882C134.77,326.776,133.713,322.818,133.713,318.596z"/>
			<path fill="#1A1A1A" d="M152.141,322.554h5.278v5.278h-5.278V322.554z"/>
			<path fill="#1A1A1A" d="M168.047,330.47c1.848-3.694,2.901-7.652,2.901-11.874s-1.053-8.183-2.901-11.877h4.882
				c1.848,3.694,2.901,7.654,2.901,11.877s-1.053,8.181-2.901,11.874H168.047z"/>
			<path fill="#1A1A1A" d="M187.197,318.596c0-4.222,1.057-8.183,2.901-11.877h4.882c-1.844,3.694-2.901,7.654-2.901,11.877
				s1.057,8.181,2.901,11.874h-4.882C188.254,326.776,187.197,322.818,187.197,318.596z"/>
			<path fill="#1A1A1A" d="M205.626,322.554h5.278v5.278h-5.278V322.554z"/>
			<path fill="#1A1A1A" d="M221.531,330.47c1.848-3.694,2.901-7.652,2.901-11.874s-1.053-8.183-2.901-11.877h4.882
				c1.848,3.694,2.901,7.654,2.901,11.877s-1.053,8.181-2.901,11.874H221.531z"/>
			<path fill="#1A1A1A" d="M240.682,318.596c0-4.222,1.057-8.183,2.901-11.877h4.882c-1.844,3.694-2.901,7.654-2.901,11.877
				s1.057,8.181,2.901,11.874h-4.882C241.739,326.776,240.682,322.818,240.682,318.596z"/>
			<path fill="#1A1A1A" d="M259.11,322.554h5.278v5.278h-5.278V322.554z"/>
			<path fill="#1A1A1A" d="M275.015,330.47c1.848-3.694,2.905-7.652,2.905-11.874s-1.057-8.183-2.905-11.877h4.882
				c1.848,3.694,2.905,7.654,2.905,11.877s-1.057,8.181-2.905,11.874H275.015z"/>
			<path fill="#1A1A1A" d="M294.166,318.596c0-4.222,1.057-8.183,2.905-11.877h4.882c-1.848,3.694-2.905,7.654-2.905,11.877
				s1.057,8.181,2.905,11.874h-4.882C295.223,326.776,294.166,322.818,294.166,318.596z"/>
			<path fill="#1A1A1A" d="M312.594,322.554h5.277v5.278h-5.277V322.554z"/>
			<path fill="#1A1A1A" d="M328.5,330.47c1.848-3.694,2.905-7.652,2.905-11.874s-1.057-8.183-2.905-11.877h4.882
				c1.848,3.694,2.905,7.654,2.905,11.877s-1.057,8.181-2.905,11.874H328.5z"/>
			<path fill="#1A1A1A" d="M347.65,318.596c0-4.222,1.057-8.183,2.905-11.877h4.882c-1.848,3.694-2.905,7.654-2.905,11.877
				s1.057,8.181,2.905,11.874h-4.882C348.707,326.776,347.65,322.818,347.65,318.596z"/>
			<path fill="#1A1A1A" d="M366.078,322.554h5.278v5.278h-5.278V322.554z"/>
			<path fill="#1A1A1A" d="M381.984,330.47c1.848-3.694,2.905-7.652,2.905-11.874s-1.057-8.183-2.905-11.877h4.882
				c1.848,3.694,2.905,7.654,2.905,11.877s-1.057,8.181-2.905,11.874H381.984z"/>
			<path fill="#1A1A1A" d="M401.134,318.596c0-4.222,1.057-8.183,2.905-11.877h4.882c-1.848,3.694-2.905,7.654-2.905,11.877
				s1.057,8.181,2.905,11.874h-4.882C402.192,326.776,401.134,322.818,401.134,318.596z"/>
			<path fill="#1A1A1A" d="M419.563,322.554h5.277v5.278h-5.277V322.554z"/>
			<path fill="#1A1A1A" d="M435.468,330.47c1.848-3.694,2.905-7.652,2.905-11.874s-1.057-8.183-2.905-11.877h4.882
				c1.848,3.694,2.905,7.654,2.905,11.877s-1.057,8.181-2.905,11.874H435.468z"/>
			<path fill="#1A1A1A" d="M454.619,318.596c0-4.222,1.057-8.183,2.905-11.877h4.882c-1.848,3.694-2.905,7.654-2.905,11.877
				s1.057,8.181,2.905,11.874h-4.882C455.676,326.776,454.619,322.818,454.619,318.596z"/>
		</g>
	</g>
	<g>
		<path fill="#1A1A1A" d="M7.594,125.991c1.848-3.694,2.903-7.652,2.903-11.874c0-4.222-1.055-8.183-2.903-11.877h4.882
			c1.848,3.694,2.903,7.654,2.903,11.877c0,4.222-1.055,8.181-2.903,11.874H7.594z"/>
		<path fill="#1A1A1A" d="M26.742,114.116c0-4.222,1.055-8.183,2.903-11.877h4.882c-1.846,3.694-2.903,7.654-2.903,11.877
			c0,4.222,1.057,8.181,2.903,11.874h-4.882C27.797,122.297,26.742,118.339,26.742,114.116z"/>
		<path fill="#1A1A1A" d="M45.17,118.074h5.278v5.278H45.17V118.074z"/>
		<path fill="#1A1A1A" d="M61.078,125.991c1.848-3.694,2.903-7.652,2.903-11.874c0-4.222-1.055-8.183-2.903-11.877h4.882
			c1.848,3.694,2.903,7.654,2.903,11.877c0,4.222-1.055,8.181-2.903,11.874H61.078z"/>
		<path fill="#1A1A1A" d="M80.229,114.116c0-4.222,1.057-8.183,2.903-11.877h4.882c-1.846,3.694-2.903,7.654-2.903,11.877
			c0,4.222,1.057,8.181,2.903,11.874h-4.882C81.286,122.297,80.229,118.339,80.229,114.116z"/>
		<path fill="#1A1A1A" d="M98.655,118.074h5.278v5.278h-5.278V118.074z"/>
		<path fill="#1A1A1A" d="M114.563,125.991c1.848-3.694,2.903-7.652,2.903-11.874c0-4.222-1.055-8.183-2.903-11.877h4.882
			c1.848,3.694,2.903,7.654,2.903,11.877c0,4.222-1.055,8.181-2.903,11.874H114.563z"/>
		<path fill="#1A1A1A" d="M133.713,114.116c0-4.222,1.057-8.183,2.903-11.877h4.882c-1.846,3.694-2.903,7.654-2.903,11.877
			c0,4.222,1.057,8.181,2.903,11.874h-4.882C134.77,122.297,133.713,118.339,133.713,114.116z"/>
		<path fill="#1A1A1A" d="M152.141,118.074h5.278v5.278h-5.278V118.074z"/>
		<path fill="#1A1A1A" d="M168.047,125.991c1.848-3.694,2.903-7.652,2.903-11.874c0-4.222-1.055-8.183-2.903-11.877h4.882
			c1.848,3.694,2.903,7.654,2.903,11.877c0,4.222-1.055,8.181-2.903,11.874H168.047z"/>
		<path fill="#1A1A1A" d="M187.197,114.116c0-4.222,1.057-8.183,2.903-11.877h4.882c-1.846,3.694-2.903,7.654-2.903,11.877
			c0,4.222,1.057,8.181,2.903,11.874H190.1C188.254,122.297,187.197,118.339,187.197,114.116z"/>
		<path fill="#1A1A1A" d="M205.626,118.074h5.278v5.278h-5.278V118.074z"/>
		<path fill="#1A1A1A" d="M221.531,125.991c1.848-3.694,2.903-7.652,2.903-11.874c0-4.222-1.055-8.183-2.903-11.877h4.882
			c1.848,3.694,2.903,7.654,2.903,11.877c0,4.222-1.055,8.181-2.903,11.874H221.531z"/>
		<path fill="#1A1A1A" d="M240.682,114.116c0-4.222,1.057-8.183,2.903-11.877h4.882c-1.846,3.694-2.903,7.654-2.903,11.877
			c0,4.222,1.057,8.181,2.903,11.874h-4.882C241.739,122.297,240.682,118.339,240.682,114.116z"/>
		<path fill="#1A1A1A" d="M259.11,118.074h5.278v5.278h-5.278V118.074z"/>
		<path fill="#1A1A1A" d="M275.018,125.991c1.848-3.694,2.903-7.652,2.903-11.874c0-4.222-1.055-8.183-2.903-11.877h4.882
			c1.848,3.694,2.903,7.654,2.903,11.877c0,4.222-1.055,8.181-2.903,11.874H275.018z"/>
		<path fill="#1A1A1A" d="M294.168,114.116c0-4.222,1.055-8.183,2.903-11.877h4.882c-1.846,3.694-2.903,7.654-2.903,11.877
			c0,4.222,1.057,8.181,2.903,11.874h-4.882C295.223,122.297,294.168,118.339,294.168,114.116z"/>
		<path fill="#1A1A1A" d="M312.594,118.074h5.277v5.278h-5.277V118.074z"/>
		<path fill="#1A1A1A" d="M328.502,125.991c1.848-3.694,2.903-7.652,2.903-11.874c0-4.222-1.055-8.183-2.903-11.877h4.882
			c1.848,3.694,2.903,7.654,2.903,11.877c0,4.222-1.055,8.181-2.903,11.874H328.502z"/>
		<path fill="#1A1A1A" d="M347.652,114.116c0-4.222,1.055-8.183,2.903-11.877h4.882c-1.846,3.694-2.903,7.654-2.903,11.877
			c0,4.222,1.057,8.181,2.903,11.874h-4.882C348.707,122.297,347.652,118.339,347.652,114.116z"/>
		<path fill="#1A1A1A" d="M366.081,118.074h5.277v5.278h-5.277V118.074z"/>
		<path fill="#1A1A1A" d="M381.986,125.991c1.848-3.694,2.903-7.652,2.903-11.874c0-4.222-1.055-8.183-2.903-11.877h4.882
			c1.848,3.694,2.903,7.654,2.903,11.877c0,4.222-1.055,8.181-2.903,11.874H381.986z"/>
		<path fill="#1A1A1A" d="M401.137,114.116c0-4.222,1.055-8.183,2.903-11.877h4.882c-1.846,3.694-2.903,7.654-2.903,11.877
			c0,4.222,1.057,8.181,2.903,11.874h-4.882C402.192,122.297,401.137,118.339,401.137,114.116z"/>
		<path fill="#1A1A1A" d="M419.565,118.074h5.278v5.278h-5.278V118.074z"/>
		<path fill="#1A1A1A" d="M435.47,125.991c1.848-3.694,2.903-7.652,2.903-11.874c0-4.222-1.055-8.183-2.903-11.877h4.882
			c1.848,3.694,2.903,7.654,2.903,11.877c0,4.222-1.055,8.181-2.903,11.874H435.47z"/>
		<path fill="#1A1A1A" d="M454.621,114.116c0-4.222,1.055-8.183,2.903-11.877h4.882c-1.846,3.694-2.903,7.654-2.903,11.877
			c0,4.222,1.057,8.181,2.903,11.874h-4.882C455.676,122.297,454.621,118.339,454.621,114.116z"/>
	</g>
	<g>
		<g>
			
				<rect x="363.012" y="391.151" transform="matrix(0.7076 -0.7066 0.7066 0.7076 -170.1331 375.5217)" fill="#1A1A1A" width="11.414" height="4.401"/>
		</g>
		<g>
			
				<rect x="366.519" y="387.645" transform="matrix(0.707 -0.7072 0.7072 0.707 -170.1491 376.0135)" fill="#1A1A1A" width="4.401" height="11.414"/>
		</g>
	</g>
	<g>
		<g>
			
				<rect x="309.526" y="391.153" transform="matrix(0.7071 -0.7071 0.7071 0.7071 -185.8125 338.1132)" fill="#1A1A1A" width="11.412" height="4.398"/>
		</g>
		<g>
			
				<rect x="313.034" y="387.646" transform="matrix(0.7071 -0.7071 0.7071 0.7071 -185.8125 338.1132)" fill="#1A1A1A" width="4.398" height="11.412"/>
		</g>
	</g>
	<g>
		<g>
			<path fill="#1A1A1A" d="M7.594,398.63c1.848-3.694,2.903-7.652,2.903-11.874c0-4.222-1.055-8.183-2.903-11.877h4.882
				c1.848,3.694,2.903,7.654,2.903,11.877c0,4.222-1.055,8.181-2.903,11.874H7.594z"/>
			<path fill="#1A1A1A" d="M26.742,386.755c0-4.222,1.055-8.183,2.903-11.877h4.882c-1.846,3.694-2.903,7.654-2.903,11.877
				c0,4.222,1.057,8.181,2.903,11.874h-4.882C27.797,394.936,26.742,390.978,26.742,386.755z"/>
			<path fill="#1A1A1A" d="M45.17,390.714h5.278v5.278H45.17V390.714z"/>
			<path fill="#1A1A1A" d="M61.078,398.63c1.848-3.694,2.903-7.652,2.903-11.874c0-4.222-1.055-8.183-2.903-11.877h4.882
				c1.848,3.694,2.903,7.654,2.903,11.877c0,4.222-1.055,8.181-2.903,11.874H61.078z"/>
			<path fill="#1A1A1A" d="M80.229,386.755c0-4.222,1.057-8.183,2.903-11.877h4.882c-1.846,3.694-2.903,7.654-2.903,11.877
				c0,4.222,1.057,8.181,2.903,11.874h-4.882C81.286,394.936,80.229,390.978,80.229,386.755z"/>
			<path fill="#1A1A1A" d="M98.655,390.714h5.278v5.278h-5.278V390.714z"/>
			<path fill="#1A1A1A" d="M114.563,398.63c1.848-3.694,2.903-7.652,2.903-11.874c0-4.222-1.055-8.183-2.903-11.877h4.882
				c1.848,3.694,2.903,7.654,2.903,11.877c0,4.222-1.055,8.181-2.903,11.874H114.563z"/>
			<path fill="#1A1A1A" d="M133.713,386.755c0-4.222,1.057-8.183,2.903-11.877h4.882c-1.846,3.694-2.903,7.654-2.903,11.877
				c0,4.222,1.057,8.181,2.903,11.874h-4.882C134.77,394.936,133.713,390.978,133.713,386.755z"/>
			<path fill="#1A1A1A" d="M152.141,390.714h5.278v5.278h-5.278V390.714z"/>
			<path fill="#1A1A1A" d="M168.047,398.63c1.848-3.694,2.903-7.652,2.903-11.874c0-4.222-1.055-8.183-2.903-11.877h4.882
				c1.848,3.694,2.903,7.654,2.903,11.877c0,4.222-1.055,8.181-2.903,11.874H168.047z"/>
			<path fill="#1A1A1A" d="M187.197,386.755c0-4.222,1.057-8.183,2.903-11.877h4.882c-1.846,3.694-2.903,7.654-2.903,11.877
				c0,4.222,1.057,8.181,2.903,11.874H190.1C188.254,394.936,187.197,390.978,187.197,386.755z"/>
			<path fill="#1A1A1A" d="M205.626,390.714h5.278v5.278h-5.278V390.714z"/>
			<path fill="#1A1A1A" d="M221.531,398.63c1.848-3.694,2.903-7.652,2.903-11.874c0-4.222-1.055-8.183-2.903-11.877h4.882
				c1.848,3.694,2.903,7.654,2.903,11.877c0,4.222-1.055,8.181-2.903,11.874H221.531z"/>
			<path fill="#1A1A1A" d="M240.682,386.755c0-4.222,1.057-8.183,2.903-11.877h4.882c-1.846,3.694-2.903,7.654-2.903,11.877
				c0,4.222,1.057,8.181,2.903,11.874h-4.882C241.739,394.936,240.682,390.978,240.682,386.755z"/>
			<path fill="#1A1A1A" d="M259.11,390.714h5.278v5.278h-5.278V390.714z"/>
			<path fill="#1A1A1A" d="M275.018,398.63c1.848-3.694,2.903-7.652,2.903-11.874c0-4.222-1.055-8.183-2.903-11.877h4.882
				c1.848,3.694,2.903,7.654,2.903,11.877c0,4.222-1.055,8.181-2.903,11.874H275.018z"/>
			<path fill="#1A1A1A" d="M294.168,386.755c0-4.222,1.055-8.183,2.903-11.877h4.882c-1.846,3.694-2.903,7.654-2.903,11.877
				c0,4.222,1.057,8.181,2.903,11.874h-4.882C295.223,394.936,294.168,390.978,294.168,386.755z"/>
			<path fill="#1A1A1A" d="M312.594,390.714h5.277v5.278h-5.277V390.714z"/>
			<path fill="#1A1A1A" d="M328.502,398.63c1.848-3.694,2.903-7.652,2.903-11.874c0-4.222-1.055-8.183-2.903-11.877h4.882
				c1.848,3.694,2.903,7.654,2.903,11.877c0,4.222-1.055,8.181-2.903,11.874H328.502z"/>
			<path fill="#1A1A1A" d="M347.652,386.755c0-4.222,1.055-8.183,2.903-11.877h4.882c-1.846,3.694-2.903,7.654-2.903,11.877
				c0,4.222,1.057,8.181,2.903,11.874h-4.882C348.707,394.936,347.652,390.978,347.652,386.755z"/>
			<path fill="#1A1A1A" d="M366.081,390.714h5.277v5.278h-5.277V390.714z"/>
			<path fill="#1A1A1A" d="M381.986,398.63c1.848-3.694,2.903-7.652,2.903-11.874c0-4.222-1.055-8.183-2.903-11.877h4.882
				c1.848,3.694,2.903,7.654,2.903,11.877c0,4.222-1.055,8.181-2.903,11.874H381.986z"/>
			<path fill="#1A1A1A" d="M401.137,386.755c0-4.222,1.055-8.183,2.903-11.877h4.882c-1.846,3.694-2.903,7.654-2.903,11.877
				c0,4.222,1.057,8.181,2.903,11.874h-4.882C402.192,394.936,401.137,390.978,401.137,386.755z"/>
			<path fill="#1A1A1A" d="M419.565,390.714h5.278v5.278h-5.278V390.714z"/>
			<path fill="#1A1A1A" d="M435.47,398.63c1.848-3.694,2.903-7.652,2.903-11.874c0-4.222-1.055-8.183-2.903-11.877h4.882
				c1.848,3.694,2.903,7.654,2.903,11.877c0,4.222-1.055,8.181-2.903,11.874H435.47z"/>
			<path fill="#1A1A1A" d="M454.621,386.755c0-4.222,1.055-8.183,2.903-11.877h4.882c-1.846,3.694-2.903,7.654-2.903,11.877
				c0,4.222,1.057,8.181,2.903,11.874h-4.882C455.676,394.936,454.621,390.978,454.621,386.755z"/>
		</g>
		<g>
			<g>
				<path fill="#1A1A1A" d="M0.001,420.835c0-4.222,1.055-8.183,2.903-11.877h4.882c-1.846,3.694-2.903,7.654-2.903,11.877
					s1.057,8.181,2.903,11.874H2.904C1.056,429.016,0.001,425.058,0.001,420.835z"/>
				<path fill="#1A1A1A" d="M18.429,424.794h5.278v5.278h-5.278V424.794z"/>
				<path fill="#1A1A1A" d="M34.337,432.71c1.848-3.694,2.903-7.652,2.903-11.874s-1.055-8.183-2.903-11.877h4.882
					c1.848,3.694,2.903,7.654,2.903,11.877s-1.055,8.181-2.903,11.874H34.337z"/>
				<path fill="#1A1A1A" d="M53.485,420.835c0-4.222,1.055-8.183,2.903-11.877h4.882c-1.846,3.694-2.903,7.654-2.903,11.877
					s1.057,8.181,2.903,11.874h-4.882C54.54,429.016,53.485,425.058,53.485,420.835z"/>
				<path fill="#1A1A1A" d="M71.914,424.794h5.278v5.278h-5.278V424.794z"/>
				<path fill="#1A1A1A" d="M87.821,432.71c1.848-3.694,2.903-7.652,2.903-11.874s-1.055-8.183-2.903-11.877h4.882
					c1.848,3.694,2.903,7.654,2.903,11.877s-1.055,8.181-2.903,11.874H87.821z"/>
				<path fill="#1A1A1A" d="M106.972,420.835c0-4.222,1.057-8.183,2.903-11.877h4.882c-1.846,3.694-2.903,7.654-2.903,11.877
					s1.057,8.181,2.903,11.874h-4.882C108.029,429.016,106.972,425.058,106.972,420.835z"/>
				<path fill="#1A1A1A" d="M125.398,424.794h5.278v5.278h-5.278V424.794z"/>
				<path fill="#1A1A1A" d="M141.306,432.71c1.848-3.694,2.903-7.652,2.903-11.874s-1.055-8.183-2.903-11.877h4.882
					c1.848,3.694,2.903,7.654,2.903,11.877s-1.055,8.181-2.903,11.874H141.306z"/>
				<path fill="#1A1A1A" d="M160.456,420.835c0-4.222,1.057-8.183,2.903-11.877h4.882c-1.846,3.694-2.903,7.654-2.903,11.877
					s1.057,8.181,2.903,11.874h-4.882C161.513,429.016,160.456,425.058,160.456,420.835z"/>
				<path fill="#1A1A1A" d="M178.884,424.794h5.278v5.278h-5.278V424.794z"/>
				<path fill="#1A1A1A" d="M194.79,432.71c1.848-3.694,2.903-7.652,2.903-11.874s-1.055-8.183-2.903-11.877h4.882
					c1.848,3.694,2.903,7.654,2.903,11.877s-1.055,8.181-2.903,11.874H194.79z"/>
				<path fill="#1A1A1A" d="M213.94,420.835c0-4.222,1.057-8.183,2.903-11.877h4.882c-1.846,3.694-2.903,7.654-2.903,11.877
					s1.057,8.181,2.903,11.874h-4.882C214.998,429.016,213.94,425.058,213.94,420.835z"/>
				<path fill="#1A1A1A" d="M232.369,424.794h5.278v5.278h-5.278V424.794z"/>
				<path fill="#1A1A1A" d="M248.274,432.71c1.848-3.694,2.903-7.652,2.903-11.874s-1.055-8.183-2.903-11.877h4.882
					c1.848,3.694,2.903,7.654,2.903,11.877s-1.055,8.181-2.903,11.874H248.274z"/>
				<path fill="#1A1A1A" d="M267.425,420.835c0-4.222,1.057-8.183,2.903-11.877h4.882c-1.846,3.694-2.903,7.654-2.903,11.877
					s1.057,8.181,2.903,11.874h-4.882C268.482,429.016,267.425,425.058,267.425,420.835z"/>
				<path fill="#1A1A1A" d="M285.853,424.794h5.278v5.278h-5.278V424.794z"/>
				<path fill="#1A1A1A" d="M301.761,432.71c1.848-3.694,2.903-7.652,2.903-11.874s-1.055-8.183-2.903-11.877h4.882
					c1.848,3.694,2.903,7.654,2.903,11.877s-1.055,8.181-2.903,11.874H301.761z"/>
				<path fill="#1A1A1A" d="M320.911,420.835c0-4.222,1.055-8.183,2.903-11.877h4.882c-1.846,3.694-2.903,7.654-2.903,11.877
					s1.057,8.181,2.903,11.874h-4.882C321.966,429.016,320.911,425.058,320.911,420.835z"/>
				<path fill="#1A1A1A" d="M339.337,424.794h5.277v5.278h-5.277V424.794z"/>
				<path fill="#1A1A1A" d="M355.245,432.71c1.848-3.694,2.903-7.652,2.903-11.874s-1.055-8.183-2.903-11.877h4.882
					c1.848,3.694,2.903,7.654,2.903,11.877s-1.055,8.181-2.903,11.874H355.245z"/>
				<path fill="#1A1A1A" d="M374.395,420.835c0-4.222,1.055-8.183,2.903-11.877h4.882c-1.846,3.694-2.903,7.654-2.903,11.877
					s1.057,8.181,2.903,11.874h-4.882C375.451,429.016,374.395,425.058,374.395,420.835z"/>
				<path fill="#1A1A1A" d="M392.824,424.794h5.277v5.278h-5.277V424.794z"/>
				<path fill="#1A1A1A" d="M408.729,432.71c1.848-3.694,2.903-7.652,2.903-11.874s-1.055-8.183-2.903-11.877h4.882
					c1.848,3.694,2.903,7.654,2.903,11.877s-1.055,8.181-2.903,11.874H408.729z"/>
				<path fill="#1A1A1A" d="M427.88,420.835c0-4.222,1.055-8.183,2.903-11.877h4.882c-1.846,3.694-2.903,7.654-2.903,11.877
					s1.057,8.181,2.903,11.874h-4.882C428.935,429.016,427.88,425.058,427.88,420.835z"/>
				<path fill="#1A1A1A" d="M446.308,424.794h5.278v5.278h-5.278V424.794z"/>
				<path fill="#1A1A1A" d="M462.214,432.71c1.848-3.694,2.903-7.652,2.903-11.874s-1.055-8.183-2.903-11.877h4.882
					c1.848,3.694,2.903,7.654,2.903,11.877s-1.055,8.181-2.903,11.874H462.214z"/>
			</g>
		</g>
		<g>
			<path fill="#1A1A1A" d="M7.594,466.79c1.848-3.694,2.903-7.652,2.903-11.874s-1.055-8.183-2.903-11.877h4.882
				c1.848,3.694,2.903,7.654,2.903,11.877s-1.055,8.181-2.903,11.874H7.594z"/>
			<path fill="#1A1A1A" d="M26.742,454.915c0-4.222,1.055-8.183,2.903-11.877h4.882c-1.846,3.694-2.903,7.654-2.903,11.877
				s1.057,8.181,2.903,11.874h-4.882C27.797,463.096,26.742,459.138,26.742,454.915z"/>
			<path fill="#1A1A1A" d="M45.17,458.873h5.278v5.278H45.17V458.873z"/>
			<path fill="#1A1A1A" d="M61.078,466.79c1.848-3.694,2.903-7.652,2.903-11.874s-1.055-8.183-2.903-11.877h4.882
				c1.848,3.694,2.903,7.654,2.903,11.877s-1.055,8.181-2.903,11.874H61.078z"/>
			<path fill="#1A1A1A" d="M80.229,454.915c0-4.222,1.057-8.183,2.903-11.877h4.882c-1.846,3.694-2.903,7.654-2.903,11.877
				s1.057,8.181,2.903,11.874h-4.882C81.286,463.096,80.229,459.138,80.229,454.915z"/>
			<path fill="#1A1A1A" d="M98.655,458.873h5.278v5.278h-5.278V458.873z"/>
			<path fill="#1A1A1A" d="M114.563,466.79c1.848-3.694,2.903-7.652,2.903-11.874s-1.055-8.183-2.903-11.877h4.882
				c1.848,3.694,2.903,7.654,2.903,11.877s-1.055,8.181-2.903,11.874H114.563z"/>
			<path fill="#1A1A1A" d="M133.713,454.915c0-4.222,1.057-8.183,2.903-11.877h4.882c-1.846,3.694-2.903,7.654-2.903,11.877
				s1.057,8.181,2.903,11.874h-4.882C134.77,463.096,133.713,459.138,133.713,454.915z"/>
			<path fill="#1A1A1A" d="M152.141,458.873h5.278v5.278h-5.278V458.873z"/>
			<path fill="#1A1A1A" d="M168.047,466.79c1.848-3.694,2.903-7.652,2.903-11.874s-1.055-8.183-2.903-11.877h4.882
				c1.848,3.694,2.903,7.654,2.903,11.877s-1.055,8.181-2.903,11.874H168.047z"/>
			<path fill="#1A1A1A" d="M187.197,454.915c0-4.222,1.057-8.183,2.903-11.877h4.882c-1.846,3.694-2.903,7.654-2.903,11.877
				s1.057,8.181,2.903,11.874H190.1C188.254,463.096,187.197,459.138,187.197,454.915z"/>
			<path fill="#1A1A1A" d="M205.626,458.873h5.278v5.278h-5.278V458.873z"/>
			<path fill="#1A1A1A" d="M221.531,466.79c1.848-3.694,2.903-7.652,2.903-11.874s-1.055-8.183-2.903-11.877h4.882
				c1.848,3.694,2.903,7.654,2.903,11.877s-1.055,8.181-2.903,11.874H221.531z"/>
			<path fill="#1A1A1A" d="M240.682,454.915c0-4.222,1.057-8.183,2.903-11.877h4.882c-1.846,3.694-2.903,7.654-2.903,11.877
				s1.057,8.181,2.903,11.874h-4.882C241.739,463.096,240.682,459.138,240.682,454.915z"/>
			<path fill="#1A1A1A" d="M259.11,458.873h5.278v5.278h-5.278V458.873z"/>
			<path fill="#1A1A1A" d="M275.018,466.79c1.848-3.694,2.903-7.652,2.903-11.874s-1.055-8.183-2.903-11.877h4.882
				c1.848,3.694,2.903,7.654,2.903,11.877s-1.055,8.181-2.903,11.874H275.018z"/>
			<path fill="#1A1A1A" d="M294.168,454.915c0-4.222,1.055-8.183,2.903-11.877h4.882c-1.846,3.694-2.903,7.654-2.903,11.877
				s1.057,8.181,2.903,11.874h-4.882C295.223,463.096,294.168,459.138,294.168,454.915z"/>
			<path fill="#1A1A1A" d="M312.594,458.873h5.277v5.278h-5.277V458.873z"/>
			<path fill="#1A1A1A" d="M328.502,466.79c1.848-3.694,2.903-7.652,2.903-11.874s-1.055-8.183-2.903-11.877h4.882
				c1.848,3.694,2.903,7.654,2.903,11.877s-1.055,8.181-2.903,11.874H328.502z"/>
			<path fill="#1A1A1A" d="M347.652,454.915c0-4.222,1.055-8.183,2.903-11.877h4.882c-1.846,3.694-2.903,7.654-2.903,11.877
				s1.057,8.181,2.903,11.874h-4.882C348.707,463.096,347.652,459.138,347.652,454.915z"/>
			<path fill="#1A1A1A" d="M366.081,458.873h5.277v5.278h-5.277V458.873z"/>
			<path fill="#1A1A1A" d="M381.986,466.79c1.848-3.694,2.903-7.652,2.903-11.874s-1.055-8.183-2.903-11.877h4.882
				c1.848,3.694,2.903,7.654,2.903,11.877s-1.055,8.181-2.903,11.874H381.986z"/>
			<path fill="#1A1A1A" d="M401.137,454.915c0-4.222,1.055-8.183,2.903-11.877h4.882c-1.846,3.694-2.903,7.654-2.903,11.877
				s1.057,8.181,2.903,11.874h-4.882C402.192,463.096,401.137,459.138,401.137,454.915z"/>
			<path fill="#1A1A1A" d="M419.565,458.873h5.278v5.278h-5.278V458.873z"/>
			<path fill="#1A1A1A" d="M435.47,466.79c1.848-3.694,2.903-7.652,2.903-11.874s-1.055-8.183-2.903-11.877h4.882
				c1.848,3.694,2.903,7.654,2.903,11.877s-1.055,8.181-2.903,11.874H435.47z"/>
			<path fill="#1A1A1A" d="M454.621,454.915c0-4.222,1.055-8.183,2.903-11.877h4.882c-1.846,3.694-2.903,7.654-2.903,11.877
				s1.057,8.181,2.903,11.874h-4.882C455.676,463.096,454.621,459.138,454.621,454.915z"/>
		</g>
	</g>
</g>
<g>
	<rect x="130.676" y="99.885" fill="#FFFFFF" width="208.662" height="166.804"/>
</g>
<text transform="matrix(1 0 0 1 148.8948 160.1763)" font-family="'HKGrotesk-Bold'" font-size="34.5807px">Thank you!</text>
<text transform="matrix(1 0 0 1 174.0978 192.9288)" font-family="'HKGrotesk-Light'" font-size="16px">Enjoy them tities.</text>
<rect x="330.842" y="216.355" fill="#FFFFFF" width="16.81" height="11.875"/>
<rect x="330.842" y="148.855" fill="#FFFFFF" width="16.81" height="11.875"/>
<rect x="123.656" y="216.685" fill="#FFFFFF" width="16.81" height="11.875"/>
<rect x="123.656" y="149.185" fill="#FFFFFF" width="16.81" height="11.875"/>
</svg>
