<?xml version="1.0" encoding="utf-8"?>
<!-- Generator: Adobe Illustrator 23.0.3, SVG Export Plug-In . SVG Version: 6.00 Build 0)  -->
<svg version="1.1" id="Layer_1" xmlns="http://www.w3.org/2000/svg" xmlns:xlink="http://www.w3.org/1999/xlink" x="0px" y="0px"
	 viewBox="0 0 470 466.8" style="enable-background:new 0 0 470 466.8;" xml:space="preserve">
<style type="text/css">
	.st0{fill:#1A1A1A;}
	.st1{fill:#F41616;}
	.st2{fill:#FFFFFF;}
	.st3{display:none;}
</style>
<g>
	<g>
		<path class="st0" d="M7.6,57.8c1.8-3.7,2.9-7.7,2.9-11.9S9.4,37.7,7.6,34h4.9c1.8,3.7,2.9,7.7,2.9,11.9s-1.1,8.2-2.9,11.9
			C12.5,57.8,7.6,57.8,7.6,57.8z"/>
		<path class="st0" d="M26.7,46c0-4.2,1.1-8.2,2.9-11.9h4.9c-1.8,3.7-2.9,7.7-2.9,11.9s1.1,8.2,2.9,11.9h-4.9
			C27.8,54.1,26.7,50.2,26.7,46z"/>
		<path class="st0" d="M45.2,49.9h5.3v5.3h-5.3V49.9z"/>
		<path class="st0" d="M61.1,57.8C62.9,54.1,64,50.2,64,46s-1.1-8.2-2.9-11.9H66c1.8,3.7,2.9,7.7,2.9,11.9s-1.1,8.2-2.9,11.9h-4.9
			V57.8z"/>
		<path class="st0" d="M80.2,46c0-4.2,1.1-8.2,2.9-11.9H88c-1.8,3.7-2.9,7.7-2.9,11.9s1.1,8.2,2.9,11.9h-4.9
			C81.3,54.1,80.2,50.2,80.2,46z"/>
		<path class="st0" d="M98.7,49.9h5.3v5.3h-5.3V49.9z"/>
		<path class="st0" d="M114.6,57.8c1.8-3.7,2.9-7.7,2.9-11.9s-1.1-8.2-2.9-11.9h4.9c1.8,3.7,2.9,7.7,2.9,11.9s-1.1,8.2-2.9,11.9
			C119.5,57.8,114.6,57.8,114.6,57.8z"/>
		<path class="st0" d="M133.7,46c0-4.2,1.1-8.2,2.9-11.9h4.9c-1.8,3.7-2.9,7.7-2.9,11.9s1.1,8.2,2.9,11.9h-4.9
			C134.8,54.1,133.7,50.2,133.7,46z"/>
		<path class="st0" d="M152.1,49.9h5.3v5.3h-5.3V49.9z"/>
		<path class="st0" d="M168,57.8c1.8-3.7,2.9-7.7,2.9-11.9s-1.1-8.2-2.9-11.9h4.9c1.8,3.7,2.9,7.7,2.9,11.9s-1.1,8.2-2.9,11.9
			C172.9,57.8,168,57.8,168,57.8z"/>
		<path class="st0" d="M187.2,46c0-4.2,1.1-8.2,2.9-11.9h4.9c-1.8,3.7-2.9,7.7-2.9,11.9s1.1,8.2,2.9,11.9h-4.9
			C188.3,54.1,187.2,50.2,187.2,46z"/>
		<path class="st0" d="M205.6,49.9h5.3v5.3h-5.3V49.9z"/>
		<path class="st0" d="M221.5,57.8c1.8-3.7,2.9-7.7,2.9-11.9s-1.1-8.2-2.9-11.9h4.9c1.8,3.7,2.9,7.7,2.9,11.9s-1.1,8.2-2.9,11.9
			C226.4,57.8,221.5,57.8,221.5,57.8z"/>
		<path class="st0" d="M240.7,46c0-4.2,1.1-8.2,2.9-11.9h4.9c-1.8,3.7-2.9,7.7-2.9,11.9s1.1,8.2,2.9,11.9h-4.9
			C241.7,54.1,240.7,50.2,240.7,46z"/>
		<path class="st0" d="M259.1,49.9h5.3v5.3h-5.3V49.9z"/>
		<path class="st0" d="M275,57.8c1.8-3.7,2.9-7.7,2.9-11.9s-1.1-8.2-2.9-11.9h4.9c1.8,3.7,2.9,7.7,2.9,11.9s-1.1,8.2-2.9,11.9
			C279.9,57.8,275,57.8,275,57.8z"/>
		<path class="st0" d="M294.2,46c0-4.2,1.1-8.2,2.9-11.9h4.9c-1.8,3.7-2.9,7.7-2.9,11.9s1.1,8.2,2.9,11.9h-4.9
			C295.2,54.1,294.2,50.2,294.2,46z"/>
		<path class="st0" d="M312.6,49.9h5.3v5.3h-5.3V49.9z"/>
		<path class="st0" d="M328.5,57.8c1.8-3.7,2.9-7.7,2.9-11.9s-1.1-8.2-2.9-11.9h4.9c1.8,3.7,2.9,7.7,2.9,11.9s-1.1,8.2-2.9,11.9
			C333.4,57.8,328.5,57.8,328.5,57.8z"/>
		<path class="st0" d="M347.7,46c0-4.2,1.1-8.2,2.9-11.9h4.9c-1.8,3.7-2.9,7.7-2.9,11.9s1.1,8.2,2.9,11.9h-4.9
			C348.7,54.1,347.7,50.2,347.7,46z"/>
		<path class="st0" d="M366.1,49.9h5.3v5.3h-5.3V49.9z"/>
		<path class="st0" d="M382,57.8c1.8-3.7,2.9-7.7,2.9-11.9s-1.1-8.2-2.9-11.9h4.9c1.8,3.7,2.9,7.7,2.9,11.9s-1.1,8.2-2.9,11.9
			C386.9,57.8,382,57.8,382,57.8z"/>
		<path class="st0" d="M401.1,46c0-4.2,1.1-8.2,2.9-11.9h4.9c-1.8,3.7-2.9,7.7-2.9,11.9s1.1,8.2,2.9,11.9H404
			C402.2,54.1,401.1,50.2,401.1,46z"/>
		<path class="st0" d="M419.6,49.9h5.3v5.3h-5.3V49.9z"/>
		<path class="st0" d="M435.5,57.8c1.8-3.7,2.9-7.7,2.9-11.9s-1.1-8.2-2.9-11.9h4.9c1.8,3.7,2.9,7.7,2.9,11.9s-1.1,8.2-2.9,11.9
			C440.4,57.8,435.5,57.8,435.5,57.8z"/>
		<path class="st0" d="M454.6,46c0-4.2,1.1-8.2,2.9-11.9h4.9c-1.8,3.7-2.9,7.7-2.9,11.9s1.1,8.2,2.9,11.9h-4.9
			C455.7,54.1,454.6,50.2,454.6,46z"/>
	</g>
	<g>
		<g>
			<path class="st0" d="M0,11.9C0,7.7,1.1,3.7,2.9,0h4.9C5.9,3.7,4.9,7.7,4.9,11.9S6,20.1,7.8,23.8H2.9C1.1,20.1,0,16.1,0,11.9z"/>
			<path class="st0" d="M18.4,15.8h5.3v5.3h-5.3C18.4,21.1,18.4,15.8,18.4,15.8z"/>
			<path class="st0" d="M34.3,23.8c1.8-3.7,2.9-7.7,2.9-11.9s-1-8.2-2.9-11.9h4.9c1.8,3.7,2.9,7.7,2.9,11.9s-1.1,8.2-2.9,11.9H34.3z
				"/>
			<path class="st0" d="M53.5,11.9c0-4.2,1.1-8.2,2.9-11.9h4.9c-1.8,3.7-2.9,7.7-2.9,11.9s1.1,8.2,2.9,11.9h-4.9
				C54.5,20.1,53.5,16.1,53.5,11.9z"/>
			<path class="st0" d="M71.9,15.8h5.3v5.3h-5.3V15.8z"/>
			<path class="st0" d="M87.8,23.8c1.8-3.7,2.9-7.7,2.9-11.9s-1-8.2-2.9-11.9h4.9c1.8,3.7,2.9,7.7,2.9,11.9s-1.1,8.2-2.9,11.9H87.8z
				"/>
			<path class="st0" d="M107,11.9c0-4.2,1.1-8.2,2.9-11.9h4.9c-1.8,3.7-2.9,7.7-2.9,11.9s1.1,8.2,2.9,11.9h-4.9
				C108,20.1,107,16.1,107,11.9z"/>
			<path class="st0" d="M125.4,15.8h5.3v5.3h-5.3C125.4,21.1,125.4,15.8,125.4,15.8z"/>
			<path class="st0" d="M141.3,23.8c1.8-3.7,2.9-7.7,2.9-11.9s-1.1-8.2-2.9-11.9h4.9c1.8,3.7,2.9,7.7,2.9,11.9s-1.1,8.2-2.9,11.9
				H141.3z"/>
			<path class="st0" d="M160.5,11.9c0-4.2,1.1-8.2,2.9-11.9h4.9c-1.8,3.7-2.9,7.7-2.9,11.9s1.1,8.2,2.9,11.9h-4.9
				C161.5,20.1,160.5,16.1,160.5,11.9z"/>
			<path class="st0" d="M178.9,15.8h5.3v5.3h-5.3V15.8z"/>
			<path class="st0" d="M194.8,23.8c1.8-3.7,2.9-7.7,2.9-11.9s-1.1-8.2-2.9-11.9h4.9c1.8,3.7,2.9,7.7,2.9,11.9s-1.1,8.2-2.9,11.9
				H194.8z"/>
			<path class="st0" d="M213.9,11.9c0-4.2,1.1-8.2,2.9-11.9h4.9c-1.8,3.7-2.9,7.7-2.9,11.9s1.1,8.2,2.9,11.9h-4.9
				C215,20.1,213.9,16.1,213.9,11.9z"/>
			<path class="st0" d="M232.4,15.8h5.3v5.3h-5.3V15.8z"/>
			<path class="st0" d="M248.3,23.8c1.8-3.7,2.9-7.7,2.9-11.9s-1.1-8.2-2.9-11.9h4.9c1.8,3.7,2.9,7.7,2.9,11.9s-1.1,8.2-2.9,11.9
				H248.3z"/>
			<path class="st0" d="M267.4,11.9c0-4.2,1.1-8.2,2.9-11.9h4.9c-1.8,3.7-2.9,7.7-2.9,11.9s1.1,8.2,2.9,11.9h-4.9
				C268.5,20.1,267.4,16.1,267.4,11.9z"/>
			<path class="st0" d="M285.9,15.8h5.3v5.3h-5.3V15.8z"/>
			<path class="st0" d="M301.8,23.8c1.8-3.7,2.9-7.7,2.9-11.9s-1.1-8.2-2.9-11.9h4.9c1.8,3.7,2.9,7.7,2.9,11.9s-1.1,8.2-2.9,11.9
				H301.8z"/>
			<path class="st0" d="M320.9,11.9c0-4.2,1.1-8.2,2.9-11.9h4.9c-1.8,3.7-2.9,7.7-2.9,11.9s1.1,8.2,2.9,11.9h-4.9
				C322,20.1,320.9,16.1,320.9,11.9z"/>
			<path class="st0" d="M339.3,15.8h5.3v5.3h-5.3V15.8z"/>
			<path class="st0" d="M355.2,23.8c1.8-3.7,2.9-7.7,2.9-11.9S357,3.7,355.2,0h4.9c1.8,3.7,2.9,7.7,2.9,11.9s-1.1,8.2-2.9,11.9
				H355.2z"/>
			<path class="st0" d="M374.4,11.9c0-4.2,1.1-8.2,2.9-11.9h4.9c-1.8,3.7-2.9,7.7-2.9,11.9s1.1,8.2,2.9,11.9h-4.9
				C375.5,20.1,374.4,16.1,374.4,11.9z"/>
			<path class="st0" d="M392.8,15.8h5.3v5.3h-5.3V15.8z"/>
			<path class="st0" d="M408.7,23.8c1.8-3.7,2.9-7.7,2.9-11.9s-1.1-8.2-2.9-11.9h4.9c1.8,3.7,2.9,7.7,2.9,11.9s-1.1,8.2-2.9,11.9
				H408.7z"/>
			<path class="st0" d="M427.9,11.9c0-4.2,1.1-8.2,2.9-11.9h4.9c-1.8,3.7-2.9,7.7-2.9,11.9s1.1,8.2,2.9,11.9h-4.9
				C428.9,20.1,427.9,16.1,427.9,11.9z"/>
			<path class="st0" d="M446.3,15.8h5.3v5.3h-5.3V15.8z"/>
			<path class="st0" d="M462.2,23.8c1.8-3.7,2.9-7.7,2.9-11.9S464,3.7,462.2,0h4.9c1.8,3.7,2.9,7.7,2.9,11.9s-1.1,8.2-2.9,11.9
				H462.2z"/>
		</g>
	</g>
	<g>
		<g>
			<path class="st0" d="M0,80c0-4.2,1.1-8.2,2.9-11.9h4.9C5.9,71.9,4.9,75.8,4.9,80S6,88.2,7.8,91.9H2.9C1.1,88.2,0,84.3,0,80z"/>
			<path class="st0" d="M18.4,84h5.3v5.3h-5.3C18.4,89.3,18.4,84,18.4,84z"/>
			<path class="st0" d="M34.3,91.9c1.8-3.7,2.9-7.7,2.9-11.9s-1.1-8.2-2.9-11.9h4.9c1.8,3.7,2.9,7.7,2.9,11.9s-1.1,8.2-2.9,11.9
				H34.3z"/>
			<path class="st0" d="M53.5,80c0-4.2,1.1-8.2,2.9-11.9h4.9c-1.8,3.7-2.9,7.7-2.9,11.9s1.1,8.2,2.9,11.9h-4.9
				C54.5,88.2,53.5,84.3,53.5,80z"/>
			<path class="st0" d="M71.9,84h5.3v5.3h-5.3V84z"/>
			<path class="st0" d="M87.8,91.9c1.8-3.7,2.9-7.7,2.9-11.9s-1.1-8.2-2.9-11.9h4.9c1.8,3.7,2.9,7.7,2.9,11.9s-1.1,8.2-2.9,11.9
				H87.8z"/>
			<path class="st0" d="M107,80c0-4.2,1.1-8.2,2.9-11.9h4.9c-1.8,3.7-2.9,7.7-2.9,11.9s1.1,8.2,2.9,11.9h-4.9
				C108,88.2,107,84.3,107,80z"/>
			<path class="st0" d="M125.4,84h5.3v5.3h-5.3C125.4,89.3,125.4,84,125.4,84z"/>
			<path class="st0" d="M141.3,91.9c1.8-3.7,2.9-7.7,2.9-11.9s-1.1-8.2-2.9-11.9h4.9c1.8,3.7,2.9,7.7,2.9,11.9s-1.1,8.2-2.9,11.9
				H141.3z"/>
			<path class="st0" d="M160.5,80c0-4.2,1.1-8.2,2.9-11.9h4.9c-1.8,3.7-2.9,7.7-2.9,11.9s1.1,8.2,2.9,11.9h-4.9
				C161.5,88.2,160.5,84.3,160.5,80z"/>
			<path class="st0" d="M178.9,84h5.3v5.3h-5.3V84z"/>
			<path class="st0" d="M194.8,91.9c1.8-3.7,2.9-7.7,2.9-11.9s-1.1-8.2-2.9-11.9h4.9c1.8,3.7,2.9,7.7,2.9,11.9s-1.1,8.2-2.9,11.9
				H194.8z"/>
			<path class="st0" d="M213.9,80c0-4.2,1.1-8.2,2.9-11.9h4.9c-1.8,3.7-2.9,7.7-2.9,11.9s1.1,8.2,2.9,11.9h-4.9
				C215,88.2,213.9,84.3,213.9,80z"/>
			<path class="st0" d="M232.4,84h5.3v5.3h-5.3V84z"/>
			<path class="st0" d="M248.3,91.9c1.8-3.7,2.9-7.7,2.9-11.9s-1.1-8.2-2.9-11.9h4.9c1.8,3.7,2.9,7.7,2.9,11.9s-1.1,8.2-2.9,11.9
				H248.3z"/>
			<path class="st0" d="M267.4,80c0-4.2,1.1-8.2,2.9-11.9h4.9c-1.8,3.7-2.9,7.7-2.9,11.9s1.1,8.2,2.9,11.9h-4.9
				C268.5,88.2,267.4,84.3,267.4,80z"/>
			<path class="st0" d="M285.9,84h5.3v5.3h-5.3V84L285.9,84z"/>
			<path class="st0" d="M301.8,91.9c1.8-3.7,2.9-7.7,2.9-11.9s-1.1-8.2-2.9-11.9h4.9c1.8,3.7,2.9,7.7,2.9,11.9s-1.1,8.2-2.9,11.9
				H301.8z"/>
			<path class="st0" d="M320.9,80c0-4.2,1.1-8.2,2.9-11.9h4.9c-1.8,3.7-2.9,7.7-2.9,11.9s1.1,8.2,2.9,11.9h-4.9
				C322,88.2,320.9,84.3,320.9,80z"/>
			<path class="st0" d="M339.3,84h5.3v5.3h-5.3V84z"/>
			<path class="st0" d="M355.2,91.9c1.8-3.7,2.9-7.7,2.9-11.9s-1.1-8.2-2.9-11.9h4.9c1.8,3.7,2.9,7.7,2.9,11.9s-1.1,8.2-2.9,11.9
				H355.2z"/>
			<path class="st0" d="M374.4,80c0-4.2,1.1-8.2,2.9-11.9h4.9c-1.8,3.7-2.9,7.7-2.9,11.9s1.1,8.2,2.9,11.9h-4.9
				C375.5,88.2,374.4,84.3,374.4,80z"/>
			<path class="st0" d="M392.8,84h5.3v5.3h-5.3V84z"/>
			<path class="st0" d="M408.7,91.9c1.8-3.7,2.9-7.7,2.9-11.9s-1.1-8.2-2.9-11.9h4.9c1.8,3.7,2.9,7.7,2.9,11.9s-1.1,8.2-2.9,11.9
				H408.7z"/>
			<path class="st0" d="M427.9,80c0-4.2,1.1-8.2,2.9-11.9h4.9c-1.8,3.7-2.9,7.7-2.9,11.9s1.1,8.2,2.9,11.9h-4.9
				C428.9,88.2,427.9,84.3,427.9,80z"/>
			<path class="st0" d="M446.3,84h5.3v5.3h-5.3V84L446.3,84z"/>
			<path class="st0" d="M462.2,91.9c1.8-3.7,2.9-7.7,2.9-11.9s-1.1-8.2-2.9-11.9h4.9c1.8,3.7,2.9,7.7,2.9,11.9s-1.1,8.2-2.9,11.9
				H462.2z"/>
		</g>
	</g>
	<g>
		<path class="st0" d="M7.6,194.1c1.8-3.7,2.9-7.7,2.9-11.9s-1.1-8.2-2.9-11.9h4.9c1.8,3.7,2.9,7.7,2.9,11.9s-1.1,8.2-2.9,11.9H7.6z
			"/>
		<path class="st0" d="M26.7,182.3c0-4.2,1.1-8.2,2.9-11.9h4.9c-1.8,3.7-2.9,7.7-2.9,11.9s1.1,8.2,2.9,11.9h-4.9
			C27.8,190.5,26.7,186.5,26.7,182.3z"/>
		<path class="st0" d="M45.2,186.2h5.3v5.3h-5.3V186.2z"/>
		<path class="st0" d="M61.1,194.1c1.8-3.7,2.9-7.7,2.9-11.9s-1.1-8.2-2.9-11.9H66c1.8,3.7,2.9,7.7,2.9,11.9s-1.1,8.2-2.9,11.9H61.1
			z"/>
		<path class="st0" d="M80.2,182.3c0-4.2,1.1-8.2,2.9-11.9H88c-1.8,3.7-2.9,7.7-2.9,11.9s1.1,8.2,2.9,11.9h-4.9
			C81.3,190.5,80.2,186.5,80.2,182.3z"/>
		<path class="st0" d="M98.7,186.2h5.3v5.3h-5.3V186.2z"/>
		<path class="st0" d="M114.6,194.1c1.8-3.7,2.9-7.7,2.9-11.9s-1.1-8.2-2.9-11.9h4.9c1.8,3.7,2.9,7.7,2.9,11.9s-1.1,8.2-2.9,11.9
			H114.6z"/>
		<path class="st0" d="M347.7,182.3c0-4.2,1.1-8.2,2.9-11.9h4.9c-1.8,3.7-2.9,7.7-2.9,11.9s1.1,8.2,2.9,11.9h-4.9
			C348.7,190.5,347.7,186.5,347.7,182.3z"/>
		<path class="st0" d="M366.1,186.2h5.3v5.3h-5.3V186.2z"/>
		<path class="st0" d="M382,194.1c1.8-3.7,2.9-7.7,2.9-11.9s-1.1-8.2-2.9-11.9h4.9c1.8,3.7,2.9,7.7,2.9,11.9s-1.1,8.2-2.9,11.9H382z
			"/>
		<path class="st0" d="M401.1,182.3c0-4.2,1.1-8.2,2.9-11.9h4.9c-1.8,3.7-2.9,7.7-2.9,11.9s1.1,8.2,2.9,11.9H404
			C402.2,190.5,401.1,186.5,401.1,182.3z"/>
		<path class="st0" d="M419.6,186.2h5.3v5.3h-5.3V186.2z"/>
		<path class="st0" d="M435.5,194.1c1.8-3.7,2.9-7.7,2.9-11.9s-1.1-8.2-2.9-11.9h4.9c1.8,3.7,2.9,7.7,2.9,11.9s-1.1,8.2-2.9,11.9
			H435.5z"/>
		<path class="st0" d="M454.6,182.3c0-4.2,1.1-8.2,2.9-11.9h4.9c-1.8,3.7-2.9,7.7-2.9,11.9s1.1,8.2,2.9,11.9h-4.9
			C455.7,190.5,454.6,186.5,454.6,182.3z"/>
	</g>
	<g>
		<g>
			<path class="st0" d="M0,148.2c0-4.2,1.1-8.2,2.9-11.9h4.9C6,140,4.9,144,4.9,148.2s1.1,8.2,2.9,11.9H2.9
				C1.1,156.4,0,152.4,0,148.2z"/>
			<path class="st0" d="M18.4,152.2h5.3v5.3h-5.3C18.4,157.5,18.4,152.2,18.4,152.2z"/>
			<path class="st0" d="M34.3,160.1c1.8-3.7,2.9-7.7,2.9-11.9s-1.1-8.2-2.9-11.9h4.9c1.8,3.7,2.9,7.7,2.9,11.9s-1.1,8.2-2.9,11.9
				H34.3z"/>
			<path class="st0" d="M53.5,148.2c0-4.2,1.1-8.2,2.9-11.9h4.9c-1.8,3.7-2.9,7.7-2.9,11.9s1.1,8.2,2.9,11.9h-4.9
				C54.5,156.4,53.5,152.4,53.5,148.2z"/>
			<path class="st0" d="M71.9,152.2h5.3v5.3h-5.3V152.2z"/>
			<path class="st0" d="M87.8,160.1c1.8-3.7,2.9-7.7,2.9-11.9s-1.1-8.2-2.9-11.9h4.9c1.8,3.7,2.9,7.7,2.9,11.9s-1.1,8.2-2.9,11.9
				H87.8z"/>
			<path class="st0" d="M107,148.2c0-4.2,1.1-8.2,2.9-11.9h4.9c-1.8,3.7-2.9,7.7-2.9,11.9s1.1,8.2,2.9,11.9h-4.9
				C108,156.4,107,152.4,107,148.2z"/>
			<path class="st0" d="M355.2,160.1c1.8-3.7,2.9-7.7,2.9-11.9s-1.1-8.2-2.9-11.9h4.9c1.8,3.7,2.9,7.7,2.9,11.9s-1.1,8.2-2.9,11.9
				H355.2z"/>
			<path class="st0" d="M374.4,148.2c0-4.2,1.1-8.2,2.9-11.9h4.9c-1.8,3.7-2.9,7.7-2.9,11.9s1.1,8.2,2.9,11.9h-4.9
				C375.5,156.4,374.4,152.4,374.4,148.2z"/>
			<path class="st0" d="M392.8,152.2h5.3v5.3h-5.3V152.2z"/>
			<path class="st0" d="M408.7,160.1c1.8-3.7,2.9-7.7,2.9-11.9s-1.1-8.2-2.9-11.9h4.9c1.8,3.7,2.9,7.7,2.9,11.9s-1.1,8.2-2.9,11.9
				H408.7z"/>
			<path class="st0" d="M427.9,148.2c0-4.2,1.1-8.2,2.9-11.9h4.9c-1.8,3.7-2.9,7.7-2.9,11.9s1.1,8.2,2.9,11.9h-4.9
				C428.9,156.4,427.9,152.4,427.9,148.2z"/>
			<path class="st0" d="M446.3,152.2h5.3v5.3h-5.3V152.2L446.3,152.2z"/>
			<path class="st0" d="M462.2,160.1c1.8-3.7,2.9-7.7,2.9-11.9s-1.1-8.2-2.9-11.9h4.9c1.8,3.7,2.9,7.7,2.9,11.9s-1.1,8.2-2.9,11.9
				H462.2z"/>
		</g>
	</g>
	<g>
		<path class="st0" d="M11.3,262.3c1.8-3.7,2.9-7.7,2.9-11.9s-1.1-8.2-2.9-11.9h4.4c1.8,3.7,2.9,7.7,2.9,11.9s-1.1,8.2-2.9,11.9
			H11.3z"/>
		<path class="st0" d="M30.2,250.4c0-4.2,1.1-8.2,2.9-11.9h4.4c-1.8,3.7-2.9,7.7-2.9,11.9s1.1,8.2,2.9,11.9h-4.4
			C31.2,258.6,30.2,254.7,30.2,250.4z"/>
		<path class="st0" d="M48.4,254.9h4.7v4.7h-4.7V254.9z"/>
		<path class="st0" d="M63.9,262.3c1.8-3.7,2.9-7.7,2.9-11.9s-1.1-8.2-2.9-11.9h4.4c1.8,3.7,2.9,7.7,2.9,11.9s-1.1,8.2-2.9,11.9
			H63.9z"/>
		<path class="st0" d="M82.8,250.4c0-4.2,1.1-8.2,2.9-11.9h4.4c-1.8,3.7-2.9,7.7-2.9,11.9s1.1,8.2,2.9,11.9h-4.4
			C83.9,258.6,82.8,254.7,82.8,250.4z"/>
		<path class="st0" d="M101,254.9h4.7v4.7H101V254.9z"/>
		<path class="st0" d="M116.6,262.3c1.8-3.7,2.9-7.7,2.9-11.9s-1.1-8.2-2.9-11.9h4.4c1.8,3.7,2.9,7.7,2.9,11.9s-1.1,8.2-2.9,11.9
			H116.6z"/>
		<path class="st0" d="M346.1,250.4c0-4.2,1.1-8.2,2.9-11.9h4.4c-1.8,3.7-2.9,7.7-2.9,11.9s1.1,8.2,2.9,11.9H349
			C347.2,258.6,346.1,254.7,346.1,250.4z"/>
		<path class="st0" d="M364.3,254.9h4.7v4.7h-4.7V254.9z"/>
		<path class="st0" d="M379.8,262.3c1.8-3.7,2.9-7.7,2.9-11.9s-1.1-8.2-2.9-11.9h4.4c1.8,3.7,2.9,7.7,2.9,11.9s-1.1,8.2-2.9,11.9
			H379.8z"/>
		<path class="st0" d="M398.8,250.4c0-4.2,1.1-8.2,2.9-11.9h4.4c-1.8,3.7-2.9,7.7-2.9,11.9s1.1,8.2,2.9,11.9h-4.4
			C399.8,258.6,398.8,254.7,398.8,250.4z"/>
		<path class="st0" d="M416.9,254.9h4.7v4.7h-4.7V254.9z"/>
		<path class="st0" d="M432.5,262.3c1.8-3.7,2.9-7.7,2.9-11.9s-1.1-8.2-2.9-11.9h4.4c1.8,3.7,2.9,7.7,2.9,11.9s-1.1,8.2-2.9,11.9
			H432.5z"/>
		<path class="st0" d="M451.4,250.4c0-4.2,1.1-8.2,2.9-11.9h4.4c-1.8,3.7-2.9,7.7-2.9,11.9s1.1,8.2,2.9,11.9h-4.4
			C452.5,258.6,451.4,254.7,451.4,250.4z"/>
	</g>
	<g>
		<g>
			<path class="st0" d="M0,216.4c0-4.2,1.1-8.2,2.9-11.9h4.9c-1.8,3.7-2.9,7.7-2.9,11.9s1.1,8.2,2.9,11.9H2.9
				C1.1,224.5,0,220.6,0,216.4z"/>
			<path class="st0" d="M18.4,220.3h5.3v5.3h-5.3C18.4,225.6,18.4,220.3,18.4,220.3z"/>
			<path class="st0" d="M34.3,228.2c1.8-3.7,2.9-7.7,2.9-11.9s-1.1-8.2-2.9-11.9h4.9c1.8,3.7,2.9,7.7,2.9,11.9s-1.1,8.2-2.9,11.9
				H34.3z"/>
			<path class="st0" d="M53.5,216.4c0-4.2,1.1-8.2,2.9-11.9h4.9c-1.8,3.7-2.9,7.7-2.9,11.9s1.1,8.2,2.9,11.9h-4.9
				C54.5,224.5,53.5,220.6,53.5,216.4z"/>
			<path class="st0" d="M71.9,220.3h5.3v5.3h-5.3V220.3z"/>
			<path class="st0" d="M87.8,228.2c1.8-3.7,2.9-7.7,2.9-11.9s-1.1-8.2-2.9-11.9h4.9c1.8,3.7,2.9,7.7,2.9,11.9s-1.1,8.2-2.9,11.9
				H87.8z"/>
			<path class="st0" d="M107,216.4c0-4.2,1.1-8.2,2.9-11.9h4.9c-1.8,3.7-2.9,7.7-2.9,11.9s1.1,8.2,2.9,11.9h-4.9
				C108,224.5,107,220.6,107,216.4z"/>
			<path class="st0" d="M355.2,228.2c1.8-3.7,2.9-7.7,2.9-11.9s-1.1-8.2-2.9-11.9h4.9c1.8,3.7,2.9,7.7,2.9,11.9s-1.1,8.2-2.9,11.9
				H355.2z"/>
			<path class="st0" d="M374.4,216.4c0-4.2,1.1-8.2,2.9-11.9h4.9c-1.8,3.7-2.9,7.7-2.9,11.9s1.1,8.2,2.9,11.9h-4.9
				C375.5,224.5,374.4,220.6,374.4,216.4z"/>
			<path class="st0" d="M392.8,220.3h5.3v5.3h-5.3V220.3z"/>
			<path class="st0" d="M408.7,228.2c1.8-3.7,2.9-7.7,2.9-11.9s-1.1-8.2-2.9-11.9h4.9c1.8,3.7,2.9,7.7,2.9,11.9s-1.1,8.2-2.9,11.9
				H408.7z"/>
			<path class="st0" d="M427.9,216.4c0-4.2,1.1-8.2,2.9-11.9h4.9c-1.8,3.7-2.9,7.7-2.9,11.9s1.1,8.2,2.9,11.9h-4.9
				C428.9,224.5,427.9,220.6,427.9,216.4z"/>
			<path class="st0" d="M446.3,220.3h5.3v5.3h-5.3V220.3L446.3,220.3z"/>
			<path class="st0" d="M462.2,228.2c1.8-3.7,2.9-7.7,2.9-11.9s-1.1-8.2-2.9-11.9h4.9c1.8,3.7,2.9,7.7,2.9,11.9s-1.1,8.2-2.9,11.9
				H462.2z"/>
		</g>
	</g>
	<g>
		<g>
			<path class="st0" d="M3.9,284.5c0-4.2,1.1-8.2,2.9-11.9h4.4c-1.8,3.7-2.9,7.7-2.9,11.9s1.1,8.2,2.9,11.9H6.8
				C4.9,292.7,3.9,288.7,3.9,284.5z"/>
			<path class="st0" d="M22,289h4.7v4.7H22V289z"/>
			<path class="st0" d="M37.6,296.4c1.8-3.7,2.9-7.7,2.9-11.9s-1.1-8.2-2.9-11.9H42c1.8,3.7,2.9,7.7,2.9,11.9s-1.1,8.2-2.9,11.9
				H37.6z"/>
			<path class="st0" d="M56.5,284.5c0-4.2,1.1-8.2,2.9-11.9h4.4c-1.8,3.7-2.9,7.7-2.9,11.9s1.1,8.2,2.9,11.9h-4.4
				C57.6,292.7,56.5,288.7,56.5,284.5z"/>
			<path class="st0" d="M74.7,289h4.7v4.7h-4.7V289z"/>
			<path class="st0" d="M90.2,296.4c1.8-3.7,2.9-7.7,2.9-11.9s-1.1-8.2-2.9-11.9h4.4c1.8,3.7,2.9,7.7,2.9,11.9s-1.1,8.2-2.9,11.9
				H90.2z"/>
			<path class="st0" d="M109.2,284.5c0-4.2,1.1-8.2,2.9-11.9h4.4c-1.8,3.7-2.9,7.7-2.9,11.9s1.1,8.2,2.9,11.9h-4.4
				C110.2,292.7,109.2,288.7,109.2,284.5z"/>
			<path class="st0" d="M127.3,289h4.7v4.7h-4.7C127.3,293.8,127.3,289,127.3,289z"/>
			<path class="st0" d="M142.9,296.4c1.8-3.7,2.9-7.7,2.9-11.9s-1.1-8.2-2.9-11.9h4.4c1.8,3.7,2.9,7.7,2.9,11.9s-1.1,8.2-2.9,11.9
				H142.9z"/>
			<path class="st0" d="M161.8,284.5c0-4.2,1.1-8.2,2.9-11.9h4.4c-1.8,3.7-2.9,7.7-2.9,11.9s1.1,8.2,2.9,11.9h-4.4
				C162.9,292.7,161.8,288.7,161.8,284.5z"/>
			<path class="st0" d="M180,289h4.7v4.7H180V289z"/>
			<path class="st0" d="M195.6,296.4c1.8-3.7,2.9-7.7,2.9-11.9s-1.1-8.2-2.9-11.9h4.4c1.8,3.7,2.9,7.7,2.9,11.9s-1.1,8.2-2.9,11.9
				H195.6z"/>
			<path class="st0" d="M214.5,284.5c0-4.2,1.1-8.2,2.9-11.9h4.4c-1.8,3.7-2.9,7.7-2.9,11.9s1.1,8.2,2.9,11.9h-4.4
				C215.5,292.7,214.5,288.7,214.5,284.5z"/>
			<path class="st0" d="M232.6,289h4.7v4.7h-4.7V289z"/>
			<path class="st0" d="M248.2,296.4c1.8-3.7,2.9-7.7,2.9-11.9s-1.1-8.2-2.9-11.9h4.4c1.8,3.7,2.9,7.7,2.9,11.9s-1.1,8.2-2.9,11.9
				H248.2z"/>
			<path class="st0" d="M267.1,284.5c0-4.2,1.1-8.2,2.9-11.9h4.4c-1.8,3.7-2.9,7.7-2.9,11.9s1.1,8.2,2.9,11.9H270
				C268.2,292.7,267.1,288.7,267.1,284.5z"/>
			<path class="st0" d="M285.3,289h4.7v4.7h-4.7V289z"/>
			<path class="st0" d="M300.9,296.4c1.8-3.7,2.9-7.7,2.9-11.9s-1.1-8.2-2.9-11.9h4.4c1.8,3.7,2.9,7.7,2.9,11.9s-1.1,8.2-2.9,11.9
				H300.9z"/>
			<path class="st0" d="M319.8,284.5c0-4.2,1.1-8.2,2.9-11.9h4.4c-1.8,3.7-2.9,7.7-2.9,11.9s1.1,8.2,2.9,11.9h-4.4
				C320.8,292.7,319.8,288.7,319.8,284.5z"/>
			<path class="st0" d="M337.9,289h4.7v4.7h-4.7V289z"/>
			<path class="st0" d="M353.5,296.4c1.8-3.7,2.9-7.7,2.9-11.9s-1.1-8.2-2.9-11.9h4.4c1.8,3.7,2.9,7.7,2.9,11.9s-1.1,8.2-2.9,11.9
				H353.5z"/>
			<path class="st0" d="M372.4,284.5c0-4.2,1.1-8.2,2.9-11.9h4.4c-1.8,3.7-2.9,7.7-2.9,11.9s1.1,8.2,2.9,11.9h-4.4
				C373.5,292.7,372.4,288.7,372.4,284.5z"/>
			<path class="st0" d="M390.6,289h4.7v4.7h-4.7V289z"/>
			<path class="st0" d="M406.2,296.4c1.8-3.7,2.9-7.7,2.9-11.9s-1.1-8.2-2.9-11.9h4.4c1.8,3.7,2.9,7.7,2.9,11.9s-1.1,8.2-2.9,11.9
				H406.2z"/>
			<path class="st0" d="M425.1,284.5c0-4.2,1.1-8.2,2.9-11.9h4.4c-1.8,3.7-2.9,7.7-2.9,11.9s1.1,8.2,2.9,11.9H428
				C426.1,292.7,425.1,288.7,425.1,284.5z"/>
			<path class="st0" d="M443.3,289h4.7v4.7h-4.7V289z"/>
			<path class="st0" d="M458.8,296.4c1.8-3.7,2.9-7.7,2.9-11.9s-1.1-8.2-2.9-11.9h4.4c1.8,3.7,2.9,7.7,2.9,11.9s-1.1,8.2-2.9,11.9
				H458.8z"/>
		</g>
	</g>
	<g>
		<path class="st0" d="M0,352.7c0-4.2,1.1-8.2,2.9-11.9h4.9c-1.8,3.7-2.9,7.7-2.9,11.9s1.1,8.2,2.9,11.9H2.9
			C1.1,360.9,0,356.9,0,352.7z"/>
		<path class="st0" d="M18.4,356.6h5.3v5.3h-5.3C18.4,361.9,18.4,356.6,18.4,356.6z"/>
		<path class="st0" d="M34.3,364.5c1.8-3.7,2.9-7.7,2.9-11.9s-1.1-8.2-2.9-11.9h4.9c1.8,3.7,2.9,7.7,2.9,11.9s-1.1,8.2-2.9,11.9
			H34.3z"/>
		<path class="st0" d="M53.5,352.7c0-4.2,1.1-8.2,2.9-11.9h4.9c-1.8,3.7-2.9,7.7-2.9,11.9s1.1,8.2,2.9,11.9h-4.9
			C54.5,360.9,53.5,356.9,53.5,352.7z"/>
		<path class="st0" d="M71.9,356.6h5.3v5.3h-5.3V356.6z"/>
		<path class="st0" d="M87.8,364.5c1.8-3.7,2.9-7.7,2.9-11.9s-1.1-8.2-2.9-11.9h4.9c1.8,3.7,2.9,7.7,2.9,11.9s-1.1,8.2-2.9,11.9
			H87.8z"/>
		<path class="st0" d="M107,352.7c0-4.2,1.1-8.2,2.9-11.9h4.9c-1.8,3.7-2.9,7.7-2.9,11.9s1.1,8.2,2.9,11.9h-4.9
			C108,360.9,107,356.9,107,352.7z"/>
		<path class="st0" d="M125.4,356.6h5.3v5.3h-5.3C125.4,361.9,125.4,356.6,125.4,356.6z"/>
		<path class="st0" d="M141.3,364.5c1.8-3.7,2.9-7.7,2.9-11.9s-1.1-8.2-2.9-11.9h4.9c1.8,3.7,2.9,7.7,2.9,11.9s-1.1,8.2-2.9,11.9
			H141.3z"/>
		<path class="st0" d="M160.5,352.7c0-4.2,1.1-8.2,2.9-11.9h4.9c-1.8,3.7-2.9,7.7-2.9,11.9s1.1,8.2,2.9,11.9h-4.9
			C161.5,360.9,160.5,356.9,160.5,352.7z"/>
		<path class="st0" d="M178.9,356.6h5.3v5.3h-5.3V356.6z"/>
		<path class="st0" d="M194.8,364.5c1.8-3.7,2.9-7.7,2.9-11.9s-1.1-8.2-2.9-11.9h4.9c1.8,3.7,2.9,7.7,2.9,11.9s-1.1,8.2-2.9,11.9
			H194.8z"/>
		<path class="st0" d="M213.9,352.7c0-4.2,1.1-8.2,2.9-11.9h4.9c-1.8,3.7-2.9,7.7-2.9,11.9s1.1,8.2,2.9,11.9h-4.9
			C215,360.9,213.9,356.9,213.9,352.7z"/>
		<path class="st0" d="M232.4,356.6h5.3v5.3h-5.3V356.6z"/>
		<path class="st0" d="M248.3,364.5c1.8-3.7,2.9-7.7,2.9-11.9s-1.1-8.2-2.9-11.9h4.9c1.8,3.7,2.9,7.7,2.9,11.9s-1.1,8.2-2.9,11.9
			H248.3z"/>
		<path class="st0" d="M267.4,352.7c0-4.2,1.1-8.2,2.9-11.9h4.9c-1.8,3.7-2.9,7.7-2.9,11.9s1.1,8.2,2.9,11.9h-4.9
			C268.5,360.9,267.4,356.9,267.4,352.7z"/>
		<path class="st0" d="M285.9,356.6h5.3v5.3h-5.3V356.6z"/>
		<path class="st0" d="M301.8,364.5c1.8-3.7,2.9-7.7,2.9-11.9s-1.1-8.2-2.9-11.9h4.9c1.8,3.7,2.9,7.7,2.9,11.9s-1.1,8.2-2.9,11.9
			H301.8z"/>
		<path class="st0" d="M320.9,352.7c0-4.2,1.1-8.2,2.9-11.9h4.9c-1.8,3.7-2.9,7.7-2.9,11.9s1.1,8.2,2.9,11.9h-4.9
			C322,360.9,320.9,356.9,320.9,352.7z"/>
		<path class="st0" d="M339.3,356.6h5.3v5.3h-5.3V356.6z"/>
		<path class="st0" d="M355.2,364.5c1.8-3.7,2.9-7.7,2.9-11.9s-1.1-8.2-2.9-11.9h4.9c1.8,3.7,2.9,7.7,2.9,11.9s-1.1,8.2-2.9,11.9
			H355.2z"/>
		<path class="st0" d="M374.4,352.7c0-4.2,1.1-8.2,2.9-11.9h4.9c-1.8,3.7-2.9,7.7-2.9,11.9s1.1,8.2,2.9,11.9h-4.9
			C375.4,360.9,374.4,356.9,374.4,352.7z"/>
		<path class="st0" d="M392.8,356.6h5.3v5.3h-5.3V356.6z"/>
		<path class="st0" d="M408.7,364.5c1.8-3.7,2.9-7.7,2.9-11.9s-1.1-8.2-2.9-11.9h4.9c1.8,3.7,2.9,7.7,2.9,11.9s-1.1,8.2-2.9,11.9
			H408.7z"/>
		<path class="st0" d="M427.9,352.7c0-4.2,1.1-8.2,2.9-11.9h4.9c-1.8,3.7-2.9,7.7-2.9,11.9s1.1,8.2,2.9,11.9h-4.9
			C428.9,360.9,427.9,356.9,427.9,352.7z"/>
		<path class="st0" d="M446.3,356.6h5.3v5.3h-5.3V356.6z"/>
		<path class="st0" d="M462.2,364.5c1.8-3.7,2.9-7.7,2.9-11.9s-1.1-8.2-2.9-11.9h4.9c1.8,3.7,2.9,7.7,2.9,11.9s-1.1,8.2-2.9,11.9
			H462.2z"/>
	</g>
	<g>
		<g>
			<path class="st0" d="M7.6,330.5c1.8-3.7,2.9-7.7,2.9-11.9s-1.1-8.2-2.9-11.9h4.9c1.8,3.7,2.9,7.7,2.9,11.9s-1.1,8.2-2.9,11.9H7.6
				z"/>
			<path class="st0" d="M26.7,318.6c0-4.2,1.1-8.2,2.9-11.9h4.9c-1.8,3.7-2.9,7.7-2.9,11.9s1.1,8.2,2.9,11.9h-4.9
				C27.8,326.8,26.7,322.8,26.7,318.6z"/>
			<path class="st0" d="M45.2,322.6h5.3v5.3h-5.3V322.6z"/>
			<path class="st0" d="M61.1,330.5c1.8-3.7,2.9-7.7,2.9-11.9s-1.1-8.2-2.9-11.9H66c1.8,3.7,2.9,7.7,2.9,11.9s-1.1,8.2-2.9,11.9
				H61.1z"/>
			<path class="st0" d="M80.2,318.6c0-4.2,1.1-8.2,2.9-11.9H88c-1.8,3.7-2.9,7.7-2.9,11.9s1.1,8.2,2.9,11.9h-4.9
				C81.3,326.8,80.2,322.8,80.2,318.6z"/>
			<path class="st0" d="M98.7,322.6h5.3v5.3h-5.3V322.6z"/>
			<path class="st0" d="M114.6,330.5c1.8-3.7,2.9-7.7,2.9-11.9s-1.1-8.2-2.9-11.9h4.9c1.8,3.7,2.9,7.7,2.9,11.9s-1.1,8.2-2.9,11.9
				H114.6z"/>
			<path class="st0" d="M133.7,318.6c0-4.2,1.1-8.2,2.9-11.9h4.9c-1.8,3.7-2.9,7.7-2.9,11.9s1.1,8.2,2.9,11.9h-4.9
				C134.8,326.8,133.7,322.8,133.7,318.6z"/>
			<path class="st0" d="M152.1,322.6h5.3v5.3h-5.3V322.6z"/>
			<path class="st0" d="M168,330.5c1.8-3.7,2.9-7.7,2.9-11.9s-1.1-8.2-2.9-11.9h4.9c1.8,3.7,2.9,7.7,2.9,11.9s-1.1,8.2-2.9,11.9H168
				z"/>
			<path class="st0" d="M187.2,318.6c0-4.2,1.1-8.2,2.9-11.9h4.9c-1.8,3.7-2.9,7.7-2.9,11.9s1.1,8.2,2.9,11.9h-4.9
				C188.3,326.8,187.2,322.8,187.2,318.6z"/>
			<path class="st0" d="M205.6,322.6h5.3v5.3h-5.3V322.6z"/>
			<path class="st0" d="M221.5,330.5c1.8-3.7,2.9-7.7,2.9-11.9s-1.1-8.2-2.9-11.9h4.9c1.8,3.7,2.9,7.7,2.9,11.9s-1.1,8.2-2.9,11.9
				H221.5z"/>
			<path class="st0" d="M240.7,318.6c0-4.2,1.1-8.2,2.9-11.9h4.9c-1.8,3.7-2.9,7.7-2.9,11.9s1.1,8.2,2.9,11.9h-4.9
				C241.7,326.8,240.7,322.8,240.7,318.6z"/>
			<path class="st0" d="M259.1,322.6h5.3v5.3h-5.3V322.6z"/>
			<path class="st0" d="M275,330.5c1.8-3.7,2.9-7.7,2.9-11.9s-1.1-8.2-2.9-11.9h4.9c1.8,3.7,2.9,7.7,2.9,11.9s-1.1,8.2-2.9,11.9H275
				z"/>
			<path class="st0" d="M294.2,318.6c0-4.2,1.1-8.2,2.9-11.9h4.9c-1.8,3.7-2.9,7.7-2.9,11.9s1.1,8.2,2.9,11.9h-4.9
				C295.2,326.8,294.2,322.8,294.2,318.6z"/>
			<path class="st0" d="M312.6,322.6h5.3v5.3h-5.3V322.6z"/>
			<path class="st0" d="M328.5,330.5c1.8-3.7,2.9-7.7,2.9-11.9s-1.1-8.2-2.9-11.9h4.9c1.8,3.7,2.9,7.7,2.9,11.9s-1.1,8.2-2.9,11.9
				H328.5z"/>
			<path class="st0" d="M347.6,318.6c0-4.2,1.1-8.2,2.9-11.9h4.9c-1.8,3.7-2.9,7.7-2.9,11.9s1.1,8.2,2.9,11.9h-4.9
				C348.7,326.8,347.6,322.8,347.6,318.6z"/>
			<path class="st0" d="M366.1,322.6h5.3v5.3h-5.3V322.6z"/>
			<path class="st0" d="M382,330.5c1.8-3.7,2.9-7.7,2.9-11.9s-1.1-8.2-2.9-11.9h4.9c1.8,3.7,2.9,7.7,2.9,11.9s-1.1,8.2-2.9,11.9H382
				z"/>
			<path class="st0" d="M401.1,318.6c0-4.2,1.1-8.2,2.9-11.9h4.9c-1.8,3.7-2.9,7.7-2.9,11.9s1.1,8.2,2.9,11.9H404
				C402.2,326.8,401.1,322.8,401.1,318.6z"/>
			<path class="st0" d="M419.6,322.6h5.3v5.3h-5.3V322.6z"/>
			<path class="st0" d="M435.5,330.5c1.8-3.7,2.9-7.7,2.9-11.9s-1.1-8.2-2.9-11.9h4.9c1.8,3.7,2.9,7.7,2.9,11.9s-1.1,8.2-2.9,11.9
				H435.5z"/>
			<path class="st0" d="M454.6,318.6c0-4.2,1.1-8.2,2.9-11.9h4.9c-1.8,3.7-2.9,7.7-2.9,11.9s1.1,8.2,2.9,11.9h-4.9
				C455.7,326.8,454.6,322.8,454.6,318.6z"/>
		</g>
	</g>
	<g>
		<path class="st0" d="M7.6,126c1.8-3.7,2.9-7.7,2.9-11.9s-1.1-8.2-2.9-11.9h4.9c1.8,3.7,2.9,7.7,2.9,11.9c0,4.2-1.1,8.2-2.9,11.9
			H7.6z"/>
		<path class="st0" d="M26.7,114.1c0-4.2,1.1-8.2,2.9-11.9h4.9c-1.8,3.7-2.9,7.7-2.9,11.9c0,4.2,1.1,8.2,2.9,11.9h-4.9
			C27.8,122.3,26.7,118.3,26.7,114.1z"/>
		<path class="st0" d="M45.2,118.1h5.3v5.3h-5.3V118.1z"/>
		<path class="st0" d="M61.1,126c1.8-3.7,2.9-7.7,2.9-11.9s-1.1-8.2-2.9-11.9H66c1.8,3.7,2.9,7.7,2.9,11.9c0,4.2-1.1,8.2-2.9,11.9
			H61.1z"/>
		<path class="st0" d="M80.2,114.1c0-4.2,1.1-8.2,2.9-11.9H88c-1.8,3.7-2.9,7.7-2.9,11.9c0,4.2,1.1,8.2,2.9,11.9h-4.9
			C81.3,122.3,80.2,118.3,80.2,114.1z"/>
		<path class="st0" d="M98.7,118.1h5.3v5.3h-5.3V118.1z"/>
		<path class="st0" d="M114.6,126c1.8-3.7,2.9-7.7,2.9-11.9s-1.1-8.2-2.9-11.9h4.9c1.8,3.7,2.9,7.7,2.9,11.9c0,4.2-1.1,8.2-2.9,11.9
			H114.6z"/>
		<path class="st0" d="M347.7,114.1c0-4.2,1.1-8.2,2.9-11.9h4.9c-1.8,3.7-2.9,7.7-2.9,11.9c0,4.2,1.1,8.2,2.9,11.9h-4.9
			C348.7,122.3,347.7,118.3,347.7,114.1z"/>
		<path class="st0" d="M366.1,118.1h5.3v5.3h-5.3V118.1z"/>
		<path class="st0" d="M382,126c1.8-3.7,2.9-7.7,2.9-11.9s-1.1-8.2-2.9-11.9h4.9c1.8,3.7,2.9,7.7,2.9,11.9c0,4.2-1.1,8.2-2.9,11.9
			H382z"/>
		<path class="st0" d="M401.1,114.1c0-4.2,1.1-8.2,2.9-11.9h4.9c-1.8,3.7-2.9,7.7-2.9,11.9c0,4.2,1.1,8.2,2.9,11.9H404
			C402.2,122.3,401.1,118.3,401.1,114.1z"/>
		<path class="st0" d="M419.6,118.1h5.3v5.3h-5.3V118.1z"/>
		<path class="st0" d="M435.5,126c1.8-3.7,2.9-7.7,2.9-11.9s-1.1-8.2-2.9-11.9h4.9c1.8,3.7,2.9,7.7,2.9,11.9c0,4.2-1.1,8.2-2.9,11.9
			H435.5z"/>
		<path class="st0" d="M454.6,114.1c0-4.2,1.1-8.2,2.9-11.9h4.9c-1.8,3.7-2.9,7.7-2.9,11.9c0,4.2,1.1,8.2,2.9,11.9h-4.9
			C455.7,122.3,454.6,118.3,454.6,114.1z"/>
	</g>
	<g>
		<g>
			
				<rect x="363" y="391.1" transform="matrix(0.7076 -0.7066 0.7066 0.7076 -170.0931 375.5145)" class="st0" width="11.4" height="4.4"/>
		</g>
		<g>
			
				<rect x="366.5" y="387.6" transform="matrix(0.707 -0.7072 0.7072 0.707 -170.096 375.9717)" class="st0" width="4.4" height="11.4"/>
		</g>
	</g>
	<g>
		<g>
			
				<rect x="309.5" y="391.2" transform="matrix(0.7071 -0.7071 0.7071 0.7071 -185.8693 338.0906)" class="st0" width="11.4" height="4.4"/>
		</g>
		<g>
			
				<rect x="313" y="387.6" transform="matrix(0.7071 -0.7071 0.7071 0.7071 -185.7646 338.0611)" class="st0" width="4.4" height="11.4"/>
		</g>
	</g>
	<g>
		<g>
			<path class="st0" d="M7.6,398.6c1.8-3.7,2.9-7.7,2.9-11.9c0-4.2-1.1-8.2-2.9-11.9h4.9c1.8,3.7,2.9,7.7,2.9,11.9
				c0,4.2-1.1,8.2-2.9,11.9H7.6z"/>
			<path class="st0" d="M26.7,386.8c0-4.2,1.1-8.2,2.9-11.9h4.9c-1.8,3.7-2.9,7.7-2.9,11.9c0,4.2,1.1,8.2,2.9,11.9h-4.9
				C27.8,394.9,26.7,391,26.7,386.8z"/>
			<path class="st0" d="M45.2,390.7h5.3v5.3h-5.3V390.7z"/>
			<path class="st0" d="M61.1,398.6c1.8-3.7,2.9-7.7,2.9-11.9c0-4.2-1.1-8.2-2.9-11.9H66c1.8,3.7,2.9,7.7,2.9,11.9
				c0,4.2-1.1,8.2-2.9,11.9H61.1z"/>
			<path class="st0" d="M80.2,386.8c0-4.2,1.1-8.2,2.9-11.9H88c-1.8,3.7-2.9,7.7-2.9,11.9c0,4.2,1.1,8.2,2.9,11.9h-4.9
				C81.3,394.9,80.2,391,80.2,386.8z"/>
			<path class="st0" d="M98.7,390.7h5.3v5.3h-5.3V390.7z"/>
			<path class="st0" d="M114.6,398.6c1.8-3.7,2.9-7.7,2.9-11.9c0-4.2-1.1-8.2-2.9-11.9h4.9c1.8,3.7,2.9,7.7,2.9,11.9
				c0,4.2-1.1,8.2-2.9,11.9H114.6z"/>
			<path class="st0" d="M133.7,386.8c0-4.2,1.1-8.2,2.9-11.9h4.9c-1.8,3.7-2.9,7.7-2.9,11.9c0,4.2,1.1,8.2,2.9,11.9h-4.9
				C134.8,394.9,133.7,391,133.7,386.8z"/>
			<path class="st0" d="M152.1,390.7h5.3v5.3h-5.3V390.7z"/>
			<path class="st0" d="M168,398.6c1.8-3.7,2.9-7.7,2.9-11.9c0-4.2-1.1-8.2-2.9-11.9h4.9c1.8,3.7,2.9,7.7,2.9,11.9
				c0,4.2-1.1,8.2-2.9,11.9H168z"/>
			<path class="st0" d="M187.2,386.8c0-4.2,1.1-8.2,2.9-11.9h4.9c-1.8,3.7-2.9,7.7-2.9,11.9c0,4.2,1.1,8.2,2.9,11.9h-4.9
				C188.3,394.9,187.2,391,187.2,386.8z"/>
			<path class="st0" d="M205.6,390.7h5.3v5.3h-5.3V390.7z"/>
			<path class="st0" d="M221.5,398.6c1.8-3.7,2.9-7.7,2.9-11.9c0-4.2-1.1-8.2-2.9-11.9h4.9c1.8,3.7,2.9,7.7,2.9,11.9
				c0,4.2-1.1,8.2-2.9,11.9H221.5z"/>
			<path class="st0" d="M240.7,386.8c0-4.2,1.1-8.2,2.9-11.9h4.9c-1.8,3.7-2.9,7.7-2.9,11.9c0,4.2,1.1,8.2,2.9,11.9h-4.9
				C241.7,394.9,240.7,391,240.7,386.8z"/>
			<path class="st0" d="M259.1,390.7h5.3v5.3h-5.3V390.7z"/>
			<path class="st0" d="M275,398.6c1.8-3.7,2.9-7.7,2.9-11.9c0-4.2-1.1-8.2-2.9-11.9h4.9c1.8,3.7,2.9,7.7,2.9,11.9
				c0,4.2-1.1,8.2-2.9,11.9H275z"/>
			<path class="st0" d="M294.2,386.8c0-4.2,1.1-8.2,2.9-11.9h4.9c-1.8,3.7-2.9,7.7-2.9,11.9c0,4.2,1.1,8.2,2.9,11.9h-4.9
				C295.2,394.9,294.2,391,294.2,386.8z"/>
			<path class="st0" d="M312.6,390.7h5.3v5.3h-5.3V390.7z"/>
			<path class="st0" d="M328.5,398.6c1.8-3.7,2.9-7.7,2.9-11.9c0-4.2-1.1-8.2-2.9-11.9h4.9c1.8,3.7,2.9,7.7,2.9,11.9
				c0,4.2-1.1,8.2-2.9,11.9H328.5z"/>
			<path class="st0" d="M347.7,386.8c0-4.2,1.1-8.2,2.9-11.9h4.9c-1.8,3.7-2.9,7.7-2.9,11.9c0,4.2,1.1,8.2,2.9,11.9h-4.9
				C348.7,394.9,347.7,391,347.7,386.8z"/>
			<path class="st0" d="M366.1,390.7h5.3v5.3h-5.3V390.7z"/>
			<path class="st0" d="M382,398.6c1.8-3.7,2.9-7.7,2.9-11.9c0-4.2-1.1-8.2-2.9-11.9h4.9c1.8,3.7,2.9,7.7,2.9,11.9
				c0,4.2-1.1,8.2-2.9,11.9H382z"/>
			<path class="st0" d="M401.1,386.8c0-4.2,1.1-8.2,2.9-11.9h4.9c-1.8,3.7-2.9,7.7-2.9,11.9c0,4.2,1.1,8.2,2.9,11.9H404
				C402.2,394.9,401.1,391,401.1,386.8z"/>
			<path class="st0" d="M419.6,390.7h5.3v5.3h-5.3V390.7z"/>
			<path class="st0" d="M435.5,398.6c1.8-3.7,2.9-7.7,2.9-11.9c0-4.2-1.1-8.2-2.9-11.9h4.9c1.8,3.7,2.9,7.7,2.9,11.9
				c0,4.2-1.1,8.2-2.9,11.9H435.5z"/>
			<path class="st0" d="M454.6,386.8c0-4.2,1.1-8.2,2.9-11.9h4.9c-1.8,3.7-2.9,7.7-2.9,11.9c0,4.2,1.1,8.2,2.9,11.9h-4.9
				C455.7,394.9,454.6,391,454.6,386.8z"/>
		</g>
		<g>
			<g>
				<path class="st0" d="M0,420.8c0-4.2,1.1-8.2,2.9-11.9h4.9c-1.8,3.7-2.9,7.7-2.9,11.9S6,429,7.8,432.7H2.9
					C1.1,429,0,425.1,0,420.8z"/>
				<path class="st0" d="M18.4,424.8h5.3v5.3h-5.3C18.4,430.1,18.4,424.8,18.4,424.8z"/>
				<path class="st0" d="M34.3,432.7c1.8-3.7,2.9-7.7,2.9-11.9s-1.1-8.2-2.9-11.9h4.9c1.8,3.7,2.9,7.7,2.9,11.9s-1.1,8.2-2.9,11.9
					H34.3z"/>
				<path class="st0" d="M53.5,420.8c0-4.2,1.1-8.2,2.9-11.9h4.9c-1.8,3.7-2.9,7.7-2.9,11.9s1.1,8.2,2.9,11.9h-4.9
					C54.5,429,53.5,425.1,53.5,420.8z"/>
				<path class="st0" d="M71.9,424.8h5.3v5.3h-5.3V424.8z"/>
				<path class="st0" d="M87.8,432.7c1.8-3.7,2.9-7.7,2.9-11.9s-1.1-8.2-2.9-11.9h4.9c1.8,3.7,2.9,7.7,2.9,11.9s-1.1,8.2-2.9,11.9
					H87.8z"/>
				<path class="st0" d="M107,420.8c0-4.2,1.1-8.2,2.9-11.9h4.9c-1.8,3.7-2.9,7.7-2.9,11.9s1.1,8.2,2.9,11.9h-4.9
					C108,429,107,425.1,107,420.8z"/>
				<path class="st0" d="M125.4,424.8h5.3v5.3h-5.3C125.4,430.1,125.4,424.8,125.4,424.8z"/>
				<path class="st0" d="M141.3,432.7c1.8-3.7,2.9-7.7,2.9-11.9s-1.1-8.2-2.9-11.9h4.9c1.8,3.7,2.9,7.7,2.9,11.9s-1.1,8.2-2.9,11.9
					H141.3z"/>
				<path class="st0" d="M160.5,420.8c0-4.2,1.1-8.2,2.9-11.9h4.9c-1.8,3.7-2.9,7.7-2.9,11.9s1.1,8.2,2.9,11.9h-4.9
					C161.5,429,160.5,425.1,160.5,420.8z"/>
				<path class="st0" d="M178.9,424.8h5.3v5.3h-5.3V424.8z"/>
				<path class="st0" d="M194.8,432.7c1.8-3.7,2.9-7.7,2.9-11.9s-1.1-8.2-2.9-11.9h4.9c1.8,3.7,2.9,7.7,2.9,11.9s-1.1,8.2-2.9,11.9
					H194.8z"/>
				<path class="st0" d="M213.9,420.8c0-4.2,1.1-8.2,2.9-11.9h4.9c-1.8,3.7-2.9,7.7-2.9,11.9s1.1,8.2,2.9,11.9h-4.9
					C215,429,213.9,425.1,213.9,420.8z"/>
				<path class="st0" d="M232.4,424.8h5.3v5.3h-5.3V424.8z"/>
				<path class="st0" d="M248.3,432.7c1.8-3.7,2.9-7.7,2.9-11.9s-1.1-8.2-2.9-11.9h4.9c1.8,3.7,2.9,7.7,2.9,11.9s-1.1,8.2-2.9,11.9
					H248.3z"/>
				<path class="st0" d="M267.4,420.8c0-4.2,1.1-8.2,2.9-11.9h4.9c-1.8,3.7-2.9,7.7-2.9,11.9s1.1,8.2,2.9,11.9h-4.9
					C268.5,429,267.4,425.1,267.4,420.8z"/>
				<path class="st0" d="M285.9,424.8h5.3v5.3h-5.3V424.8L285.9,424.8z"/>
				<path class="st0" d="M301.8,432.7c1.8-3.7,2.9-7.7,2.9-11.9s-1.1-8.2-2.9-11.9h4.9c1.8,3.7,2.9,7.7,2.9,11.9s-1.1,8.2-2.9,11.9
					H301.8z"/>
				<path class="st0" d="M320.9,420.8c0-4.2,1.1-8.2,2.9-11.9h4.9c-1.8,3.7-2.9,7.7-2.9,11.9s1.1,8.2,2.9,11.9h-4.9
					C322,429,320.9,425.1,320.9,420.8z"/>
				<path class="st0" d="M339.3,424.8h5.3v5.3h-5.3V424.8z"/>
				<path class="st0" d="M355.2,432.7c1.8-3.7,2.9-7.7,2.9-11.9s-1.1-8.2-2.9-11.9h4.9c1.8,3.7,2.9,7.7,2.9,11.9s-1.1,8.2-2.9,11.9
					H355.2z"/>
				<path class="st0" d="M374.4,420.8c0-4.2,1.1-8.2,2.9-11.9h4.9c-1.8,3.7-2.9,7.7-2.9,11.9s1.1,8.2,2.9,11.9h-4.9
					C375.5,429,374.4,425.1,374.4,420.8z"/>
				<path class="st0" d="M392.8,424.8h5.3v5.3h-5.3V424.8z"/>
				<path class="st0" d="M408.7,432.7c1.8-3.7,2.9-7.7,2.9-11.9s-1.1-8.2-2.9-11.9h4.9c1.8,3.7,2.9,7.7,2.9,11.9s-1.1,8.2-2.9,11.9
					H408.7z"/>
				<path class="st0" d="M427.9,420.8c0-4.2,1.1-8.2,2.9-11.9h4.9c-1.8,3.7-2.9,7.7-2.9,11.9s1.1,8.2,2.9,11.9h-4.9
					C428.9,429,427.9,425.1,427.9,420.8z"/>
				<path class="st0" d="M446.3,424.8h5.3v5.3h-5.3V424.8L446.3,424.8z"/>
				<path class="st0" d="M462.2,432.7c1.8-3.7,2.9-7.7,2.9-11.9s-1.1-8.2-2.9-11.9h4.9c1.8,3.7,2.9,7.7,2.9,11.9s-1.1,8.2-2.9,11.9
					H462.2z"/>
			</g>
		</g>
		<g>
			<path class="st0" d="M7.6,466.8c1.8-3.7,2.9-7.7,2.9-11.9s-1.1-8.2-2.9-11.9h4.9c1.8,3.7,2.9,7.7,2.9,11.9s-1.1,8.2-2.9,11.9H7.6
				z"/>
			<path class="st0" d="M26.7,454.9c0-4.2,1.1-8.2,2.9-11.9h4.9c-1.8,3.7-2.9,7.7-2.9,11.9s1.1,8.2,2.9,11.9h-4.9
				C27.8,463.1,26.7,459.1,26.7,454.9z"/>
			<path class="st0" d="M45.2,458.9h5.3v5.3h-5.3V458.9z"/>
			<path class="st0" d="M61.1,466.8c1.8-3.7,2.9-7.7,2.9-11.9s-1.1-8.2-2.9-11.9H66c1.8,3.7,2.9,7.7,2.9,11.9s-1.1,8.2-2.9,11.9
				H61.1z"/>
			<path class="st0" d="M80.2,454.9c0-4.2,1.1-8.2,2.9-11.9H88c-1.8,3.7-2.9,7.7-2.9,11.9s1.1,8.2,2.9,11.9h-4.9
				C81.3,463.1,80.2,459.1,80.2,454.9z"/>
			<path class="st0" d="M98.7,458.9h5.3v5.3h-5.3V458.9z"/>
			<path class="st0" d="M114.6,466.8c1.8-3.7,2.9-7.7,2.9-11.9s-1.1-8.2-2.9-11.9h4.9c1.8,3.7,2.9,7.7,2.9,11.9s-1.1,8.2-2.9,11.9
				H114.6z"/>
			<path class="st0" d="M133.7,454.9c0-4.2,1.1-8.2,2.9-11.9h4.9c-1.8,3.7-2.9,7.7-2.9,11.9s1.1,8.2,2.9,11.9h-4.9
				C134.8,463.1,133.7,459.1,133.7,454.9z"/>
			<path class="st0" d="M152.1,458.9h5.3v5.3h-5.3V458.9z"/>
			<path class="st0" d="M168,466.8c1.8-3.7,2.9-7.7,2.9-11.9s-1.1-8.2-2.9-11.9h4.9c1.8,3.7,2.9,7.7,2.9,11.9s-1.1,8.2-2.9,11.9H168
				z"/>
			<path class="st0" d="M187.2,454.9c0-4.2,1.1-8.2,2.9-11.9h4.9c-1.8,3.7-2.9,7.7-2.9,11.9s1.1,8.2,2.9,11.9h-4.9
				C188.3,463.1,187.2,459.1,187.2,454.9z"/>
			<path class="st0" d="M205.6,458.9h5.3v5.3h-5.3V458.9z"/>
			<path class="st0" d="M221.5,466.8c1.8-3.7,2.9-7.7,2.9-11.9s-1.1-8.2-2.9-11.9h4.9c1.8,3.7,2.9,7.7,2.9,11.9s-1.1,8.2-2.9,11.9
				H221.5z"/>
			<path class="st0" d="M240.7,454.9c0-4.2,1.1-8.2,2.9-11.9h4.9c-1.8,3.7-2.9,7.7-2.9,11.9s1.1,8.2,2.9,11.9h-4.9
				C241.7,463.1,240.7,459.1,240.7,454.9z"/>
			<path class="st0" d="M259.1,458.9h5.3v5.3h-5.3V458.9z"/>
			<path class="st0" d="M275,466.8c1.8-3.7,2.9-7.7,2.9-11.9s-1.1-8.2-2.9-11.9h4.9c1.8,3.7,2.9,7.7,2.9,11.9s-1.1,8.2-2.9,11.9H275
				z"/>
			<path class="st0" d="M294.2,454.9c0-4.2,1.1-8.2,2.9-11.9h4.9c-1.8,3.7-2.9,7.7-2.9,11.9s1.1,8.2,2.9,11.9h-4.9
				C295.2,463.1,294.2,459.1,294.2,454.9z"/>
			<path class="st0" d="M312.6,458.9h5.3v5.3h-5.3V458.9z"/>
			<path class="st0" d="M328.5,466.8c1.8-3.7,2.9-7.7,2.9-11.9s-1.1-8.2-2.9-11.9h4.9c1.8,3.7,2.9,7.7,2.9,11.9s-1.1,8.2-2.9,11.9
				H328.5z"/>
			<path class="st0" d="M347.7,454.9c0-4.2,1.1-8.2,2.9-11.9h4.9c-1.8,3.7-2.9,7.7-2.9,11.9s1.1,8.2,2.9,11.9h-4.9
				C348.7,463.1,347.7,459.1,347.7,454.9z"/>
			<path class="st0" d="M366.1,458.9h5.3v5.3h-5.3V458.9z"/>
			<path class="st0" d="M382,466.8c1.8-3.7,2.9-7.7,2.9-11.9s-1.1-8.2-2.9-11.9h4.9c1.8,3.7,2.9,7.7,2.9,11.9s-1.1,8.2-2.9,11.9H382
				z"/>
			<path class="st0" d="M401.1,454.9c0-4.2,1.1-8.2,2.9-11.9h4.9c-1.8,3.7-2.9,7.7-2.9,11.9s1.1,8.2,2.9,11.9H404
				C402.2,463.1,401.1,459.1,401.1,454.9z"/>
			<path class="st0" d="M419.6,458.9h5.3v5.3h-5.3V458.9z"/>
			<path class="st0" d="M435.5,466.8c1.8-3.7,2.9-7.7,2.9-11.9s-1.1-8.2-2.9-11.9h4.9c1.8,3.7,2.9,7.7,2.9,11.9s-1.1,8.2-2.9,11.9
				H435.5z"/>
			<path class="st0" d="M454.6,454.9c0-4.2,1.1-8.2,2.9-11.9h4.9c-1.8,3.7-2.9,7.7-2.9,11.9s1.1,8.2,2.9,11.9h-4.9
				C455.7,463.1,454.6,459.1,454.6,454.9z"/>
		</g>
	</g>
</g>
<g>
	<rect x="132" y="102.2" class="st1" width="205.9" height="160.1"/>
</g>
<g>
	<path class="st2" d="M158.8,227.5h1.2l2.7,9.7l2.8-9.1h0.9l2.8,9.1l2.6-9.7h1.2l-3.1,11h-1.3l-2.7-8.6l-2.7,8.6h-1.3L158.8,227.5z"
		/>
	<path class="st2" d="M173.7,234.7c0-2.1,1.1-4,3.3-4c2.5,0,3.3,2,3.3,4.1v0.2h-5.4c0,1.4,0.8,2.7,2.3,2.7c0.9,0,1.6-0.2,2.2-0.8
		l0.7,0.6c-0.9,0.8-1.7,1.2-3,1.2C174.8,238.6,173.7,236.8,173.7,234.7z M179.2,234.1c0-1.5-0.7-2.5-2.2-2.5s-2.2,1.1-2.2,2.5H179.2
		z"/>
	<path class="st2" d="M182.7,227.5h1.4l-1.7,3.7h-0.7L182.7,227.5z"/>
	<path class="st2" d="M185.7,237v-9.5h1.1v9.8c0-0.1,0,0.4,0.4,0.4s0.8-0.1,0.8-0.1v0.9c0,0-0.4,0.2-1,0.2
		C185.7,238.7,185.7,237.8,185.7,237z"/>
	<path class="st2" d="M190.2,237v-9.5h1.1v9.8c0-0.1,0,0.4,0.4,0.4s0.8-0.1,0.8-0.1v0.9c0,0-0.4,0.2-1,0.2
		C190.2,238.7,190.2,237.8,190.2,237z"/>
	<path class="st2" d="M198.3,239.7c0-0.4,0.1-0.7,0.1-0.7l1.5-0.7c-1-0.4-1.4-1.3-1.4-1.7c0-0.6,0.4-1.2,0.9-1.9
		c-0.2-0.3-0.3-0.8-0.3-1.4c0-1.6,1.2-2.7,2.8-2.7c0.5,0,1,0.1,1.4,0.3l1.2-1.1l0.6,0.8l-1.1,0.8c0.4,0.4,0.6,1.1,0.6,1.8
		c0,1.7-1.2,2.6-2.8,2.6c-0.6,0-1.2-0.2-1.7-0.5c-0.3,0.2-0.7,0.6-0.7,1.1c0,0.9,1.5,0.9,2.6,0.9c1.7,0,3.3,0.2,3.3,2
		c0,2.1-2,2.6-3.5,2.6C200.3,242.1,198.3,241.6,198.3,239.7z M204.3,239.5c0-1-1-1.1-2.1-1.1c-0.4,0-0.9,0-1.3-0.1l-1.5,1.2
		c-0.1,0-0.1,1.6,2.4,1.6C202.6,241.1,204.3,240.9,204.3,239.5z M203.4,233.3c0-1-0.7-1.7-1.7-1.7s-1.6,0.7-1.6,1.7s0.7,1.7,1.6,1.7
		C202.7,235,203.4,234.3,203.4,233.3z"/>
	<path class="st2" d="M206.6,234.7c0-2.1,1.1-4,3.3-4c2.5,0,3.3,2,3.3,4.1v0.2h-5.4c0,1.4,0.8,2.7,2.3,2.7c0.9,0,1.6-0.2,2.2-0.8
		l0.7,0.6c-0.9,0.8-1.7,1.2-3,1.2C207.7,238.6,206.6,236.8,206.6,234.7z M212.2,234.1c0-1.5-0.7-2.5-2.2-2.5s-2.2,1.1-2.2,2.5H212.2
		z"/>
	<path class="st2" d="M215.6,236.5v-4.9h-1.2v-0.9h1.2V229l1.1-1.1v2.8h2v0.9h-2v5c0,0.9,0.3,1.2,0.8,1.2c0.7,0,0.9-0.1,0.9-0.1v0.9
		c0,0-0.4,0.2-1,0.2C216.1,238.7,215.6,237.8,215.6,236.5z"/>
	<path class="st2" d="M226.3,237.4v1.1h-1.1v-11h1.1v4.3c0.5-0.7,1.3-1.3,2.5-1.3c2,0,3.1,1.8,3.1,4.1c0,2.2-1.1,4.1-3.1,4.1
		C227.6,238.7,226.8,238.2,226.3,237.4z M230.8,234.6c0-1.6-0.7-3.1-2.3-3.1s-2.3,1.5-2.3,3.1s0.7,3.1,2.3,3.1
		S230.8,236.3,230.8,234.6z"/>
	<path class="st2" d="M233.8,236.4c0-1.6,1.1-2.3,2.8-2.3h2.5c0-1.6-0.5-2.6-2.1-2.6c-0.9,0-1.7,0.6-2.1,1.1l-0.8-0.6
		c0.7-1,1.6-1.5,2.9-1.5c1.9,0,3,1.2,3,3.1v4.8h-0.9V237c-0.7,1-1.6,1.6-2.9,1.6S233.8,237.8,233.8,236.4z M239,235h-2.4
		c-1,0-1.8,0.5-1.8,1.4c0,1,0.8,1.3,1.6,1.3C238,237.7,239,236.3,239,235z"/>
	<path class="st2" d="M242.2,234.7c0-2.1,1.1-4,3.3-4c1.4,0,2.4,0.8,3,2l-1,0.4c-0.2-1-1-1.6-2-1.6c-1.7,0-2.2,1.7-2.2,3.1
		c0,1.5,0.6,3.2,2.2,3.2c1,0,1.7-0.6,2-1.6l0.9,0.4c-0.5,1.3-1.5,2-2.9,2C243.4,238.7,242.2,236.8,242.2,234.7z"/>
	<path class="st2" d="M251,227.5h1.1v7.6l3.6-4.3h1.3l-2.5,2.8l3,5h-1.3l-2.4-4.2l-1.7,1.9v2.3H251V227.5L251,227.5z"/>
	<path class="st2" d="M264.1,236.5v-4.9h-1.2v-0.9h1.2V229l1.1-1.1v2.8h2v0.9h-2v5c0,0.9,0.3,1.2,0.8,1.2c0.7,0,0.9-0.1,0.9-0.1v0.9
		c0,0-0.4,0.2-1,0.2C264.6,238.7,264.1,237.8,264.1,236.5z"/>
	<path class="st2" d="M268.5,234.7c0-2.2,1.5-4,3.6-4c2.2,0,3.7,1.8,3.7,4s-1.5,4-3.7,4C270,238.7,268.5,236.9,268.5,234.7z
		 M274.6,234.7c0-1.6-0.7-3.1-2.4-3.1c-1.8,0-2.4,1.5-2.4,3.1s0.7,3.1,2.4,3.1S274.6,236.3,274.6,234.7z"/>
	<path class="st2" d="M284.5,238.5l-3-7.8h1.2l2.3,6.5l2.2-6.5h1.2l-4.1,11.2h-1.1L284.5,238.5z"/>
	<path class="st2" d="M289.7,234.7c0-2.2,1.5-4,3.6-4c2.2,0,3.7,1.8,3.7,4s-1.5,4-3.7,4S289.7,236.9,289.7,234.7z M295.8,234.7
		c0-1.6-0.7-3.1-2.4-3.1c-1.8,0-2.4,1.5-2.4,3.1s0.7,3.1,2.4,3.1C295.1,237.8,295.8,236.3,295.8,234.7z"/>
	<path class="st2" d="M299.2,235.4v-4.6h1.1v4.7c0,1.1,0.3,2.4,1.7,2.4c1.3,0,2.4-1.3,2.4-2.6v-4.5h1.1v7.8h-1.1v-1.4
		c-0.3,0.7-1.2,1.6-2.5,1.6C300,238.7,299.2,237.2,299.2,235.4z"/>
	<path class="st2" d="M307.9,237.1h1.5v1.4h-1.5V237.1z"/>
</g>
<g id="Layer_2_1_" class="st3">
</g>
<g>
	<path class="st2" d="M161.5,126.2h8c1.6,0,3,0.3,4.3,0.9s2.4,1.4,3.1,2.5s1.2,2.4,1.2,3.9c0,1-0.2,2-0.6,2.8s-1,1.6-1.7,2.2
		s-1.6,1.1-2.5,1.4l6.9,11.1h-5.1l-6.1-10.7h-3V151h-4.5L161.5,126.2L161.5,126.2z M170,136.8c1.2,0,2.1-0.4,2.8-0.9s1-1.3,1-2.3
		s-0.4-1.9-1.1-2.5s-1.8-0.9-3-0.9H166v6.6L170,136.8L170,136.8z"/>
	<path class="st2" d="M185.2,150.1c-1.4-0.8-2.5-1.9-3.3-3.3s-1.2-2.9-1.2-4.6s0.4-3.2,1.2-4.6s1.9-2.5,3.3-3.3s3-1.2,4.8-1.2
		s3.4,0.4,4.7,1.2s2.5,1.9,3.3,3.3s1.2,2.9,1.2,4.6s-0.4,3.2-1.2,4.6s-1.9,2.5-3.3,3.3s-3,1.2-4.7,1.2S186.6,151,185.2,150.1z
		 M193.4,146.2c0.8-1,1.1-2.3,1.1-3.9c0-1-0.2-1.9-0.5-2.7s-0.8-1.5-1.5-1.9s-1.5-0.7-2.6-0.7c-1.5,0-2.7,0.5-3.4,1.5
		s-1.1,2.3-1.1,3.8c0,1.6,0.4,2.9,1.1,3.9s1.9,1.5,3.4,1.5C191.5,147.7,192.6,147.2,193.4,146.2z"/>
	<path class="st2" d="M165,193.8c-0.8-0.4-1.5-1-1.9-1.8s-0.7-1.7-0.7-2.8v-8.8h-2.8v-3.9h2.9v-4.4l4-3.1v7.4h4.6v3.9h-4.6v8.8
		c0,0.5,0.2,0.8,0.5,1.1s0.8,0.4,1.4,0.4c0.4,0,0.8,0,1.2-0.1s0.7-0.2,1-0.3s0.4-0.2,0.5-0.2v3.9c-0.1,0-0.3,0.1-0.5,0.2
		s-0.7,0.2-1.1,0.2s-1,0.1-1.5,0.1C166.8,194.5,165.8,194.3,165,193.8z"/>
	<path class="st2" d="M174.5,169.3h4.4v9.1c1.2-1.5,2.7-2.3,4.6-2.3c1.6,0,2.9,0.4,3.9,1.1s1.8,1.7,2.2,2.8s0.7,2.4,0.7,3.8v10.3
		H186V184c0-1.2-0.2-2.1-0.6-2.7s-1.1-1-2.2-1c-0.7,0-1.3,0.1-1.9,0.4s-1.1,0.7-1.5,1.2s-0.7,1-0.8,1.6v10.6h-4.4v-24.8H174.5z"/>
	<path class="st2" d="M197.3,193.8c-1-0.5-1.8-1.1-2.4-2s-0.9-1.8-0.9-2.9c0-1.9,0.7-3.2,2-4s3-1.2,5.2-1.2h4.6
		c0-1.2-0.3-2.1-0.9-2.7s-1.5-0.9-2.7-0.9c-0.8,0-1.6,0.2-2.3,0.7s-1.3,1-1.6,1.7l-3.3-2.4c0.9-1.3,2-2.2,3.2-2.8s2.6-0.9,4.2-0.9
		c1.6,0,2.9,0.3,4.1,0.9s2,1.4,2.6,2.5s0.9,2.3,0.9,3.8v10.7h-3.4l-0.5-2.5c-0.7,1.1-1.5,1.8-2.5,2.2s-2,0.6-3.2,0.6
		C199.3,194.5,198.2,194.2,197.3,193.8z M203.4,190.3c0.7-0.4,1.3-0.9,1.7-1.5s0.6-1.3,0.7-2h-4.3c-0.6,0-1.2,0.1-1.6,0.3
		s-0.8,0.5-1.1,0.8s-0.4,0.7-0.4,1.1c0,0.6,0.3,1.1,0.8,1.4s1.2,0.6,2,0.6C202,190.8,202.7,190.7,203.4,190.3z"/>
	<path class="st2" d="M217.6,193.8c-0.8-0.4-1.5-1-1.9-1.8s-0.7-1.7-0.7-2.8v-8.8h-2.8v-3.9h2.9v-4.4l4-3.1v7.4h4.6v3.9h-4.6v8.8
		c0,0.5,0.2,0.8,0.5,1.1s0.8,0.4,1.4,0.4c0.4,0,0.8,0,1.2-0.1s0.7-0.2,1-0.3s0.4-0.2,0.5-0.2v3.9c-0.1,0-0.3,0.1-0.5,0.2
		s-0.7,0.2-1.1,0.2s-1,0.1-1.5,0.1C219.4,194.5,218.5,194.3,217.6,193.8z"/>
	<path class="st2" d="M225.9,189.5h4.3v4.6h-4.3V189.5z"/>
	<path class="st2" d="M205.9,158.5c-1.4-0.4-2.5-1.1-3.3-1.9s-1.2-1.9-1.2-3.2c0-0.5,0.1-1,0.2-1.4s0.3-0.8,0.6-1.2l2.2-0.3
		c-0.9-0.4-1.6-1-2-1.6s-0.6-1.4-0.6-2.2s0.2-1.5,0.6-2.2s1-1.1,1.8-1.4c-0.5-0.7-0.8-1.3-1-1.8s-0.3-1-0.3-1.6
		c0-1.3,0.3-2.4,0.9-3.3s1.5-1.7,2.5-2.2s2.2-0.8,3.5-0.8c1.1,0,2.2,0.2,3.3,0.7l3-2.8l2.5,3.3l-2.6,1.8c0.4,0.5,0.6,1.1,0.8,1.6
		s0.3,1.2,0.3,1.8c0,1.3-0.3,2.5-1,3.4s-1.5,1.7-2.6,2.2s-2.3,0.8-3.6,0.8c-1.4,0-2.6-0.3-3.7-0.8c-0.4,0.4-0.6,0.7-0.6,1.1
		c0,0.4,0.2,0.8,0.7,1s1.1,0.4,1.8,0.4s1.5,0.1,2.6,0.1c1.5,0,2.7,0.1,3.7,0.3s1.9,0.7,2.7,1.4s1.1,1.9,1.1,3.4c0,1.9-0.7,3.4-2,4.4
		s-3.3,1.6-5.9,1.6C208.7,159.1,207.2,158.9,205.9,158.5z M213.1,155.2c0.7-0.3,1-0.8,1-1.5c0-0.8-0.4-1.4-1.3-1.7s-2.1-0.4-3.7-0.4
		h-1.4c-0.2,0-0.6,0-1,0l-2.1,1.4c0.2,0.8,0.8,1.5,1.8,1.9s2.2,0.7,3.8,0.7C211.5,155.6,212.4,155.5,213.1,155.2z M212.2,141.8
		c0.5-0.6,0.8-1.3,0.8-2.2s-0.3-1.6-0.8-2.2s-1.2-0.9-2.1-0.9s-1.6,0.3-2.2,0.9s-0.8,1.3-0.8,2.2s0.3,1.6,0.8,2.2s1.2,0.8,2.2,0.8
		C210.9,142.6,211.6,142.3,212.2,141.8z"/>
	<path class="st2" d="M224,150c-1.3-0.8-2.3-1.9-3-3.2s-1-2.8-1-4.4c0-1.6,0.3-3.1,0.9-4.5s1.6-2.5,2.9-3.4s2.8-1.3,4.6-1.3
		c2,0,3.7,0.4,4.9,1.3s2.1,1.9,2.6,3.3s0.8,2.9,0.8,4.5c0,0.3,0,0.6-0.1,0.9s-0.1,0.4-0.1,0.5h-12.1c0.1,1.1,0.6,2,1.3,2.6
		s1.7,1,2.9,1c1,0,1.8-0.1,2.5-0.3s1.3-0.7,1.9-1.3l3,2.6c-1,1.1-2.1,1.8-3.3,2.3s-2.5,0.7-4,0.7C227,151.2,225.4,150.8,224,150z
		 M232.6,140.5c-0.1-1.2-0.5-2.1-1.2-2.8s-1.6-0.9-2.9-0.9c-1.1,0-2,0.3-2.7,1s-1.1,1.6-1.3,2.7H232.6z"/>
	<path class="st2" d="M240.4,133.5h4.2v2.2c0.6-0.9,1.2-1.5,2-1.9s1.5-0.6,2.3-0.6c0.6,0,1.3,0.1,2,0.3s1.3,0.5,1.7,0.9l-2,3.5
		c-0.3-0.2-0.5-0.4-0.8-0.5s-0.7-0.1-1.1-0.1c-0.8,0-1.5,0.2-2.1,0.7s-1.1,1.2-1.4,2s-0.5,1.8-0.5,2.8v8.1h-4.1v-17.4H240.4z"/>
</g>
</svg>
