<?xml version="1.0" encoding="utf-8"?>
<!-- Generator: Adobe Illustrator 23.0.3, SVG Export Plug-In . SVG Version: 6.00 Build 0)  -->
<svg version="1.1" id="Layer_1" xmlns="http://www.w3.org/2000/svg" xmlns:xlink="http://www.w3.org/1999/xlink" x="0px" y="0px"
	 viewBox="0 0 50 66" style="enable-background:new 0 0 50 66;" xml:space="preserve">
<style type="text/css">
	.st0{fill:#FFFFFF;}
	.st1{display:none;}
</style>
<g>
	<g>
		<rect x="1.3" y="29.9" class="st0" width="22" height="22.8"/>
		<rect x="26.6" y="0.5" class="st0" width="22" height="52.2"/>
		<g>
			<path class="st0" d="M1.3,56h2.3l1.7,6.7L7.1,56h1.8l1.9,6.7l1.7-6.7h2.3L12,65.5H9.5L8,59.9l-1.6,5.6H3.9L1.3,56z"/>
			<path class="st0" d="M28.9,64.1h-3.6l-0.5,1.5h-2.4l3.3-9.5h2.8l3.3,9.5h-2.4L28.9,64.1z M28.3,62l-1.1-3.5L26,62H28.3z"/>
			<path class="st0" d="M46.2,65.6l-1.6-2.8L43,65.6h-2.5l2.9-4.9L40.6,56h2.5l1.5,2.5l1.5-2.5h2.5l-2.7,4.6l2.9,4.9H46.2z"/>
		</g>
	</g>
	<g id="Layer_2_1_" class="st1">
	</g>
</g>
</svg>
