<?xml version="1.0" encoding="utf-8"?>
<!-- Generator: Adobe Illustrator 25.4.1, SVG Export Plug-In . SVG Version: 6.00 Build 0)  -->
<svg version="1.1" id="Layer_1" xmlns="http://www.w3.org/2000/svg" xmlns:xlink="http://www.w3.org/1999/xlink" x="0px" y="0px"
	 viewBox="0 0 47.5 65.1" style="enable-background:new 0 0 47.5 65.1;" xml:space="preserve">
<style type="text/css">
	.st0{fill:#1A1A1A;}
	.st1{display:none;}
</style>
<g>
	<rect y="29.4" class="st0" width="22" height="22.8"/>
	<rect x="25.3" class="st0" width="22" height="52.2"/>
	<g>
		<path class="st0" d="M0,55.5h2.3L4,62.2l1.8-6.7h1.8l1.9,6.7l1.7-6.7h2.3L10.7,65H8.2l-1.5-5.6L5.1,65H2.6L0,55.5z"/>
		<path class="st0" d="M27.6,63.6H24l-0.5,1.5h-2.4l3.3-9.5h2.8l3.3,9.5h-2.4L27.6,63.6z M27,61.5L25.9,58l-1.2,3.5H27z"/>
		<path class="st0" d="M44.9,65.1l-1.6-2.8l-1.6,2.8h-2.5l2.9-4.9l-2.8-4.7h2.5l1.5,2.5l1.5-2.5h2.5l-2.7,4.6l2.9,4.9L44.9,65.1
			L44.9,65.1z"/>
	</g>
</g>
<g id="Layer_2_1_" class="st1">
</g>
</svg>
