<svg xmlns="http://www.w3.org/2000/svg" width="1062.31" height="555.601" viewBox="0 0 1062.31 555.601"><g transform="translate(-1248.147 -712.666)"><g transform="translate(1248.147 712.666)"><path d="M1449.386,767.754c-1.386-.452-.927-2.288-3.926-2.745s-5.325-1.829-6.7-.453,0,1.371-2.771,2.288-10.624.91-12.245.91-6,.006-6.236-1.6.46-3.193-1.848-3.193-2.781.919-4.625-.464a13.56,13.56,0,0,0-4.392-2.283,20.106,20.106,0,0,0-7.151-1.139c-1.627.226.458,1.59-3.241,1.139s-.688-2.281-5.777-2.513a36.68,36.68,0,0,0-11.545,1.134c-4.158.914-7.163.459-9.014,1.379s-2.548,2.747-5.084,2.969-3.7.913-7.858-1.369-1.394-2.52-6.235-2.979-12.476-1.815-16.4-2.277-6.46-3.887-9.471-3.655-3.928,1.606-6.928,2.735c-3,1.147-4.164.7-9.237.92-5.09.227-7.868-.913-9.712.682s-1.149,2.979-4.4,3.431c-3.227.468-8.31-.227-9.69.468-1.387.675-3.231-.016-3.7,2.5a7.3,7.3,0,0,0,1.166,5.261c.457.68,1.833,2.514-1.4,3.2s-7.4.227-8.319.227-5.775-.46-6.932.909-2.993,3.655.929,4.353,10.861.686,6.924,2.048-9.69,2.972-9.69,2.972-5.553-1.143-6.939,2.058-3.006,3.2-5.775,4.572-3.463,4.112-2.767,4.8,3.695,1.607,3.695,2.524c0,.9,1.842,2.97,2.769,2.97s4.163.228,4.163.228-5.09,4.344-6.018,5.936-.459,3.427,2.548,3.427,7.624-3.882,9.477-4.8,2.078-.911,5.315-3.871c3.222-2.988,4.386-3.657,6.238-4.112s2.311-2.286,5.541-4.118,6.007-4.572,6.931-4.123,2.546-.449.458,1.376-2.762,1.135-3.921,2.967-4.62,2.981-2.766,3.9a7.782,7.782,0,0,0,6,.227c2.313-.7,4.387-.235,5.777-2.748s.913-4.125,3.235-4.573,4.631-.235,5.077,1.364-.461,1.832,2.543,2.067,2.308.222,5.316.454,3.7.228,3.7,1.6c0,1.357-2.318.224.925,2.051,3.225,1.828,4.379.234,5.765,2.057s1.849,2.521,2.077,3.671c.236,1.134.924,1.811,1.393,4.33s-1.156,3.662-.469,5.489,2.323,2.064,1.627,5.257-.7,3.2-1.158,5.71,0,3.437-1.156,4.576-1.391,2.747,0,3.429,4.393,3.426,4.62,4.334c.231.926-1.39,2.528-1.39,2.528s2.089,4.571-.685,4.571-6.474-1.368-5.317.917.23,5.7.23,5.7a6.266,6.266,0,0,1-2.075,5.268c-2.546,2.281-6.234,5.474-8.555,9.141s-5.545,5.942-4.617,9.373-3.466,2.052-3.466,6.4.112,4.568.977,6.28a7.5,7.5,0,0,1,.519,5.146c-.348,1.883-2.427,5.313,0,6.347s4.337-.173,4.68,1.885,1.56,1.881,2.253,3.435c.694,1.531,2.772-.517,2.594,2.046s-1.723,5.321-1.384,7.889a41.65,41.65,0,0,0,2.6,8.222c.866,2.243,1.565,1.553,1.915,3.611s-.7.518-1.386,2.91c-.7,2.409-.878,3.6.161,4.63s2.43.514,3.293,1.888a6.1,6.1,0,0,1,1.211,4.107c0,2.064-.164,3.264.7,3.781s1.915-.172,2.6,1.533c.688,1.723,2.091,2.924,2.944,2.582s2.25-1.2.868-2.918-3.467-3.428-3.467-5.311-.691-2.919-.691-4.975-.342-4.115-1.212-5.146c-.854-1.027-1.742-1.883-1.742-3.425s.523-2.57-.681-4.628-2.086-3.085-1.218-5.15.517-3.591,1.735-3.936.341-3.433,2.252-1.2,3.3,3.942,3.3,5.658-.359,4.459.682,7.2,1.9,4.456,2.595,6.514a26.945,26.945,0,0,0,3.64,7.544c1.911,2.573,3.12,1.367,4.332,4.8s4.506,8.742,4.683,10.623a15.376,15.376,0,0,1-.363,4.976c-.337,1.715,1.221,3.609,1.744,4.8a11.127,11.127,0,0,0,2.771,4.288,9.973,9.973,0,0,1,2.773,3.086c1.552,2.228,3.293,1.877,5.2,2.738s5.207,2.06,6.073,2.4,4.333,1.537,5.54,3.091a5.04,5.04,0,0,0,5.548,1.885c2.422-.683,3.808,0,4.324-1.377s3.466-2.061,3.81-1.538a23.07,23.07,0,0,1,1.916,3.6c.342,1.028,3.112,1.2,4.5,3.255s4.5,2.235,5.889,2.918.862,1.707,2.433,2.057c1.552.354,2.591.165,5.2.691s3.978-1.387,4.5.841.7,4.129,1.738,4.64,2.422,1.533,2.422,2.225-1.04,3.781.7,5.313c1.733,1.55,2.6,2.065,4.151,3.611s3.655,2.393,4.512,3.6,3.125,1.2,3.986,2.058a8.368,8.368,0,0,0,3.638,1.538c.858.167,1.733-.866,2.081-1.709.346-.862-1.736-.177.346-.862s4.845-1.025,3.46-1.889a6.23,6.23,0,0,0-4.154-1.2c-1.566.164-1.733.691-3.986.164-2.245-.509-5.9-.855-7.093-2.741-1.222-1.88-1.919-3.588-1.575-5.3s-.172-2.059.873-6.344.524-5.653.349-6.175,1.55-1.031,1.729-2.579-1.377-2.914-2.255-3.427,3.121-2.22-2.08-2.22-5.195-.171-7.8.678-5.019,2.4-5.538-.168-1.212-3.093-.353-3.763c.871-.7,1.917-3.965,1.733-5.15a15.516,15.516,0,0,1,0-2.913,4.048,4.048,0,0,0,2.769-1.542c.874-1.379,0-1.379,1.214-2.918s.352-5.324.871-5.661,2.943-2.229.869-2.737-1.564-1.2-3.463,0a6,6,0,0,1-4.16,1.025c-1.383,0-2.253-.516-3.124,1.195s0,2.921-1.552,4.472c-1.571,1.525-3.3,1.881-3.3,3.078s-2.258,2.222-4.682,2.059a17.566,17.566,0,0,0-7.1,1.029c-2.769.849-3.635,2.565-5.89-1.211s-3.454-5.3-3.454-10.452,1.724-8.4,1.9-13.025-.529-4.121,1.206-5.148,2.607-1.714,2.607-3.426-.869-2.054-.167-3.774.521-2.913,1.561-2.913,2.082.509,3.281,0a17.837,17.837,0,0,0,4.332-3.26c1.216-1.2,3.465-2.226,3.816-3.771s.692-1.54,3.463-1.711a32.7,32.7,0,0,1,7.109.171c2.6.338,5.017.684,6.059.338s-.862-2.39,2.951-1.714,4.847,1.034,5.016.513-.516-1.546.706-1.888c1.2-.344,1.2-.847,2.585-.344,1.391.523,2.949-.163,3.124,1.042.179,1.189-.176,2.216,1.221,2.736a4.379,4.379,0,0,0,2.584.517c1.569,0,.534.514,1.569,0s2.252-1.037,2.427.68.52.347,1.043,3.43-.7,2.408,0,4.8a15.082,15.082,0,0,1,.863,4.284c0,1.035.865,1.717,1.734,2.4s0,.855.864,1.723c.865.846,2.076,1.191,2.419.341s0-2.578.876-3.09a3.241,3.241,0,0,0,1.552-2.747,12.768,12.768,0,0,0-.354-4.972c-.688-2.053-1.727-1.709-1.727-3.249s.528-1.719.528-2.752-1.741-3.249-.528-4.623,1.392-3.946,3.47-6,5.717-3.26,7.442-4.808,0-3.078,2.092-3.933c2.071-.865,2.767-1.548,4.326-1.724s1.565-1.536,1.907-2.57a2.858,2.858,0,0,1,2.763-1.886c1.395,0,2.433.346,3.121-1.2.705-1.549-1.374-4.453.353-6.519,1.732-2.044-.516-4.457.69-4.968s5.022-.343,5.722-1.206,1.732-3.078,2.414-3.763c.7-.688,1.224.512,2.606-1.545s.35-3.254,2.264-4.108a27.03,27.03,0,0,1,7.786-1.552c1.565,0,2.086,1.722,3.127,0a32.929,32.929,0,0,0,1.9-4.627c.689-1.54.689-4.975,3.471-4.975s2.774,0,3.288-.848c.515-.87.345-1.545,1.381-1.718s3.466.173,4.34-.169,1.2-1.035,1.9-2.407-.353-.684.686-1.371,2.257-.166,3.122-.346c.87-.156,1.911-2.909,2.94-2.909,1.048,0,2.427-.513,2.607,1.025s-1.38,2.568-2.607,3.439c-1.2.849-.166-1.209-1.2.849s-2.6,1.545-2.082,2.917.517,2.058,2.082,2.4,2.249-.688,3.287-1.9c1.04-1.189.521-2.565,2.254-2.736s2.941-.171,3.98-.34,4.164-.346,4.509-1.032,1.738-2.743-.345-2.743-5.027-.345-5.027-.858.863-.34-.343-2.053c-1.223-1.71-1.56-2.232-.867-3.258s.867-3.429,1.724-4.8,1.223-2.741-1.9-3.089-3.463-1.2-5.192-.683-3.818-.521-4.855,1.371-.175,1.711-2.426,2.4a22.921,22.921,0,0,1-3.638,1.026c-.522,0-1.9-.685-.522-1.366s1.209-1.032,2.946-2.06,4.334-3.262,6.416-3.769,2.765-.175,4.326-.7c1.563-.506.173-2.221,3.121-2.389a38.909,38.909,0,0,1,6.413.168c2.6.176,4.151-1.2,5.2.176,1.033,1.375,0,2.224,2.244,2.394s3.819-.682,5.717-1.019,3.3-.177,3.994-1.031c.681-.863,1.2-.687,1.55-2.058s-.346-2.582.873-2.582a41.114,41.114,0,0,0,4.5-.165c1.215-.18,2.251-.342,2.949-1.719s1.029-3.075,1.38-3.6,2.081-1.541.352-2.571-1.912-1.714-3.292-2.911-.7-2.241-1.9-3.428c-1.217-1.2-2.606-1.378-2.943-2.408s-2.953-4.786-2.786-6.853c.178-2.051.7-1.887,0-3.605-.681-1.708-1.38-2.056-1.38-2.9,0-.867.342-2.58-1.56-2.066s-2.6-.853-3.633,1.385c-1.042,2.213-.529,2.394-1.572,3.075s-2.247-.681-3.98.345-4.675,2.577-4.675.337-.355-2.574,0-3.427a13.726,13.726,0,0,0,.685-3.94c0-1.2.706-1.718-.685-2.4a10.168,10.168,0,0,1-2.421-1.716s.34-1.884-2.083-1.884-2.6,1.539-4.854,1.021-1.384-1.021-3.814-1.365-2.257-1.2-3.643-.339-2.416-.353-2.586,2.4,1.727,3.768-.7,4.284-2.951-.174-3.121,1.372.873,2.571-.516,3.42c-1.4.869-3.123.346-3.817,1.211a2.766,2.766,0,0,0-.862,2.391c0,1.379.692,1.041.347,2.577a5.9,5.9,0,0,1-1.042,2.916c-.865,1.375-2.245,2.221-3.637,3.431s-2.595,1.708-3.981,2.742-1.562-.346-2.954,2.22c-1.382,2.583-2.765,5.665-2.765,5.665a15.719,15.719,0,0,1-1.731,5.144c-1.39,2.394-3.3,1.2-4.163,2.394s-.515,2.746-2.431,1.376c-1.9-1.376-3.636-1.2-3.46-3.084s-.693-3.089.35-4.64-1.043,0,1.038-1.537,1.9-1.539,2.6-3.084,1.032-1.878.69-2.573-.177-.854-2.956-.854-2.767.516-3.8-.165a27.424,27.424,0,0,1-3.645-3.946,6.157,6.157,0,0,0-3.113-2.058c-1.747-.687-1.217.506-3.3-1.376s-.689-3.257-2.953-2.225c-2.248,1.017-3.466,3.26-4.323,1.2s-2.084-4.8-1.734-5.487-.35-.689-.528-2.4,0-1.545,1.219-2.742-2.776-.345,3.3-3.785c6.061-3.419,7.454-4.267,9.184-5.3s1.387-1.886,3.807-2.572a25.007,25.007,0,0,1,5.88-1.2c1.4,0,4.691-3.776,6.078-4.293a20.762,20.762,0,0,1,5.537-.85,4.52,4.52,0,0,0,3.472-1.717c.87-1.031.171-2.4.87-2.565a15.773,15.773,0,0,0,2.59-.688c.691-.346,1.217-1.544,1.738-1.544s1.551-.346,2.417-.346,6.589-.169,8.321,0a5,5,0,0,0,4.674-2.233c.879-1.533-.512-2.911,1.386-3.763s2.78-.861,3.472-2.4,4.15-1.889.521-2.752c-3.644-.849-4.332-1.7-5.891-.849s-2.075-.174-3.817,1.711-2.769,2.047-5.017,3.6-1.04,1.376-3.12,1.542-2.429-2.06-3.467-2.915-1.39-.338-2.079-1.543-2.249-1.2-1.387-2.226a13.4,13.4,0,0,1,.871-1.025c1.2-1.374,2.768-2.241,1.378-2.917-1.378-.7-.862-3.43-3.636-2.066s-3.813.864-4.68,2.233-1.207,1.2-1.9,2.4-.872,1.536-.7,3.6.862,3.426-.351,3.775-2.594-1.2-3.81.34-.518,1.881-3.807,1.881-3.988-1.025-5.725-1.2a42.907,42.907,0,0,0-5.2.343c-1.039,0-2.242-.507-3.116,0A38.529,38.529,0,0,1,1449.386,767.754Z" transform="translate(-1248.147 -715.288)" fill="#f1f1f1"/><path d="M1463.6,758.744c2.086-.343,4.155-.17,5.372-1.886s.35-1.192.688-3.085c.353-1.877-.338-2.4,1.043-3.6s1.041-4.625,0-4.963-1.206.338-3.126,1.02c-1.891.689-.156.86-3.8,1.2s-3.809.513-6.409-.169-4.161-2.229-6.407-1.89a5.165,5.165,0,0,1-3.646-.68s-.166-1.546-4.16-1.891-3.464-2.052-7.445-.856-7.448.518-9,2.23-2.612,1.89-4.51,2.913-5.716,1.2-3.116,2.4,2.767,2.058,6.583,1.881,3.28-1.711,6.234-2.059,4.851-1.191,5.892-.5,2.6,1.706.864,2.737-2.771,1.877-.694,2.574c2.081.676,4.334.676,4.679,1.543.348.848,1.391,1.536-.865,1.715s-6.064-1.026-6.241,0,1.038,2.225,2.947,2.909.7,1.2,5.2.685,5.2-1.369,7.088-1.369c1.913,0,4.86.511,6.944.685S1463.6,758.744,1463.6,758.744Z" transform="translate(-1259.368 -714.571)" fill="#f1f1f1"/><path d="M1526.461,745.53s.529-2.06-.862-1.541-2.074.52-2.766,1.716-1.038,1.371-2.776,2.23-2.086-.346-2.6,1.713-2.949,2.058-2.6,2.906-.346,1.206,2.6,1.726,3.81,0,6.575.676,2.261.69,5.89,1.555c3.656.847,4.517-.346,7.636.686s4.337-.686,5.548,1.7c1.208,2.409,1.032,3.256,3.1,4.632s1.053,2.229-.159,3.6-3.818.863-4.687,2.57-1.039,2.57-2.59,3.262-3.3.513-4.684.686-.7-.856-3.641.686-4.156,1.891-2.251,2.74,4.333,1.026,5.549,1.374,4.317-.176,4.851,1.715a6.842,6.842,0,0,0,2.078,3.769c1.388,1.544,2.595,1.7,4.33,2.581,1.732.844,4.156,2.392,4.5.685s-.869-2.4-.345-4.3c.525-1.882.525-2.565,1.567-2.056s.861,1.708,2.079,2.056,2.423.527,4.845-.686c2.425-1.2,2.251-2.555,2.077-3.939-.172-1.367.348-1.883-.864-2.911s-2.434-.861-1.39-2.737-.866-2.924,1.735-2.924,3.634-1.2,4.332.691-.7,2.4,1.209,2.914,2.949,1.194,3.3.169-.356-1.375,1.212-2.059c1.549-.68,2.585-.863,3.11-2.228s2.257-3.431-.695-3.944a28.864,28.864,0,0,1-6.068-1.716c-1.893-.687-3.627.69-3.282-2.058s-.7-2.057.344-2.743,3.815.351,2.26-1.716-1.394-3.255-4.163-4.279-3.46-.684-4.857-1.541a10.005,10.005,0,0,1-2.427-1.891c-.858-.859-1.211-1.883-2.949-1.541s-2.246,1.372-4.491,1.541a5.8,5.8,0,0,1-3.818-.676c-.518-.347-.34-2.922-2.609-2.922-2.251,0-2.415-.338-4.149.166s-3.125-.856-4.331.516c-1.224,1.376-2.258,1.376-2.774,2.408s-.515,2.226-1.913,1.714a13.459,13.459,0,0,1-2.765-1.539s.338-1.893,1.044-1.893C1525.428,747.076,1526.461,745.53,1526.461,745.53Z" transform="translate(-1265.744 -714.727)" fill="#f1f1f1"/><path d="M1553.8,734.047c-1.738,0-6.411-.7-7.447-.522s-2.768.522-3.638.682c-.869.175-4.858.175-4.858-.856s-.516-1.018,1.909-1.876,2.6-1.031,4.334-1.031,5.376.171,7.274-.519,2.425-2.4,4.158-3.084a16.353,16.353,0,0,0,3.64-1.882,8.746,8.746,0,0,0,1.559-2.4,18.875,18.875,0,0,0-2.78-1.369c-1.033-.35-2.583-.87-1.379-1.89a5.019,5.019,0,0,1,3.461-1.372c1.216,0,4.861.516,5.9.344s.526-1.374,2.6-1.716,2.262-1.544,5.372-1.208,1.391-.848,7.106.865,6.586,1.715,7.969,1.377a21.6,21.6,0,0,1,3.292-.86c1.384-.174,3.645-.516,5.891-.863s6.762.517,5.021,1.723c-1.726,1.183-1.375,2.566-5.021,2.73-3.63.171-6.061-.681-8.316,1.208s-2.594,2.229-7.454,2.909-7.1.347-9.182,1.036-3.808.688-5.368,2.223-3.291,1.887-4.854,2.408-4.148.512-4.5,1.195a8.184,8.184,0,0,1-.865,1.545C1556.75,734.207,1553.8,734.047,1553.8,734.047Z" transform="translate(-1267.26 -712.837)" fill="#f1f1f1"/><path d="M1531.919,726.255c.568-.992,1.2-2.569,2.947-2.913,1.729-.339,1.9-.69,3.113-.69s1.386-.85,2.08-1.188-.342-2.063,1.214-2.063,3.642.513,3.813,1.029a1.974,1.974,0,0,0,1.215,1.712c1.2.691-.687,0,1.2.691,1.911.686,3.817.854,2.253,2.061a7.079,7.079,0,0,1-4.142,1.877c-1.744.176-.872-.516-3.478,0s-2.77.176-4.326.519-1.215.679-2.774.679S1531.035,727.8,1531.919,726.255Z" transform="translate(-1266.859 -713.11)" fill="#f1f1f1"/><path d="M1617.694,719.124c-1.737.181-5.72-.343-6.931.861s-2.256.852-3.994,1.712-3.459,0-4.493,1.545.859,1.89-2.608,2.568-2.778,0-5.9.859-4.489.347-6.055,1.2-3.116-.858-4.16.858-2.77,3.078-1.21,4.28.87,1.2,5.717,1.722a54.563,54.563,0,0,0,10.744,0,6.721,6.721,0,0,1,4.327,1.021,9.089,9.089,0,0,1,2.77,2.913,1.762,1.762,0,0,1,1.911,1.373c.344,1.546-1.741,2.911-.869,4.283s1.213,2.748,2.773,3.262,2.429-.854,2.771.86,2.6.687,1.732,3.6-1.91,2.408-2.766,3.093c-.881.681-2.434.855-1.052,2.22s2.254,1.207,1.393,2.739c-.865,1.55-4.5,1.55-5.2,2.066s-3.815,2.4-3.989,5.658.174,3.6.867,6-1.035,2.742-1.2,3.781c-.177,1.017.336,1.358.51,3.423s-1.036,2.738.175,4.117c1.214,1.363.349,1.876,2.765,2.386,2.435.518,4.34-1.195,6.073.688s.861,2.4,2.253,2.91,0,.353,2.6.7c2.586.343,2.772,1.027,4.323-.859s1.565-3.084,2.606-4.794.341-3.43,2.416-4.46,4.852.167,6.415-2.06a17.218,17.218,0,0,0,2.43-4.63c.856-2.061.354-2.4,2.6-2.74s3.636,0,4.846-.858.343-1.717,2.959-1.885c2.58-.174,4.145.51,6.058-.692s4.151-1.711,6.06-3.085,2.42-3.763,3.64-4.284c1.211-.506,2.6-.34,5.716-.34s3.642.171,5.543-.682,3.29-.7,5.028-1.89,1.733-1.538,4.154-1.538,2.779-.7,3.129-1.544c.347-.867.513-2.062-1.729-2.922-2.263-.856-4.343-2.91-1.4-2.22s3.129.158,3.812.846a4.033,4.033,0,0,0,2.082,1.374c.866.177,2.255,0,2.425-.687s2.087-1.718-.344-2.909-2.949-1.886-3.632-2.051c-.7-.175-2.257,0-1.213-1.207a5.147,5.147,0,0,1,2.426-1.538s.517-1.21,4.666-1.21c4.165,0,5.719.177,6.422-1.544s-.177-1.882.689-2.911a2.72,2.72,0,0,0,.864-2.742c-.168-1.374-3.12-.342-.168-1.374s3.8-1.028,4.152-1.543,1.907-.848.7-1.718c-1.215-.848-.175-.163-1.215-.848s-1.741-1.712-1.044-2.4,3.123-1.029,5.023-2.236c1.909-1.189,1.909-2.4,3.464-2.741s1.038-.69,3.125-.853,4.318-.516,5.378-.516c1.032,0,2.763.169,1.554-1.036-1.223-1.187-.177-2.219-3.117-2.391s-3.642-.174-6.079-.174c-2.416,0-4.5-.859-6.225-1.031s-2.257-1.2-3.3-1.719-5.711-3.085-8.826-2.395-3.468-.17-8.837.343-9.529-.172-13.34.857a84.265,84.265,0,0,1-12.138,1.889c-3.29.34-2.591-.695-8.305.17a41.676,41.676,0,0,1-11.615-.17s-5.025,1.024-9.007,1.885c-3.99.845-4.331,1.367-6.936,1.024A15.522,15.522,0,0,0,1617.694,719.124Z" transform="translate(-1270.158 -712.666)" fill="#f1f1f1"/><path d="M1692.111,780.186c-.7-1.366-2.256-4.8-1.052-5.48s-1.38-.522,1.217-.692,2.43,1.887,4.333,2.233,1.731-.518,2.246-1.027c.534-.514-1.381-1.716,1.744-1.716s2.938-.512,5.2,0c2.242.51,3.111.856,3.979.168s-1.9-1.03.866-.68,2.616.68,3.3,1.714c.695,1.023,4.506-.346,2.424,2.048s-1.9,2.75-4.33,2.914-3.991-.511-5.022,0-1.211,1.033-2.264,1.374c-1.034.344-1.894-1.028-2.584.528-.705,1.534.689,2.73-2.084,2.219s-3.984-2.06-4.512-2.06-.687.516-1.729,0A5.074,5.074,0,0,1,1692.111,780.186Z" transform="translate(-1277.344 -716.638)" fill="#f1f1f1"/><path d="M1510.662,1026.552c-2.09-1.376-6.7-2.741-7.388-3.877s-3.7-5.273-3.7-5.273a6.081,6.081,0,0,0-4.845-.909c-2.778.685,1.847,1.367-3.7,1.6s-7.168,1.147-7.383,0c-.235-1.154.687-2.286-1.856-2.286h-5.771a25.656,25.656,0,0,1-4.163,0c-1.156-.228-1.156-.679-2.316-.458s-1.849,1.149-3.234.683a4.043,4.043,0,0,1-2.082-2.05s1.171-2.284-2.3-.684-4.4.684-5.78,2.509a17.777,17.777,0,0,0-3.008,5.944,15.221,15.221,0,0,1-1.851,3.886c-.454.915-2.776,2.963-3.691,5.02s-1.39,2.746-.694,5.031-1.157,4.587-.466,5.722-.23,4.342-1.608,6.4-2.09,2.288-3.475,4.811c-1.391,2.508-.914,2.046-1.608,4.331s-3,3.208-3.7,4.576a6.019,6.019,0,0,0-.238,3.419s-2.773,5.722-1.38,8.469,2.318,3.43,2.542,5.028,2.3.684.229,1.594-3.459-.91-4.393,0-2.533,1.612-1.158,3.205,1.4,6.4,3.937,9.134,4.613,4.121,5.768,6.645c1.168,2.508.7,2.508,3.7,5.252s9.47,12.571,11.319,18.047c1.857,5.5,2.55,7.326,6.471,8.455,3.928,1.151,4.16.237,6.929,2.312,2.776,2.05,8.545,10.96,8.777,13.7.231,2.755,0,6.169.231,12.336.239,6.188-1.386,8.932-.231,12.809,1.152,3.893-.687,3.423,1.152,7.087s1.625,5.493,1.625,10.516-.235,6.18.692,6.858-.456,9.608-.687,13.949-.927,7.078-.464,11.652-1.612,9.145.231,11.893,2.091,4.1,4.389,4.8,2.775-.46,3.238,1.613c.461,2.04,6.234,16.9,6.234,21.014s1.393,6.4,3,9.366c1.623,2.969,5.557,2.521,5.325,5.722s-2.777,4.566.462,5.934a16.148,16.148,0,0,0,6.926,1.378c1.388,0,1.155-1.825,3.244-1.148,2.07.7,2.762,2.516,3.462,3.441.691.908.923.232,3.694.908s5.541,1.6,6.93.921,1.608-1.135,1.608-2.524c0-1.369,1.394-1.367-1.143-2.509s-2.087-1.824-4.626-2.753c-2.545-.908-1.386,2.064-2.545-.908s-3-6.391-3-7.543-1.152-2.05-.232-3.2,1.848-1.6,2.774-3.88,1.39-5.264.7-5.489a10.538,10.538,0,0,1-4.862-1.831c-2.075-1.6-4.4-3.434-3.234-5.032s1.158-2.968,2.541-3.423,1.148,1.143,1.612-1.6.471-1.379.471-2.752-.935-2.739-.471-3.884.466-2.287-.69-2.743-3.463.235-2.54-2.278-1.147-1.61.931-2.524,3.464-.453,3.928.239,1.608,2.051,3.228.452,1.851-2.973,1.159-4.117a9.165,9.165,0,0,1-.927-2.957s1.154-1.154,2.08-1.154h4.393s4.854-1.837,4.854-3.43.912-1.828.912-3.433.465-1.83-.22-3.2-.468-1.144-.691-3.2-1.162-2.519-.694-3.2,4.614-1.6,5.543-1.6.916-.231,2.306-.913,5.546-3.208,5.775-4.347,0-2.058.466-2.741a9.417,9.417,0,0,1,1.607-2.511,11.376,11.376,0,0,0,2.081-3.191c.463-.923,1.389-7.329,1.389-7.329s3.931-2.041,5.314-4.56.456-5.263.23-8.466-2.314-3.66-.23-6.86.23-3.427,3.695-5.484,3.239-2.75,6.246-2.75,8.539,0,9.692-.914,5.548-6.164,5.085-9.822-.226-3.2,1.62-8.008c1.851-4.789,2.3-5.7,2.538-7.766a31.7,31.7,0,0,0,.232-5.03c0-2.739-1.844-2.283-.69-5.261a41.785,41.785,0,0,1,3-5.943,51.016,51.016,0,0,0,5.088-7.991c1.383-3.2,4.4-6.866,4.623-8.235s1.612.462,1.612-4.346c0-4.789-.69-6.169-.69-7.31s.449-1.822-1.856-3.893c-2.306-2.042-3.689-2.506-6.233-4.11s-5.086-5.018-7.858-5.47c-2.773-.477-1.849-1.158-6.241-.925-4.374.22-.45,2.06-5.763.22s-4.859-2.737-6.929-4.332-1.849-2.976-5.544-3.433-4.629-.909-6.711-.693c-2.078.242-2.771.472-4.379-1.828-1.622-2.277-2.555-3.882-2.555-3.882s-.451-6.406-2.764-10.514a24.645,24.645,0,0,0-8.783-8.456c-1.611-.687-1.611-.229-4.625-2.28-3-2.065-6.7-2.754-7.852-2.521s-.453.456-3.689.456-5.318-2.747-5.318-4.344a31.317,31.317,0,0,1,.236-3.422Z" transform="translate(-1260.22 -732.466)" fill="#f1f1f1"/><path d="M2104.539,987.837c.454-.911-.239-2.287,1.845-1.6s4.154,1.14,4.607,2.753c.466,1.6,2.326,1.134,3.467,3.427,1.164,2.282.232,3.877,1.856,4.8s3.461,1.15,3.922,2.054,3,2.522,3,4.118.012,2.514,1.629,2.514.921-2.753,2.992-2.753c2.092,0,3.01-2.057,3.931-2.516a12.666,12.666,0,0,0,3.234-2.733c.457-.685,2.091-3.431,2.091-4.117s.221-4.81-.926-7.092c-1.165-2.282-2.316-4.575-2.316-6.858,0,0-.44-2.445-.737-3.305-.293-.88-1.021-1.316-1.448-2.474a4.081,4.081,0,0,0-1.168-1.752c-.582-.726-2.034-1.6-2.329-2.9s-.861-1.747-1.592-2.91-2.052-1.6-2.9-2.47c-.876-.871-.445-2.481-.445-4.219s.876-.862,1.894-1.452c1.017-.574,0-.732-.444-1.6s-.073-3.879-.073-3.879c.7-1.6-.238-2.061,2.085-2.061,2.307,0,3.915-.682,5.077,0a7.053,7.053,0,0,0,3.234,1.376c2.091.452,3.471,1.139,4.855-.465s1.391-2.052,4.163-2.969,5.546-1.139,8.553-2.741a68.212,68.212,0,0,0,7.381-4.578c2.321-1.595,3.232-1.821,4.861-5.024,1.612-3.205.676-5.49,1.846-8.224a40.783,40.783,0,0,0,1.841-8.005s.235-1.371-1.146-3.655-2.325-2.74-1.849-4.582c.457-1.826.911-1.138.686-3.189s-5.542-4.794-6-7.093c-.458-2.28-.694-4.8-3-5.944s-4.384-.459-4.384-2.053-.936-3.192.918-3.192,2.99.9,3.466-.458-.458-2.972.463-2.972,1.608-2.294-.236-2.294-2.309-.461-3,0-.69.917-1.84.917-2.767,0-3.24-.688a26.339,26.339,0,0,0-3.463-2.734s-4.165.672-4.393-2.754,0-3.419,1.855-3.883,1.842.233,2.993-1.148,2.773-3.422,2.773-3.422,2.076-.913,2.542.226c.461,1.155-.224,3.887,1.849,4.117a10.712,10.712,0,0,0,3.7-.231s1.843-.459,3.241-.69c1.374-.23,2.3.69,4.157,1.606,1.84.912,2.768.006,3.232,1.6s-2.312,1.138.917,3.2,4.174,1.38,4.4,2.289,1.144.911,1.38,2.97-1.38,2.064.691,3.892,2.78,2.511,3.24,3.418-.689,1.825,1.143,2.977c1.855,1.138,2.092,1.138,3.469.686s2.088-.686,3.466-1.145a2.555,2.555,0,0,0,1.856-2.976c-.234-1.365-1.156-4.334-2.546-5.252s-1.385.234-2.776-2.058.239-1.6-2.539-4.345c-2.763-2.747-3.687-2.281-4.394-3.2-.685-.913-2.991-1.822-1.839-3.658s.926-2.507,2.078-3.2,2.306,0,2.543-2.507c.238-2.525-1.156-3.661-.923-4.582s.461-2.056,1.6-2.056a30.7,30.7,0,0,0,3.709-.457s3.227.911,4.617.457,2.081-2.286,2.534-3.879-.454-2.97.708-4.352,1.839-1.822,2.3-5.251a25.494,25.494,0,0,0,0-6.171c0-1.148.472-3.432,0-5.032s-1.832-2.742-2.765-4.121-2.084-1.821-3.008-4.11-4.161-5.711-4.161-5.711-2.759-2.057-4.149-3.208a7.006,7.006,0,0,0-4.392-1.6,22.19,22.19,0,0,1-3.943,0c-1.614-.217-1.837-1.128-3.457-2.281s-2.312-2.054-3.694-2.054a21.025,21.025,0,0,0-3.7,0c-1.6.227.477-3.653,1.387-5.486.925-1.829.925-2.286,2.087-6.171s.686-3.669,2.766-5.264,2.309-2.275,4.39-2.275,6.932,0,10.383-.246c3.479-.22,4.869-1.357,7.4-.674,2.55.674,4.611,1.142,5.078,2.048s1.856,1.374,3.462,1.148,3.466-.23,3.711-1.828c.22-1.589-.469-2.286-.693-3.426s-.69-2.057-.47-2.973.231-2.51,1.848-2.744,4.621-.456,5.31-.456.7-1.143,1.859.456,1.144,1.833,2.545,1.833c1.385,0,1.616.457,2.3,0s.93-2.97.93-2.97-1.843-1.608.691-1.608c2.55,0,3.466-.906,4.152,1.16.7,2.043.467,2.267.93,3.636s2.308.693,1.845,2.3-.919,1.141-1.6,2.744c-.7,1.6-1.393,2.062-1.393,2.974s.454,1.131.222,2.273-1.6,1.612-1.838,2.295a17.488,17.488,0,0,0-.7,3.663,6.024,6.024,0,0,0,2.083,5.7c2.074,2.063,4.615,3.885,5.309,5.488s3,2.506,3,4.121-.919,1.829,1.393,2.969,2.542.911,3.692,2.281,3.223,2.283,3.69,2.971,2.09.694,3.017-.228c.91-.919.91-1.837.229-3.649-.7-1.829-1.155-1.375-1.155-2.744a15.331,15.331,0,0,1,.46-3.2c.225-1.381-.46-1.612.225-2.978s2.077-2.748,0-5.032-3.927-1.375-4.159-3.423-.229-2.745-.692-3.652.924-1.621-1.158-1.838-2.993.231-3.457-.454-1.381-.683-1.158-2.746-.458-4.795.228-5.252c.7-.458.239-.458,1.625-.689s-1.625-.23,1.372-.23a26.179,26.179,0,0,1,5.1.46s-.7-1.826,1.384-.914l2.063.914s3.942.224,5.093-1.147,3.242-3.661,3.242-3.661a20.571,20.571,0,0,1,3.112-4.341c1.729-1.716.339-3.771.339-5.144s0-1.715-1.729-2.4-2.084-1.031-4.165-1.719-.352,2.4-2.087-.683l-1.715-3.082s1.037-2.065,2.762-1.375c1.741.691-.685,0,1.741.691a10.377,10.377,0,0,0,4.146.684c1.742,0-1.027.683,1.742,0a31.449,31.449,0,0,0,5.546-2.065l2.083-1.366,1.383-2.058a6.5,6.5,0,0,0-2.782-2.4c-1.731-.684-4.146-1.036-7.972-1.382s-3.812-.336-6.244-.678c-2.405-.352-4.829-2.05-6.223-2.4s-5.9-2.057-8.67-2.057-2.081-.337-5.885-.337-3.117-.344-5.888,0-2.08-.344-6.927.337-5.9,2.411-5.9,2.411-.349,1.019-3.458,1.019a70.632,70.632,0,0,1-9.712-.684c-1.739-.335-6.926-.689-6.926-.689s-6.242,2.052-11.092.354c-4.859-1.723-6.589-3.783-12.125-4.125s-6.929-.676-11.091-.676a40.764,40.764,0,0,1-7.622-.7c-2.781-.341-4.163-2.733-6.935-2.733s-.355-.342-5.535-.342c-5.211,0-4.509.342-7.982-.346s-3.467-2.4-6.582-1.719a44.014,44.014,0,0,0-5.547,1.374c-2.072.69-7.279,2.386-9.358,3.085-2.078.68-5.183-.349-6.234-.349-1.036,0,1.051,2.062-2.426,2.4s-4.5,1.378-6.6-.34c-2.068-1.713-2.414-3.766-4.83-5.146-2.431-1.368-3.468-2.05-7.287-2.05s-3.117.342-6.936,0a44.966,44.966,0,0,1-7.621-1.038c-3.122-.678-3.122-1.016-5.534-1.016-2.429,0-4.858-1.378-8.673-1.033a61.467,61.467,0,0,1-6.24.338c-1.034,0-1.034-1.023-3.113,0s-2.432,2.4-5.542,2.4h-3.132s-3.11-2.742-.677-3.427,3.112-1.027,3.453-3.093c.356-2.05.356-3.759-1.033-4.112a60.168,60.168,0,0,0-9.357-1.369h-6.241c-4.852,0-10.039,1.023-14.547.684s-5.544-.684-8.671.686-4.153,1.717-7.263,1.717c-3.138,0-4.173-.343-6.251.346s-3.806,4.116-3.806,4.116a54.125,54.125,0,0,1-6.589.683c-2.424,0-7.279-1.029-7.279.344s-1.037,1.718.7,4.453.695,3.09-.7,3.09-4.5-.342-4.5-.342-3.124-2.056-4.508-1.716-3.12,1.374-2.766,2.738c.337,1.369,0,2.407,1.727,4.461s4.165,1.718,4.165,3.083v3.775c0,1.37-2.086,4.8-3.461,5.143-1.4.341-5.9,3.769-7.976.341s-2.781-4.453-1.39-6.866c1.39-2.393,4.5-.336,1.39-4.452s-1.735-1.368-3.122-4.116,0-5.48-1.386-5.48-5.895-3.091-7.625-1.033-2.071,2.405-2.437,4.121c-.336,1.7-2.071,4.449,1.4,6.164s2.763,2.067,5.189,3.086,1.736-1.019,2.432,1.031,3.464,3.431-2.087,3.431c-5.535,0-12.818-.689-15.586-2.406s-8.663-2.739-11.446-1.709c-2.768,1.026-2.074,2.4-7.959,2.745s-8.67.34-10.046.34c-1.394,0-1.394.69-4.176,2.4-2.761,1.72-6.572,2.747-8.311,1.72s-.691-2.743-3.127-3.086c-2.418-.34-1.04-3.431-2.418-.34a10.807,10.807,0,0,0-.679,6.173s2.057,1.708-.361,2.74-4.858,1.368-6.588,2.058-3.806-1.714-5.534.34-7.978,3.089-7.978,2.061-3.461-6.174-3.461-6.174-1.387-3.423,2.087-3.423h9a2.8,2.8,0,0,0,2.427-1.713,6.231,6.231,0,0,0-4.855-3.773c-3.808-.7-5.2-.7-6.575-1.379-1.4-.685-5.208-1.369-8.323-1.715s-8.658-2.4-9.7-3.427,2.079-2.748-5.2-2.748a127.683,127.683,0,0,0-14.909,1.038s-6.582,4.1-10.39,6.167-4.16-1.03-6.942,4.115-2.068,5.833-4.493,8.572-3.126,3.774-4.507,4.112a70.913,70.913,0,0,0-12.823,6.858c-3.808,2.75-2.772,3.43-4.507,4.457s.342,4.8-1.039,7.883-5.2,4.464-.695,5.489a28.913,28.913,0,0,0,7.979,1.026c2.068,0,2.068-1.366,3.12-2.052,1.034-.693,2.423-2.749,3.806-3.1s2.776-1.031,3.806-.333c1.047.68,1.047.68,1.733,2.4s0,3.085,1.735,3.772a8.368,8.368,0,0,1,3.115,2.739s-2.763,2.743-.343,3.089,3.111,1.027,4.507.339-1.039.345,1.386-.685,1.381,2.749,2.431-1.028c1.03-3.763-.7-5.474.695-6.507,1.38-1.028-1.4.684,1.38-1.028s3.8-3.432,3.8-5.142,1.041-2.4-.342-3.434-.346,1.031-1.388-1.028-1.721-3.763-.688-5.484a7,7,0,0,1,4.848-3.771c2.781-.689,3.81-.689,4.167-2.4s-.692-3.429.348-3.775,1.728-1.371,3.453-1.371c1.745,0,3.82-.683,4.507.342s2.083.689.694,2.744.705-.338-1.38,2.06a22.5,22.5,0,0,0-3.82,5.49,16.077,16.077,0,0,0-.335,3.43l3.46,3.077a6.631,6.631,0,0,0,3.464,1.374c1.738,0,2.771.344,4.161,0a14.66,14.66,0,0,1,5.894-.687c2.42.345,2.778-2.4,2.42.345s5.2,1.029-.343,2.752c-5.555,1.7-5.888,2.048-8.667,2.048s-5.2-.69-6.591.679a7.306,7.306,0,0,0-2.414,5.147c0,2.059-.693,2.395-.693,4.113s1.389,3.429-.356,4.462a16.066,16.066,0,0,1-5.531,2.4c-2.091.33-4.511,0-5.889.683a16.028,16.028,0,0,1-4.857,2.05c-2.083.347-3.128,1.035-6.247-.335s1.741-1.715-3.116-1.375a24.6,24.6,0,0,0-7.276,1.375s-3.463.335-4.857.682c-1.379.334-2.077-.347-4.5,1.039a9.54,9.54,0,0,0-3.813,3.763c-.7,1.037-2.071.695-3.117,1.373s-3.117,1.72-3.463,2.743-.353,2.061-2.778,3.776-3.117.343-5.2,2.739-2.425,3.082-4.5,3.428-2.776-1.027-3.811.347,1.391,0-1.041,1.367.342,1.368-2.423,1.368-3.469-.337-4.516-.337c-1.029,0-2.76-1.376-2.76,0s-1.037-1.376,0,1.368-.348,3.43,2.76,4.46c3.132,1.026,7.281,2.4,7.281,2.4s-1.613,9.489-2.537,11.771c-.918,2.3-.92,4.346-4.156,4.346s-6.7.225-6.7.225a11.792,11.792,0,0,0-5.3-1.142c-3.247,0-4.859-1.367-6.012-.218s-2.533.445-3,3.423-.7,3.2-.47,5.482c.232,2.3,1.162.92.232,3.656-.923,2.753-1.839,4.576-1.839,6.176s-.695,2.047,0,3.193.685,1.38,2.532,1.607a22.793,22.793,0,0,1,5.787,1.6,8.37,8.37,0,0,0,2.532,1.38c1.392.457,1.616,1.371,3.923.676a43.684,43.684,0,0,1,4.387-1.359c1.4-.238,3.249.9,5.326-.238s2.078-.675,3.461-3.193,1.15-3.21,3.232-5.953,3-3.43,3.7-4.343-.232-.918,2.315-2.519a19.682,19.682,0,0,0,4.146-3.189c.922-.921.466-2.289.922-3.669.475-1.368-.456-1.822,1.627-2.511s2.3-1.6,4.148-1.6,4.63.232,4.63.232a14.068,14.068,0,0,0,5.314-.232c2.778-.683,3.7-1.141,4.616-1.366.931-.226,3.694,0,4.39.912a6.236,6.236,0,0,1,1.4,2.514c.68,1.831.915,1.6,2.307,2.962a43.941,43.941,0,0,0,4.851,4.35c1.841,1.374,3,.922,3.468,2.06a14.331,14.331,0,0,0,2.069,3.2c1.162,1.606.7,1.835,1.389,3.432s1.609,2.736,3,2.511,1.846-.219,1.846-2.054-.458-.458,0-1.823.929-1.145,1.628-2.515,2.291-2.058.9-2.973c-1.371-.92-.685-1.151-3.218-1.6-2.556-.455-3.472-.234-5.555-2.526-2.069-2.276-2.768-4.565-4.846-5.482s-3.472-1.14-4.4-2.281a5.138,5.138,0,0,1-.917-4.346c.46-1.152,2.308-.686,3.233-1.365s1.384-2.294,3.925-1.147,4.4.685,5.316,2.279,2.08,2.3,4.626,3.669,3.22,2.508,5.54,4.333,3.474,2.063,3.69,4.8c.245,2.745,1.153,3.891,1.864,5.717a15.079,15.079,0,0,0,2.073,4.354c1.152,1.6,1.847,2.047,2.073,3.421s-.695,2.973.7,3.885,1.151.458,2.775,1.141,1.849-.912,2.319-1.592a5.509,5.509,0,0,0,1.15-3.9v-3.877c0-1.145-1.389-2.978,1.374-4.107,2.784-1.155,4.861-2.3,6.943-2.3s3.456,1.376,4.617-.449a8.521,8.521,0,0,0,1.151-4.815c0-1.131-2.079-4.563-.466-5.7s3.474-1.368,4.869-3.206c1.37-1.826,0-3.652,2.077-4.567s3.455-1.609,4.145-1.833a25.846,25.846,0,0,1,4.16-.454c.7,0,2.084,1.836,2.313,2.977s0,2.738,1.854,2.738.693.47,1.854,0c1.143-.456,1.372-2.738,1.372-3.427s-.691.23,0-.681,1.852-.7,3.234-1.153,2.324-.229,3.483-1.59a28.478,28.478,0,0,0,2.3-3.43s1.622-2.058,2.073-.234a18.384,18.384,0,0,1,.467,4.8c0,1.371.234,1.365-.467,2.516s-2.073,1.833-.22,3.664a11.823,11.823,0,0,0,4.149,2.97c1.85.91,4.633,1.824,4.856,2.514s2.075,1.819,1.839,3.42,2.086,2.514.933,3.891-1.156.917-3.227,2.512-1.856,2.057-4.854,1.842c-3.009-.247-4.633-.7-4.633-1.381a1.791,1.791,0,0,0-.98-1.579c-.616-.339-.863-.162-1.211-.507a3.443,3.443,0,0,0-1.742-.692c-.6-.092,0,.778-1.214,0s-.077-.256-1.212-.778c-1.114-.5-2.335-.942-2.335-.942l-2.413-.168a4.109,4.109,0,0,0-2.347.26c-.778.515-2.168-.26-2.775.6s-.605.857-1.556,1.029-2.861.515-3.117.515a4.466,4.466,0,0,0-1.472.6c-.6.342-2.083.258-2.515.513s-.779-.171-1.39.6c-.6.782-1.2,1.633-1.477,1.89a1.544,1.544,0,0,1-1.291.686c-.785,0-1.648-.173-1.9.084s-.613.344-1.475.605a12.8,12.8,0,0,1-1.73.512c-.614.081-1.472.177-1.648.432a11.455,11.455,0,0,0,.614,4.025c.421,1.2,1.035,2.144.942,3.086-.077.944-.689,1.622-.251,2.229s1.726.867,1.991,1.547-.358,1.363.681,1.8a11.665,11.665,0,0,0,2.354.686c.512.085,1.55-.264,2.156.16s.347.178,1.129.768c.772.605.877.783,1.734.783a10.942,10.942,0,0,0,2.343,0c.429-.177.6-.866.947-1.113s-.173.17.348-.259a3.536,3.536,0,0,1,3.12-.431c.865.515,2.925,1.346,4.312,2.265s2.544,1.136,3.458.675a2.743,2.743,0,0,0,1.157-1.817,1.124,1.124,0,0,1,1.377-1.152c1.389.231,3,.46,3.926,1.6s1.393-.219,1.155,2.295c-.221,2.508-1.155,2.966-.221,4.114s2.073.69,2.073,2.286-1.4,1.152-1.614,2.748c-.238,1.6-1.148,1.823-.459,3.19s-.462,1.367,1.394,2.514c1.822,1.148,1.372.694,3.689,2.288s2.535,2.05,2.535,2.747.934,1.6-.691,2.974-1.389,1.6-3.476,1.828c-2.057.226-5.537-.917-7.152-1.608s-1.615-1.589-3.462-1.589h-3.241a17.366,17.366,0,0,1-4.611-.466c-.924-.219-.229-.454-2.076-.454s-2.08.235-3.707.235a66.1,66.1,0,0,1-9.07-1.149c-3.081-.609-6.793-1.215-8.639-1.826a24.95,24.95,0,0,1-3.7-1.525c-2.771-1.224-4.007-2.448-5.54-2.138s-3.392,0-4.005.913-1.228.917-.92,3.361,3.694.606.3,2.433-3.391,2.441-6.165,1.832-.913-1.224-5.24-2.748-6.462-2.128-6.462-2.128a12.855,12.855,0,0,0-1.846-3.663c-.925-.91-.925-1.522-3.089-1.522s-5.577.382-5.577.382c-1.728-.343-5.89,2.054-7.275-2.407s-2.771-3.767-1.737-6.162a10.367,10.367,0,0,0,1.04-5.489c0-2.4,5.547-1.365,0-2.4s-6.237-1.718-8.662-.338-7.271.338-11.783,1.375a75.412,75.412,0,0,0-9.7,2.736c-1.738.689,0,1.379-4.856,1.379s-4.963.57-6.122,1.715c-1.139,1.141-3,.907-5.541,1.141s-3.7.908-4.849.228-1.153-2.752-2.774-2.752-2.088-1.14-3.691.234a7.643,7.643,0,0,0-2.083,3.891s.688.452,0,2.055-2.545,2.517-3.932,4.11c-1.386,1.608-2.307,0-3,2.519s-2.313,2.979-2.076,6.406-.237,4.1-2.088,6.851c-1.832,2.742-3.919,1.832-6,4.112s-7.85,16.459-11.555,19.426-3.457,4.121-4.153,7.783a57.014,57.014,0,0,0-.928,10.507c0,3.2-.931,9.611-2.081,12.346s-3.23,6.861-1.614,8.23c1.614,1.383,1.381,3.431,1.846,5.26s.233,2.74,2.538,4.342,2.316,2.512,3.706,4.576c1.384,2.044.679,1.6,1.838,3.422s-.234,2.3,2.09,3.652c2.311,1.381,4.84-1.594,4.84,2.071,0,3.644-1.377,3.429.7,5.489,2.073,2.043,2.3,1.363,4.154,2.728s3.009,1.607,4.152,3.2c1.164,1.606-.456,1.145,3.477,2.968s3.687,2.063,5.535,2.063a32.641,32.641,0,0,0,4.856-.23c1.628-.239,3.235-1.147,4.16-1.147s3.464-.46,4.153-.22c.69.22,5.317-1.829,6.008-.466.7,1.379,1.865,1.594,3.468,1.594s1.846.251,3.239-.908c1.388-1.133,1.388-.686,2.081-2.284s1.381-1.6,2.759-1.6c1.4,0,2.082-.678,4.625-1.594a10,10,0,0,1,4.859-.463c.687,0,2.076-.221,2.759.916a25.354,25.354,0,0,0,1.863,2.517s1.154,2.746,1.842,3.889,1.841,1.366,4.619,1.591-.008.7,5.312.914c5.319.242,6.93,2.3,7.158,2.979a10.361,10.361,0,0,1,0,2.741c0,1.148-1.621,2.521-1.39,5.486.247,2.961-.223,3.434-.449,5.951s-1.153,1.141-1.153,3.661c0,2.5-3.01.916,0,4.8,2.993,3.88,3,6.856,3.919,7.54a21.268,21.268,0,0,0,2.538,2.054c2.547,1.826,1.157-.915,2.777,3.672,1.62,4.565.932,5.937.932,7.988s-.008,2.513,1.84,5.486,2.772,2.505,2.31,5.031-.7,2.049.463,4.107,2.323-1.374,1.863,3.43-3.245,10.759-3.944,13.266-1.842,2.273-2.3,5.253-1.154,2.523-1.382,5.951-1.392,5.019-.238,6.62,2.536,2.521,3.7,6.637,1.614,6.4,3.7,7.994,2.778-.46,3,2.74-1.151,5.954-.467,9.146a43.086,43.086,0,0,0,2.314,8c1.385,3.66,1.613,3.2,2.535,5.256a53.568,53.568,0,0,0,3.252,6.176c1.136,1.833,2.068,3.2,3.221,5.023a9.06,9.06,0,0,1,1.627,4.809c0,1.376.448,2.514-.465,3.88s-1.861,1.147-1.388,2.973.011.677,1.853,2.513a5.857,5.857,0,0,0,4.381,2.061c1.626.229,2.545,1.366,4.393,0s2.3-2.277,3.918-2.277,5.091.217,6.011.217,5.784.695,8.318-.677c2.54-1.387,4.388-1.829,5.78-3.661s1.617-3.429,2.547-3.429,4.163-2.3,5.548-3.893,1.371-4.34,3.453-5.705a9.738,9.738,0,0,0,4.159-4.582c.7-1.822,1.156-3.874.7-5.021s-1.154-1.368-.229-2.75c.916-1.363,4.615-6.384,5.3-6.847s.927.682,3-1.611,3.229-2.284,3.471-4.105-.684-3.437-.454-5.034c.212-1.59.687-4.109.454-4.8a4.829,4.829,0,0,1-.242-4.337c.929-2.515,0-3.675,1.391-4.57,1.4-.921,3.021-5.046,4.625-7.1,1.624-2.051,3.479-1.607,5.318-3.431s2.544-4.11,3.7-4.564,3.01-.46,3.467-3.2,1.387-6.864,1.151-10.055-.008-4.806-.925-7.312-2.322-3.2-2.777-4.809-2.305-4.1-1.851-6.861c.475-2.736,1.15-9.137,1.15-9.137a7.4,7.4,0,0,1,.239-2.977c.462-2.282.462-4.339,1.4-5.247s5.764-10.739,7.612-13.5c1.862-2.736,2.773-5.71,6.716-7.994a63.108,63.108,0,0,0,10.846-8.91c.925-1.152,3.922-3.891,4.847-5.719s2.32-6.638,4.17-8.233a13.586,13.586,0,0,0,4.391-5.712c.921-2.516,2.3-2.282,2.3-6.161,0-3.9-1.167-4.128,0-5.951a8.492,8.492,0,0,0,.931-4.586,2.889,2.889,0,0,0-3.01-.44c-1.845.68-.919.676-2.776,1.595-1.835.916-1.835,1.378-3.225,1.378s-2.781-.912-4.383.225c-1.624,1.144-3.468,2.294-3.468,2.294H1907.7c-4.854,0-5.771-.235-6.457-.465-.7-.232-2.314-1.829-2.314-2.965,0-1.152,1.143-2.061-1.39-3.429s-4.387-1.151-4.387-2.747a15.347,15.347,0,0,0-.466-4.8c-.461-1.138.933-1.826-2.084-2.973-3-1.139-3.687-1.6-5.083-2.977l-1.389-1.37s.935-2.739-1.387-6.172-4.835-3.656-5.3-5.021-1.157-1.828-.69-6.63c.448-4.807.69-7.32-.7-8.92s-3.692-2.731-3.692-3.656-1.163-1.6,0-2.965c1.155-1.382,1.374-.919,1.837-2.975s-.228-3.432.694-3.432.939-1.833,2.551.687,3.465,3.667,4.164,5.262-.465,1.61,1.141,4.12,2.537,2.511,2.776,5.253,1.4,3.206,2.32,5.032,3.21,3.2,4.385,4.8a37.653,37.653,0,0,1,3.227,5.941c.7,1.591,3.016,1.361,3.478,3.2a15.359,15.359,0,0,1,.684,3.888v3.427a7.377,7.377,0,0,0,1.166,3.656c.675,1.371,2.083,2.07,2.3,3.209s-1.151,2.282,1.61,2.282c2.785,0,3.708.681,4.854-.689,1.167-1.376.467-2.053,3.707-2.281s7.615-2.521,8.3-3.423c.7-.921,2.557-.24,5.1-1.617s2.076-2.051,3.468-3.428.678-2.968,2.3-3.652,4.394-2.509,5.784-2.509,6.23-3.208,6.7-3.889,3.462,0,4.615-2.056a6.221,6.221,0,0,0,1.159-4.117c0-1.6-2.074-3.652-.462-4.8s2.782-1.148,3.463-2.512c.7-1.366,2.081-1.828.467-3.886a23.072,23.072,0,0,0-3.707-4.114c-1.376-1.143.464.231-1.376-1.143s.7-1.365-4.394-3.419c-5.072-2.066-4.622-2.294-7.158-1.154a25.621,25.621,0,0,1-6.932,1.838c-.686,0-2.071,1.361-3.232.229-1.152-1.15-1.856-1.611-1.856-3.207a4.518,4.518,0,0,0-2.3-4.564,20.1,20.1,0,0,1-5.311-5.488c-1.387-2.065-4.389-3.2-4.389-5.495a9.427,9.427,0,0,1,.7-3.887c.22-.685-.475-2.968,1.154-3.2,1.6-.231,5.541-1.381,6.461,1.146.926,2.512,1.615,2.512,2.316,5.028a9.1,9.1,0,0,0,3.472,4.8,38.96,38.96,0,0,0,3.455,2.513c1.152.69,1.38.927,3,1.839a9.366,9.366,0,0,0,5.316,1.369l1.614-.239s-1.377-4.333,2.314-3.19,6.231,2.519,6.461,3.429.236.678,1.394,1.825,0,.46,3,1.363c3,.92,4.846.7,5.55,1.153s3.922.225,7.622.225a24.319,24.319,0,0,0,6.933-1.149c1.144-.23,3.232-2.745,4.608-.446,1.388,2.281,2.083,2.509,2.322,3.426s1.607,3.432,3.23,4.112,3.7,3.425,3.7,3.425a16.809,16.809,0,0,1,1.378,2.507,4.684,4.684,0,0,0,3.69,2.989l2.315.448,4.161-.448s-1.383-4.569,2.311.226,3.23,2.287,3.7,4.8c.457,2.514,1.835,5.024,2.068,6.4s1.161,2.973,1.161,4.115,1.164,2.738-.7,4.8c-1.829,2.056,2.335,6.166,3.015,8.906s1.378,5.722,3.69,7.779,2.081,1.15,1.856,3.432,1.615,3.2,1.849,4.805-.917,4.559.924,5.718c1.845,1.137.215-.459,1.845,1.137s1.855,3.886,3.469,2.738,2.3-1.6,2.765-2.977c.463-1.358-.219-.908,1.625-2.057s4.148-1.362,4.383-4.327c.236-2.981-.7-4.121-.7-6.41s-.461-4.584-.461-6.4-1.389-3.651.461-5.484,1.862-3.193,4.4-5.022,5.084-5.026,7.631-7.549,2.071-.927,4.152-5.032,4.393-4.115,5.312-5.484.23-2.739.93-3.884c.684-1.147,3.024-1.835,3.919-2.29.921-.457.457-2.52,2.319-1.6,1.84.92,2.073,1.61,4.146,1.84s2.082-.7,3.481-.465c1.376.23,5.081.46,5.306,2.742s1.158,2.278,1.853,4.112a13.4,13.4,0,0,0,2.081,4.114,18.727,18.727,0,0,1,2.765,4.125,16.072,16.072,0,0,1,1.381,4.566,9.454,9.454,0,0,0,1.847,4.346,9.074,9.074,0,0,0,4.622,1.826c1.161,0,1.39.232,1.628-1.143s-1.158-3.881.91-3.435c2.087.464,4.4.925,4.869,2.525.452,1.6.91,3.421.91,3.421s2.087,8.464,2.087,9.829.7,6.177.924,9.841a26.786,26.786,0,0,1,.339,4.521,18.872,18.872,0,0,0-.427,3.917c.147,1.164-.444,1.9.147,2.184.573.292,1.166-.576,1.454.292a7.635,7.635,0,0,0,2.175,2.9,3.122,3.122,0,0,1,1.6,1.891c.437,1.168.149,1.6.881,2.328.713.738,2.893,4.215,2.893,5.522s.291,2.046.441,3.781a7.526,7.526,0,0,0,1.751,4.373,18.115,18.115,0,0,0,2.9,2.9c1.315.871,2.319,1.3,3.482,2.183s2.038,1.452,2.474,1.3.722-.579,1.167-.579,1.739.869,1.739.3c0-.594.446-1.02-.146-1.9s-2.039-1.446-2.174-2.471c-.153-1.013-2.186-1.307-1.458-2.917.725-1.593.152-6.237-.427-7.547a11.149,11.149,0,0,0-2.628-3.922c-1.3-1.162-2.177-1.6-3.054-2.326s-1.452-1.6-2.179-1.887a4.608,4.608,0,0,1-1.893-1.175c-1-.863-2.628-1.738-2.628-3.188a11.4,11.4,0,0,0-.265-3.2c-.294-1.014.265-1.745-.592-1.745s-1.45,1.024-2.182-.292a7.744,7.744,0,0,1-.729-3.337c-.147-1.01-.576-2.767-.147-3.206a6.438,6.438,0,0,0,1.464-2.615c0-.58-.3-1.738-.3-2.179A12.053,12.053,0,0,1,2104.539,987.837Z" transform="translate(-1276.75 -714.103)" fill="#f1f1f1"/><path d="M1740.857,825.074c-.872,0-2.077-.349-2.077,1.2v2.915c0,.685.862.859,1.034,1.545s1.22,1.022.171,1.708-2.247.518-2.418,1.209a8.488,8.488,0,0,0-.177,1.713,31.951,31.951,0,0,0,3.3.344,15.727,15.727,0,0,0,2.769,0c1.206-.176,1.556-1.032,3.47-1.032,1.894,0,2.765.351,3.977-.18,1.214-.5,1.552-.167,2.247-1.025s-.168-2.224.7-3.084,2.254-1.709,2.426-2.231,1.906-1.361-.525-3.081-2.765-1.206-3.291-2.065c-.51-.843-1.392-1.365-1.392-2.907a3.175,3.175,0,0,0-1.552-2.923c-1.035-.845-1.386-.679-2.765-1.706-1.4-1.03-2.781-1.2-2.252-2.221a7.891,7.891,0,0,1,1.211-2.062c.688-.866,3.29-2.233,1.221-3.432-2.086-1.194-.533-1.194-2.086-1.194s-3.985.849-3.985,0v-2.412s1.212-.855-1.388-.51-3.979,0-4.16.682a3.618,3.618,0,0,0,0,2.407c.348,1.37-1.565,3.769-1.565,4.458s-.682.511.527,2.062c1.22,1.534.863,2.045,2.945,2.908s1.039-.52,2.08.858,1.9,2.74,3.123,3.255.508-.68,1.212.511a3.668,3.668,0,0,1,.179,3.257c-.351.515.513,0-1.221.515Z" transform="translate(-1280.177 -718.664)" fill="#f1f1f1"/><path d="M1940.222,1127.358c0-.93-2-.554-1.723-2.39a7.44,7.44,0,0,0-.938-3.947s-1.206-1.063-2-.14a11.771,11.771,0,0,0-1.856,3.437c-.422,1.05-.543,2.9-1.479,3.434a9.63,9.63,0,0,0-2.806,2.9c-.531.919-3.333,2.762-3.333,2.762a8.755,8.755,0,0,1-3.2,2.792c-1.732.646-1.462-.405-3.869,1.7s-2.274,7.789-2.274,9.885c0,2.12-.519,3.7-.25,5.414.25,1.722.121,1.858-.666,3.442-.806,1.57-1.73,2.64-2,3.68a10.2,10.2,0,0,0-.4,3.426c0,1.984.4,2.531.4,4.773s.406,3.281,1.059,4.064c.671.8,1.73,1.591,3.074,3.053,1.328,1.439,2.124,1.847,3.732,1.583a5.374,5.374,0,0,0,3.733-2.385,9.645,9.645,0,0,0,1.734-4.348c.393-1.84.4-1.712,1.874-4.622,1.446-2.906,1.192-4.22,1.858-6.589s.39-5.684,1.735-6.984a15.308,15.308,0,0,0,3.329-5.013,26.9,26.9,0,0,0,1.728-5.291,61.211,61.211,0,0,0,.67-6.195s.8-1.2,1.339-1.846,1.467-1.584,1.467-2.376v-2.234Z" transform="translate(-1292.046 -739.577)" fill="#f1f1f1"/><path d="M2233.546,917.824a19.125,19.125,0,0,1-1.393-3.432c-.172-1.03-.874-.691-.874-2.407s-.68-2.393.358-2.9.865-.523,1.563-1.724c.682-1.2-.184-2.57.859-2.915s2.251-1.195,2.938-1.195a20.711,20.711,0,0,0,2.953-.168c1.211-.179,3.121-.344,3.984-1.026a22.535,22.535,0,0,1,2.073-1.378c.525-.345-.509-2.575.879-2.924s2.421-.339,3.116-1.027a9.806,9.806,0,0,0,2.249-2.4,9.232,9.232,0,0,0,.867-3.252,22.028,22.028,0,0,0-.867-3.261c-.181-.687-1.906-1.373-1.906-2.915s-.343-1.716,0-2.574.52-2.394,1.043-2.394.174-2.4,1.9,0a26.944,26.944,0,0,0,3.979,4.285c.708.855.526,1.369.708,3.078.159,1.713.689,3.09.689,4.112a6.362,6.362,0,0,0,1.041,2.921c.345.509.855.344,1.03,1.369a17.282,17.282,0,0,1,.185,3.089c0,1.023.171,1.544.171,2.574s-1.219,1.2-2.258,1.886a3.278,3.278,0,0,0-1.383,1.877,2.082,2.082,0,0,1-1.734,1.206h-2.083c-.87,0,.35-.346-.87,0-1.2.342-1.378-1.374-2.421.342s-1.212,2.409-1.736,2.742a3.881,3.881,0,0,1-2.755.349,8.345,8.345,0,0,1-1.393-1.548s-.35-.344-1.39-.164c-1.043.164-1.731-1.721-2.946.164s-2.078,1.033-1.219,1.889,1.726.514,1.906,1.536-1.384,1.719-1.384,1.719-1.049-.864-1.726-.168c-.706.677-.706,1.882-.706,3.252s.867,2.4.352,3.093a4.185,4.185,0,0,1-1.906,1.015Z" transform="translate(-1313.005 -723.633)" fill="#f1f1f1"/></g><path d="M2216.637,991.732a3.44,3.44,0,0,1,1.165-2.76,2.811,2.811,0,0,0,1.027-2.76c-.3-.881-.885-1.457-1.165-2.474a14.02,14.02,0,0,1-.583-2.911c0-.577-3.638-1.594-3.638-1.594s-1.156-2.039-1.9-.446c-.716,1.608-1.155,2.333-1,4.225s1.159,3.775.286,4.8c-.875,1.006-1.9.713-1.6,2.327.289,1.594.289,2.753,1.742,3.625s2.473.883,2.328,1.9a14.868,14.868,0,0,0-.574,2.472c0,1.023-.584,2.177.574,3.2,1.176,1.017,1.176,1.311,2.185,1.606s1.6,1.3,1.744-.159-.147-2.025,0-2.908.574-.582.716-2.033-.424-1.6-.424-2.617A16.783,16.783,0,0,0,2216.637,991.732Z" transform="translate(-63.414 -17.52)" fill="#f1f1f1"/><path d="M2121.8,1038.4a27.353,27.353,0,0,0-2.473-1.736s-.44-1.309-1.014-1.027-.58,1.316-.155,2.624c.447,1.3-.566,1.161.876,2.909a28.584,28.584,0,0,0,4.5,4.215c.885.582,3.207,1.017,3.641,2.618s1.452,2.179,2.043,3.051a28.771,28.771,0,0,0,2.176,2.321c.881,1.011,3.2,6.253,4.2,7.7,1.038,1.453,1.91,1.742,2.342,3.5.448,1.739,1.023,2.611,1.452,3.923s.588,3.2,2.337,4.356,2.459,1.164,2.908,1.891c.432.725,4.494,5.09,5.075,5.808a7.052,7.052,0,0,0,1.452,1.755c1.021.866,2.173,1.292,3.062.866.857-.44.291,2.471,1.6-1.026,1.309-3.473,1.309-3.772,1.309-4.642a7.15,7.15,0,0,1,0-2.473,14.443,14.443,0,0,0,.3-4.36c-.151-1.019.724-1.747-.583-1.89s-1.761-.149-2.47-.283c-.736-.154-1.316-.452-1.458-1.749s0-2.322-1.023-2.906c-1-.577-.728-.727-1.892-1.026s-2.321-.288-1.732-1.457c.573-1.152,1.6-1.591.863-2.889-.724-1.32-.572-2.484-1.741-2.917a6.538,6.538,0,0,1-2.753-1.315c-1.027-.863-2.48-2.9-3.938-3.915s-4.366-1.752-4.932-2.622a8.387,8.387,0,0,0-2.321-2.027,8.035,8.035,0,0,1-2.342-2.029c-.713-1.025-1.6-2.185-1.6-2.781,0-.572.293-1.443-.567-1.6-.883-.135-1.03-.421-2.327-.723-1.315-.285-1.17-.584-2.046-.584A18.127,18.127,0,0,0,2121.8,1038.4Z" transform="translate(-57.388 -21.309)" fill="#f1f1f1"/><path d="M2206.706,1040.337s-.97-.29-.97-.676-.473-.969.09-.969h1.465a4.761,4.761,0,0,0,1.163-.49s.088-.191.574-.287.971-.291.485-.877.2-.474-.485-.573a10.315,10.315,0,0,1-1.84-.59c-.875-.285-2.125-.866-2.125-.866a12.631,12.631,0,0,0-1.461-1.062c-.389-.2-.972-1.656-.972-1.656a3.438,3.438,0,0,0-.86-1.068c-.389-.194-.3-1.255-.976-1.255s-.779-.577-1.267,0a4.251,4.251,0,0,0-.765,1.652,5.055,5.055,0,0,1-1.173,2.611,15.622,15.622,0,0,0-1.83,1.563c-.681.769-1.268.86-1.457,1.44s.38,1.079-.774,1.947-1.56,1.154-1.849,1.154-.865-.964-1.349-.1-2.327,3.883-2.427,4.173-.973,1.94-1.562,2.038c-.565.092-1.73.092-2.607.187a5.717,5.717,0,0,0-1.738.292c-.288.194-1.173.291-1.173.879s.294,1.644,0,2.226a6.3,6.3,0,0,1-1.349,2.133,2.736,2.736,0,0,1-2.243.291c-.379-.291-1.058-1.066-1.638-1.173-.577-.082-1.647-1.061-2.134-.575a10.1,10.1,0,0,0-1.453,3.779,7.172,7.172,0,0,1,0,2.132c-.192,1.358-.772,2.817,0,3.975a9.08,9.08,0,0,0,1.453,1.833c.487.486,1.454,1.08,1.745,1.854s.676.085,1.168,2.809,1.452,3.191,2.319,3.488,2.725-.3,3.21.574c.47.884.47.973,1.355,1.455s.57-.189,2.133-.1c1.54.1,1.838-.771,2.128-.771s1.069.871,1.458,1.064a2.979,2.979,0,0,0,1.642.193c.58-.092,1.255-.874,1.649-.28.386.57.19,1.929.584,2.229.385.285.579.482,1.549.285a2.958,2.958,0,0,0,1.837-1.168,4.906,4.906,0,0,1,1.453-.969,2.089,2.089,0,0,0,1.265-1.352,8.335,8.335,0,0,0,.572-2.038c.1-.576.01-.576.1-1.352a8.172,8.172,0,0,1,1.46-3.585,6.04,6.04,0,0,0,1.737-1.943,3.126,3.126,0,0,0,.387-1.644c0-.772-.281-1.644,0-2.124s.389-1.454.678-2.135.487-1.848.873-1.751a18.815,18.815,0,0,0,1.748.786c.57.085,1.463-.786,1.742-1.083s1.556-.381.288-1.156a6.894,6.894,0,0,1-2.13-1.654c-.585-.668-.676-.668-.676-1.35s1.063-1.063.09-1.84-.862-.869-1.553-1.455c-.671-.579-1.447-1.151-1.541-1.742s-.287-1.353.094-1.648,1.174-.1,1.174-.976v-.87l1.263-.866h.563l1.172.087h.48l.292-.574Z" transform="translate(-60.935 -20.921)" fill="#f1f1f1"/><path d="M2234.866,1035.079c1.892-.72.72-2.61.72-2.61s-1.019,0-.578-1.457,1.162-2.769,1.451-1.883c.3.854.144,1.735.726,1.883.58.132,1.014.581,1.593,0,.6-.573,1.6-1.745.732-2.769s-1.31-1.014-1.31-2.026-.142-2.324-.142-3.051a14.9,14.9,0,0,0-.723-2.912c-.288-1.014,0-2.175-1.164-1.89s-2.184.145-2.469,1.742.138,2.482-.729,2.622a29.6,29.6,0,0,1-3.049.14,1.225,1.225,0,0,1-.588.874,3.8,3.8,0,0,1-2.181.289c-.572,0-1.011-.438-1.451.149s-.3,1.312-1.894,1.449-2.042-.866-2.32.3-.59,2.62-.59,2.62a7.485,7.485,0,0,0,1.594.142c1.03,0,1.764-1.307,2.487-1.307s.291-.293,1.6-.151l1.31.151a2.953,2.953,0,0,1,1.01,1.887c0,1.01-.722,1.745.432,2.325a13.8,13.8,0,0,1,2.029,1.161c.447.3,1.179.877,1.179.877Z" transform="translate(-64.188 -20.169)" fill="#f1f1f1"/><path d="M2230.831,1059.894a8.1,8.1,0,0,0,1.457-1.6c.581-.865.145-.865.867-1.6a3.432,3.432,0,0,0,.88-1.743s.434-2.472-.732-2.031-1.306,1.452-2.324,2.031a11.654,11.654,0,0,1-2.613,1.314,12.371,12.371,0,0,1-2.906.133c-2.184,0-2.479-.572-3.349-.572s-1.6-.727-2.62-.585-1.736.137-2.035,1.156a2.155,2.155,0,0,1-1.752,1.609c-.859.284-1.438-.442-1.729,1.013a34.8,34.8,0,0,0-.73,4.211c0,.726.43.726-.134,1.6-.591.885-1.76.153-2.051,3.06s-.866,5.816-.276,6.394c.566.593,1.446,0,1.594,1.6s.733,1.593.569,3.2a9.839,9.839,0,0,1-.717,2.9s-.593.3.148,1.3c.733,1.026,1.3,1.453,2.327,1.323,1-.154.719-1.762,1.158-2.917a8.345,8.345,0,0,0,.295-3.193c0-.881.286-1.59.286-2.912a22.494,22.494,0,0,0-.142-2.453s.426-.882,1.016-.3c.575.572.716,2.04,1.017,2.9a3.183,3.183,0,0,0,1.156,1.453s1.315-.576,1.315,1.168-1.167,2.184,0,2.621,1.305.435,2.175-.287c.882-.741,1.455-1.025,1.607-1.458.135-.437,1.017.285.872-1.166s.859-.152-.135-1.455c-1.028-1.308-.888.576-1.028-1.308s.14-2.465-1.021-3.784c-1.164-1.3-1-.289-1.164-1.3-.138-1.032,0-1.748.728-2.18a5.449,5.449,0,0,0,1.458-1.028c.574-.571.723-1.157,1.455-1.443s1.3,1.014,1.458-.585c.14-1.6,1.157-1.449.14-1.6a10.115,10.115,0,0,0-2.479-.151c-1.745,0-1.162-.865-2.759.151s-2.62,1.747-2.62,1.747a.862.862,0,0,1-1.018.723c-.862-.138-1.594-.286-1.594-.723s-.869-.724-1.016-1.9a11.9,11.9,0,0,1,.147-2.907,2.36,2.36,0,0,0,2.177-.714c.875-1.034,1.6-1.034,1.6-1.034a28.645,28.645,0,0,0,3.191.3h2.039c.585,0,1.451-.3,1.891,0a4.352,4.352,0,0,0,2.032.873C2229.678,1059.751,2230.831,1059.894,2230.831,1059.894Z" transform="translate(-63.503 -22.448)" fill="#f1f1f1"/><path d="M2190.24,1098.872c0-.872,0-2.466-.435-3.056s1.6-.282-.433-.59c-2.04-.286-3.053.151-3.631-.717s-.589-1.171-1.31-1.735a8.491,8.491,0,0,0-2.05-1.028,6.293,6.293,0,0,0-2.319-1.158c-1.306-.29-1.884-1.745-3.048-.728s-1.3,1.3-1.9,1.449a5.84,5.84,0,0,1-1.884.148,5.247,5.247,0,0,1-2.184-.293c-1.016-.3-.577-.3-2.029-1.153-1.456-.882-1.76-1.6-3.047-1.6a4.274,4.274,0,0,0-2.042.429h-3.489c-.726,0,.293-.727-.726,0s-2.615.863-2.615,1.3.567,1.164,1.88,1.452,2.2.435,2.469.879c.3.429.158.719.725,1.159.588.436-1.44-.585,2.334.59,3.787,1.152,4.362,1.442,4.8,1.309.439-.157.726-1.463,2.618-.739s1.6,1.021,2.76,1.453a8.3,8.3,0,0,0,2.036.727c.43,0,2.327.15,2.913.15s.43-.294,1.3,0,.884.581,2.045.733a16.05,16.05,0,0,0,2.611.143h2.039c.437,0,.57.43,1.01.722A3.276,3.276,0,0,0,2190.24,1098.872Z" transform="translate(-59.978 -24.794)" fill="#f1f1f1"/><path d="M2328.038,1106.14c-.475-.705-1.743-1.759-1.894-2.759-.136-1.025.151-1.315-.136-1.754s-.449-.437-1.6-.869-.289,1.026-1.162-.434,1.457-.724-.876-1.458-2.031.434-2.322-.722-.733-1.313-.733-2.329.879-1.308-.573-2.185l-1.456-.869-.877-1.887s-.448-1.022.877-1.022h1.3s.873-1.018.6-1.593c-.309-.587-.441-1.454-.875-1.754s-.439-.862-1.611-.862c-1.151,0-.868.728-2.027-.3a12.516,12.516,0,0,1-1.892-1.74,8.862,8.862,0,0,1-.589-1.885,2.233,2.233,0,0,0-1-1.173c-.884-.582-2.331-2.33-3.645-2.759s-1.457-.734-2.9-1.312-2.616-1.012-3.492-1.45a36.947,36.947,0,0,0-3.769-1.6c-1.314-.447-2.034-1.449-4.524-1.741-2.474-.289-3.477-.147-5.081-1.014s-1.308-1.168-2.9-1.6-3.058-.873-3.783,0-.43,1.734-1.024,2.026-1.443-.426-2.031.3-.141.582-.88,1.584c-.718,1.03-.569,1.759-1.879,1.9s-1.594.586-2.044.292c-.425-.292-.293-1.745-1.16-2.191-.867-.429-.141-.718-1.6-.564a19.351,19.351,0,0,1-2.17.135h-3.2a7.736,7.736,0,0,1-2.328.59s-.141,1.737.735,2.175c.857.442,1.593.874,1.733,1.448.151.589-.429,1.316.874,1.316s.289.571,1.311,0-.3-1.746,1.3-1.316a5.278,5.278,0,0,1,2.611,1.178,3.641,3.641,0,0,0,1.6,1c.883.3,1.608-.145,2.045.3a3.945,3.945,0,0,0,2.609,1.446c1.895.432,2.906.73,3.2,1.161a7.733,7.733,0,0,0,1.9,1.75c.863.575.438-1.021.863.575.45,1.591.578,2.48.733,3.054a5.205,5.205,0,0,0,.871,1.464c.29.429,1.172,1,.868,1.89-.291.873-.142,1.3-1.018,1.438s-.573-.433-1.878.3-1.609,1.012-1.749,1.449-1.891.449-.88,1.164a6.667,6.667,0,0,0,3.349,1.168,8.009,8.009,0,0,0,3.06-.442c.573-.145,1.014-.726,1.884-.425.872.28,1.443.28,1.894,1.007a11.443,11.443,0,0,0,1.16,1.75,6.336,6.336,0,0,0,2.318,1.6c.727.289.294.289,2.319.289h2.913a7.373,7.373,0,0,0,1.171-1.171c.58-.721-.579,0,.58-.721s2.039-.435,2.468-1.166.139-1.591.586-1.892.438-1.309,1.155-1.309a17.966,17.966,0,0,1,2.325-.292c.448.148.3.578,1.459,1.02s1.751,0,2.472,1.02,1.888,1.453,1.888,2.332c0,.863-.148,1.3,1.167,2.459a12.365,12.365,0,0,0,2.474,1.759,1.452,1.452,0,0,0,1.3,1.733,7.9,7.9,0,0,0,1.9.27c.445,0-.008-.7,1.3.019s1.747.729,2.046,1.17a8.492,8.492,0,0,0,2.321,1.161,3.213,3.213,0,0,0,.919.252c.322,0,.343-.087.557-.157s.279.019.4-.031S2328.169,1106.333,2328.038,1106.14Z" transform="translate(-66.95 -23.484)" fill="#f1f1f1"/><path d="M2262.143,1069.043s.221.791.509.953c.293.136.354.425.72.65a2.657,2.657,0,0,0,1.46.22,2.08,2.08,0,0,0,1.235-.22,5.219,5.219,0,0,1,1.819-.077s1.09.077,1.3.077.293-.585.371-.873.865-.432.865-.432.367-.591,0-.8-.578-.372-.431-.577.651-.3.651-.3.295-.571.147-.862a1.753,1.753,0,0,0-.646-.809c-.373-.209-.3.453-.373-.209s.222-1.019-.146-1.173a2.866,2.866,0,0,0-1.237-.364,2.671,2.671,0,0,1-1.163-.211,3.618,3.618,0,0,1-.791-.373c-.3-.14-.449-.433-1.024-.433s-.368-.576-1.315-.5a6.5,6.5,0,0,0-1.815.292,2.6,2.6,0,0,0-1.008.724c-.153.223,0,.366-.735.578-.717.22-.948-.212-1.161.369s0,1.093-.219,1.3c-.212.228-.583.163-.367.66.224.514.224.869.8,1.1a4.48,4.48,0,0,0,1.315.215l.291.359Z" transform="translate(-66.683 -23.098)" fill="#f1f1f1"/><path d="M2292.913,1112.578a16.042,16.042,0,0,1-.726-2.76s-.589-1.16-1.166-.714c-.582.421-.292.421-.869,1.154s-.3,1.164-1.018,2.178-1.6,1.6-1.895,2.472,0,2.031-.3,3.05a21.719,21.719,0,0,0-.285,3.641c-.144,1.739-1.012,3.484-1.158,5.364s0,3.056-.873,4.371-1.748,3.058-2.479,4.074,0,1.447-2.036,1.161c-2.021-.3-2.753-.435-3.04-1.018s0-1.894-1.893-2.763a23.136,23.136,0,0,0-3.055-1.014c-1.016-.44-1.3-1.027-2.18-2.187s-1.6-1.158-2.469-1.739-3.933-1.454-3.05-2.62,1.894-2.035,2.319-2.619a10.364,10.364,0,0,0,.731-2.9,1.176,1.176,0,0,1,1.02-.865c.869-.164,1.874.285,2.18-.884a28.325,28.325,0,0,0,.868-2.9c0-.588,1.738-1.171-.868-1.171s-2.9.738-4.656.583a12.382,12.382,0,0,1-2.91-.29c-1.016-.293-2.32-1.307-3.2-1.307s-1.606.15-1.9-.435,0-1.311-1.013-1.311-2.03-1.452-2.327-.139a8.333,8.333,0,0,0-.3,3.192c.155,1.016-1.155,1.317-1.739,1.455s-3.053-.288-3.776.3a15.733,15.733,0,0,0-1.9,2.18c-.861,1.018.148.873-1.439,1.742s-1.891.151-2.481.867a2.777,2.777,0,0,0-.577,2.177c.136.443,0-1.009.136.443.151,1.452.587,2.621-.719,2.467-1.3-.138-2.477-1.307-3.06-1.153-.577.137.294,2.465-1.3,0-1.594-2.483-2.175-3.494-3.19-3.346a5.677,5.677,0,0,0-2.762.863c-.733.581.433-.571-.733.581-1.165,1.169-1.444.738-2.324,1.6s-1.6,1.011-1.9,1.45l-.287.442s-1.885,2.464-2.476,3.341c-.568.875.151,1.747-1.449,2.187l-1.6.441a10.411,10.411,0,0,0,.053,2.415c.185.778.673,1.453-.2,1.453-.854,0-.663.1-1.346-.386s-1.156-.477-1.082-1.066c.107-.587.686-.1.107-.587s-.292-1.058-1.078-.584c-.758.49-1.641.97-1.641,1.268s-.281.479-.768,1.155a4.7,4.7,0,0,0-.591,2.433c0,.577-1.348,1.734-2.023,3.193-.7,1.469-.974,1.469-2.137,2.621s-2.616,1.362-3.774,1.938-3.493.577-4.276.773-1.257.288-1.539.775-.59.577-1.552,1.07a9.682,9.682,0,0,1-2.9.584s-1.652.67-1.945.765-3.678.488-4.068,1.174c-.392.669-.964.186-2.235,1.448a8.238,8.238,0,0,1-2.136,1.658c-.281.188.3-.692-.281.188a3.469,3.469,0,0,1-1.353,1.35c-.286.094-.6-.488-1.161-.2a1.916,1.916,0,0,0-.973,1.461,8.9,8.9,0,0,0-.2,1.738,2.535,2.535,0,0,1-.585,1.453s-1.64,2.822-1.546,4.169c.086,1.365-.183,1.846.3,3.194a6.056,6.056,0,0,1,.471,1.946c.094.679.282,1.059-.294,1.737s-.662.106-1.359.691a1.682,1.682,0,0,0-.674,1.16,2.734,2.734,0,0,0,.093,1.154c.2.587.488,3.981.785,5.045.28,1.059-.4,2.036-.106,3.389s.688,2.031.782,2.809-.4,2.433-.094,2.534c.278.093-.786,2.709-.487,3.572s.4,2.823.581,3.6-.289.669-.491,1.735c-.185,1.066-.291.583-.668,1.657-.395,1.057-.97,0-1.167,1.444s0,1.265-.393,1.859c-.382.563-.581.664-1.45.859s-1.745-.3-1.745.285-.493,2.23-.493,2.525a2.521,2.521,0,0,0,1.079,1.647c.673.386,1.059.2,1.646.966s.2.682,1.441,1.068a9.948,9.948,0,0,0,3.111.39,7.013,7.013,0,0,0,2.335-.39c.973-.293,2.422-1.068,3-1.163s.583-.389,1.355-.776a3.812,3.812,0,0,0,2.033-1.742c.485-.971-.088-1.451.685-1.551a33.392,33.392,0,0,1,3.681-.587c.478.1,1.253.1,2.035.2s2.325-.386,3.1-.2a9.275,9.275,0,0,0,1.845.4,7.529,7.529,0,0,0,2.142.093c1.147-.093,2.408.1,2.99-.876s.969-2.121,1.456-2.424a3.76,3.76,0,0,1,1.745-.867,22.578,22.578,0,0,0,2.323-.579c.581-.294,1.355-.678,2.028-1.06a14.265,14.265,0,0,1,3.4-.788,15.769,15.769,0,0,1,2.321-.187,5.753,5.753,0,0,0,2.031-.2,6.758,6.758,0,0,1,3.3-1.256,3.893,3.893,0,0,0,2.519-.685c1.07-.488.871-.587,1.547-.671.677-.1,3,.1,3.683-.1a7.288,7.288,0,0,1,2.905-.289,1.92,1.92,0,0,1,1.552.968c.487.681.766.681,1.736,1.164a33.623,33.623,0,0,0,4.168,1.648c.3,0,.209.4.209,1.073s.277-.1,0,.673c-.3.777-.39,1.159-.1,1.556.287.382-.106.669.774,1.446.864.782-.3.968-.1,1.745.188.779.285.779-.2,1.361s-1.172,0-.678,1.076c.481,1.053.194,1.053.969,1.339s.393,1.074,1.738.2a8.558,8.558,0,0,0,2.328-2.026,8.658,8.658,0,0,1,1.651-1.558c.974-.77.772-1.167,1.457-1.352.679-.2.482-.876.965-1.167s1.936.2,2.326-.679-.484-1.358.379-.872c.887.49,1.171,1.079.59,1.752a3.5,3.5,0,0,1-1.359,1.151c-.486.2-1.253.1-1.64.587a24.244,24.244,0,0,0-1.847,2.91c-.392.77-1.062.58-1.746,1.056-.684.492-.482.59-.684,1.074-.186.494-1.835.1-.186.494,1.649.381,2.615.479,2.9.087s-.681.479.3-.39.482-1.939,1.548-1.939,1.449-.383,1.449.1.2.872-.1,1.25a7.406,7.406,0,0,1-1.253,1.072c-.588.483-1.166.677-1.269,1.16s-.964.981-.09,1.069a8.241,8.241,0,0,0,1.736-.088c.585,0,.69-.1,1.07-.1s.576-.1.786.581a14.154,14.154,0,0,1,.29,2.049,1.521,1.521,0,0,1-.29,1.924c-.98.78-1.271,1.165-.786,2.427s-.1,1.26,1.076,1.847c1.152.561,3.481.48,3.682,1.052.18.586-.5.875.663.972s1.856-.1,2.135.483c.3.59.383,1.069,1.171,1.169a12.835,12.835,0,0,0,1.74.1,2.727,2.727,0,0,0,1.445-.783c.3-.388-.566,0,.3-.388s.77-1.071,1.348-1.166,1.742-.292,1.945.094a2.437,2.437,0,0,0,.77.968c.394.3-.383-.673.394.3s.183.479.775.971.283.57,1.069.378c.766-.187.88-.583,1.352-.784a10.938,10.938,0,0,1,1.946-.564c.278,0,1.34.287,1.828-.3a5.277,5.277,0,0,0,.779-1.545,2.6,2.6,0,0,1,.871-.4c.489-.081,2.115-.279,2.115-.279s1.475-.1,2.637-.282a15.01,15.01,0,0,0,3.3-.885c.867-.387.976-1.248,1.257-1.548a45.405,45.405,0,0,0,3.1-3.98c.576-.958.476-1.934,1.466-2.8.962-.878,2.218-2.137,2.507-2.43s3-4.457,4.256-5.325c1.267-.872,1.66-2.232,3.208-3.1a14.077,14.077,0,0,0,2.708-1.647c.779-.668.779-1.357,1.546-2.13.783-.774,1.071-1.751,1.95-2.338a6.838,6.838,0,0,0,1.926-2.03c.1-.283,1.171-1.638,1.171-2.231a6.707,6.707,0,0,1,.394-2.022,22.2,22.2,0,0,1,1.73-2.435s2.332-2.027,2.239-3.672-1.355-2.232,0-4.168,1.539-4.459,1.839-5.423a19.954,19.954,0,0,0,0-4.178c0-.681.292-1.46-.586-2.32s-.576-1.462-1.745-2.62-1.646-1.549-2.126-2.132-1.745-1.942-1.745-2.906a4.55,4.55,0,0,0-.482-2.331c-.3-.291-1.269-.679-1.461-1.162a12.913,12.913,0,0,1-.775-1.932,13.536,13.536,0,0,1-.578-2.622c0-.293.387-2.031-.289-2.134a8.934,8.934,0,0,1-2.127-.968s-1.948-1.94-2.238-2.335c-.288-.374-1.752-1.839-1.752-1.839a3.276,3.276,0,0,1-1.254-2.406c-.189-1.752-1.354-4.762-.964-6.215s.38-.866.38-2.037-.38-2.218-.29-3.682a9.939,9.939,0,0,0-.285-2.61,8.371,8.371,0,0,0-1.26-1.933,3.119,3.119,0,0,0-1.263-.391c-.574,0-.482-.2-1.455,0a6.414,6.414,0,0,1-1.445.183c-.3,0-.4-.574-.4-1.254a8.365,8.365,0,0,1,.492-2.024,28.108,28.108,0,0,0,.387-3.5,7.331,7.331,0,0,0-.3-1.366,10.614,10.614,0,0,1-.666-1.437c-.1-.4-.2-.876-.2-.876Z" transform="translate(-61.038 -26.153)" fill="#f1f1f1"/><path d="M2273.085,1242.121a17.228,17.228,0,0,1-3.169-.642c-.392-.129-1.15-1.139-1.661,0s-1.014,1.659-1.014,2.428a10.367,10.367,0,0,1,0,2.8c-.252.631-.645.631-.77,1.258-.12.655-1.4,2.173-.376,3.189s1.146,1.267,2.16,1.267,1.9-.892,3.051-1.267a17.724,17.724,0,0,1,2.3-.635,2.779,2.779,0,0,0,2.034-1.9c.256-.529.121-.779.885-1.281s1.655-2.293,2.3-2.685c.631-.375,1.529-.375,1.529-1.4,0-1,.507-1.651-.266-1.651s-.76-.379-1.764,0a36.82,36.82,0,0,1-4.2.9Z" transform="translate(-67.144 -34.859)" fill="#f1f1f1"/><path d="M2319.641,1247.167c-.383.258.886,1.655,2.035,1.772s2.666.13,3.056.636,1.4,2.173,4.066.38c2.669-1.775,5.221-3.293,6.746-4.182s1.793-1.658,3.687-3.063,2.534-2.148,3.823-2.415c1.266-.261,1.266.887,2.417-.384s1.267-1.906,2.276-2.414,2.05-1.651,3.064-2.164,2.415-.757,2.8-1.388a38.243,38.243,0,0,1,1.654-3.452,6.43,6.43,0,0,0,.748-1.9s.653-.506-.117-1.4.51-.5-.763-.887.383-1.15-1.274-.381-7.249,3.826-8.013,5.343-1.786,1.916-3.692,3.314-1.523,2.535-3.816,2.921-1.781.633-3.813,1.139c-2.032.526,3.3-2.037-3.692,1.157-7,3.168-6.737,3.168-7.252,3.809s1.151.386-.511.635C2321.427,1244.5,2319.641,1247.167,2319.641,1247.167Z" transform="translate(-70.698 -33.846)" fill="#f1f1f1"/><path d="M2363.229,1227.258c.121-.882.385-1.271,1.532-2.417a9.322,9.322,0,0,0,1.525-2.029,2.219,2.219,0,0,0,.626-2.806c-.626-1.9-.12-2.543,1.41-3.946s2.158-1.015,3.43-2.161,1.773-1.27,1.773-2.667-.115-3.3,0-3.952c.135-.628,0-4.182,1.661-3.806s2.8,1.009,2.8,1.9.131,3.311.131,4.2-1.027,1.524,0,2.169c1,.618.633,1.137,1.775.881s.894-.765,1.906-.637,2.171-.245,2.171.892.379,1.654-.65,2.537a12.107,12.107,0,0,1-2.035,1.783c-1.009.639.9-.123-1.009.639s-3.062,0-3.692.895-.761.243-1.272,1.15a9.1,9.1,0,0,0-1.155,2.025c-.113.641.9.133-.744,1.153a27.822,27.822,0,0,0-3.313,2.159c-.762.633.511-.5-1.653,1.152l-2.158,1.646a3.015,3.015,0,0,1-1.4.383C2364.11,1228.406,2363.16,1227.855,2363.229,1227.258Z" transform="translate(-73.579 -32.384)" fill="#f1f1f1"/></g></svg>