<?xml version="1.0" encoding="utf-8"?>
<!-- Generator: Adobe Illustrator 22.0.1, SVG Export Plug-In . SVG Version: 6.00 Build 0)  -->
<svg version="1.1" id="Layer_1" xmlns="http://www.w3.org/2000/svg" xmlns:xlink="http://www.w3.org/1999/xlink" x="0px" y="0px"
	 viewBox="0 0 470 466.8" style="enable-background:new 0 0 470 466.8;" xml:space="preserve">
<style type="text/css">
	.st0{fill:#1A1A1A;}
	.st1{fill:#FFFFFF;}
	.st2{fill:#F41616;}
</style>
<g>
	<g>
		<path class="st0" d="M7.6,57.8c1.8-3.7,2.9-7.7,2.9-11.9S9.4,37.7,7.6,34h4.9c1.8,3.7,2.9,7.7,2.9,11.9s-1.1,8.2-2.9,11.9
			C12.5,57.8,7.6,57.8,7.6,57.8z"/>
		<path class="st0" d="M26.7,46c0-4.2,1.1-8.2,2.9-11.9h4.9c-1.8,3.7-2.9,7.7-2.9,11.9s1.1,8.2,2.9,11.9h-4.9
			C27.8,54.1,26.7,50.2,26.7,46z"/>
		<path class="st0" d="M45.2,49.9h5.3v5.3h-5.3V49.9z"/>
		<path class="st0" d="M61.1,57.8C62.9,54.1,64,50.2,64,46s-1.1-8.2-2.9-11.9H66c1.8,3.7,2.9,7.7,2.9,11.9s-1.1,8.2-2.9,11.9h-4.9
			V57.8z"/>
		<path class="st0" d="M80.2,46c0-4.2,1.1-8.2,2.9-11.9H88c-1.8,3.7-2.9,7.7-2.9,11.9s1.1,8.2,2.9,11.9h-4.9
			C81.3,54.1,80.2,50.2,80.2,46z"/>
		<path class="st0" d="M98.7,49.9h5.3v5.3h-5.3V49.9z"/>
		<path class="st0" d="M114.6,57.8c1.8-3.7,2.9-7.7,2.9-11.9s-1.1-8.2-2.9-11.9h4.9c1.8,3.7,2.9,7.7,2.9,11.9s-1.1,8.2-2.9,11.9
			C119.5,57.8,114.6,57.8,114.6,57.8z"/>
		<path class="st0" d="M133.7,46c0-4.2,1.1-8.2,2.9-11.9h4.9c-1.8,3.7-2.9,7.7-2.9,11.9s1.1,8.2,2.9,11.9h-4.9
			C134.8,54.1,133.7,50.2,133.7,46z"/>
		<path class="st0" d="M152.1,49.9h5.3v5.3h-5.3V49.9z"/>
		<path class="st0" d="M168,57.8c1.8-3.7,2.9-7.7,2.9-11.9s-1.1-8.2-2.9-11.9h4.9c1.8,3.7,2.9,7.7,2.9,11.9s-1.1,8.2-2.9,11.9
			C172.9,57.8,168,57.8,168,57.8z"/>
		<path class="st0" d="M187.2,46c0-4.2,1.1-8.2,2.9-11.9h4.9c-1.8,3.7-2.9,7.7-2.9,11.9s1.1,8.2,2.9,11.9h-4.9
			C188.3,54.1,187.2,50.2,187.2,46z"/>
		<path class="st0" d="M205.6,49.9h5.3v5.3h-5.3V49.9z"/>
		<path class="st0" d="M221.5,57.8c1.8-3.7,2.9-7.7,2.9-11.9s-1.1-8.2-2.9-11.9h4.9c1.8,3.7,2.9,7.7,2.9,11.9s-1.1,8.2-2.9,11.9
			C226.4,57.8,221.5,57.8,221.5,57.8z"/>
		<path class="st0" d="M240.7,46c0-4.2,1.1-8.2,2.9-11.9h4.9c-1.8,3.7-2.9,7.7-2.9,11.9s1.1,8.2,2.9,11.9h-4.9
			C241.7,54.1,240.7,50.2,240.7,46z"/>
		<path class="st0" d="M259.1,49.9h5.3v5.3h-5.3V49.9z"/>
		<path class="st0" d="M275,57.8c1.8-3.7,2.9-7.7,2.9-11.9s-1.1-8.2-2.9-11.9h4.9c1.8,3.7,2.9,7.7,2.9,11.9s-1.1,8.2-2.9,11.9
			C279.9,57.8,275,57.8,275,57.8z"/>
		<path class="st0" d="M294.2,46c0-4.2,1.1-8.2,2.9-11.9h4.9c-1.8,3.7-2.9,7.7-2.9,11.9s1.1,8.2,2.9,11.9h-4.9
			C295.2,54.1,294.2,50.2,294.2,46z"/>
		<path class="st0" d="M312.6,49.9h5.3v5.3h-5.3V49.9z"/>
		<path class="st0" d="M328.5,57.8c1.8-3.7,2.9-7.7,2.9-11.9s-1.1-8.2-2.9-11.9h4.9c1.8,3.7,2.9,7.7,2.9,11.9s-1.1,8.2-2.9,11.9
			C333.4,57.8,328.5,57.8,328.5,57.8z"/>
		<path class="st0" d="M347.7,46c0-4.2,1.1-8.2,2.9-11.9h4.9c-1.8,3.7-2.9,7.7-2.9,11.9s1.1,8.2,2.9,11.9h-4.9
			C348.7,54.1,347.7,50.2,347.7,46z"/>
		<path class="st0" d="M366.1,49.9h5.3v5.3h-5.3V49.9z"/>
		<path class="st0" d="M382,57.8c1.8-3.7,2.9-7.7,2.9-11.9s-1.1-8.2-2.9-11.9h4.9c1.8,3.7,2.9,7.7,2.9,11.9s-1.1,8.2-2.9,11.9
			C386.9,57.8,382,57.8,382,57.8z"/>
		<path class="st0" d="M401.1,46c0-4.2,1.1-8.2,2.9-11.9h4.9c-1.8,3.7-2.9,7.7-2.9,11.9s1.1,8.2,2.9,11.9H404
			C402.2,54.1,401.1,50.2,401.1,46z"/>
		<path class="st0" d="M419.6,49.9h5.3v5.3h-5.3V49.9z"/>
		<path class="st0" d="M435.5,57.8c1.8-3.7,2.9-7.7,2.9-11.9s-1.1-8.2-2.9-11.9h4.9c1.8,3.7,2.9,7.7,2.9,11.9s-1.1,8.2-2.9,11.9
			C440.4,57.8,435.5,57.8,435.5,57.8z"/>
		<path class="st0" d="M454.6,46c0-4.2,1.1-8.2,2.9-11.9h4.9c-1.8,3.7-2.9,7.7-2.9,11.9s1.1,8.2,2.9,11.9h-4.9
			C455.7,54.1,454.6,50.2,454.6,46z"/>
	</g>
	<g>
		<g>
			<path class="st0" d="M0,11.9C0,7.7,1.1,3.7,2.9,0h4.9C5.9,3.7,4.9,7.7,4.9,11.9S6,20.1,7.8,23.8H2.9C1.1,20.1,0,16.1,0,11.9z"/>
			<path class="st0" d="M18.4,15.8h5.3v5.3h-5.3C18.4,21.1,18.4,15.8,18.4,15.8z"/>
			<path class="st0" d="M34.3,23.8c1.8-3.7,2.9-7.7,2.9-11.9s-1-8.2-2.9-11.9h4.9c1.8,3.7,2.9,7.7,2.9,11.9s-1.1,8.2-2.9,11.9H34.3z
				"/>
			<path class="st0" d="M53.5,11.9c0-4.2,1.1-8.2,2.9-11.9h4.9c-1.8,3.7-2.9,7.7-2.9,11.9s1.1,8.2,2.9,11.9h-4.9
				C54.5,20.1,53.5,16.1,53.5,11.9z"/>
			<path class="st0" d="M71.9,15.8h5.3v5.3h-5.3V15.8z"/>
			<path class="st0" d="M87.8,23.8c1.8-3.7,2.9-7.7,2.9-11.9s-1-8.2-2.9-11.9h4.9c1.8,3.7,2.9,7.7,2.9,11.9s-1.1,8.2-2.9,11.9H87.8z
				"/>
			<path class="st0" d="M107,11.9c0-4.2,1.1-8.2,2.9-11.9h4.9c-1.8,3.7-2.9,7.7-2.9,11.9s1.1,8.2,2.9,11.9h-4.9
				C108,20.1,107,16.1,107,11.9z"/>
			<path class="st0" d="M125.4,15.8h5.3v5.3h-5.3C125.4,21.1,125.4,15.8,125.4,15.8z"/>
			<path class="st0" d="M141.3,23.8c1.8-3.7,2.9-7.7,2.9-11.9s-1.1-8.2-2.9-11.9h4.9c1.8,3.7,2.9,7.7,2.9,11.9s-1.1,8.2-2.9,11.9
				H141.3z"/>
			<path class="st0" d="M160.5,11.9c0-4.2,1.1-8.2,2.9-11.9h4.9c-1.8,3.7-2.9,7.7-2.9,11.9s1.1,8.2,2.9,11.9h-4.9
				C161.5,20.1,160.5,16.1,160.5,11.9z"/>
			<path class="st0" d="M178.9,15.8h5.3v5.3h-5.3V15.8z"/>
			<path class="st0" d="M194.8,23.8c1.8-3.7,2.9-7.7,2.9-11.9s-1.1-8.2-2.9-11.9h4.9c1.8,3.7,2.9,7.7,2.9,11.9s-1.1,8.2-2.9,11.9
				H194.8z"/>
			<path class="st0" d="M213.9,11.9c0-4.2,1.1-8.2,2.9-11.9h4.9c-1.8,3.7-2.9,7.7-2.9,11.9s1.1,8.2,2.9,11.9h-4.9
				C215,20.1,213.9,16.1,213.9,11.9z"/>
			<path class="st0" d="M232.4,15.8h5.3v5.3h-5.3V15.8z"/>
			<path class="st0" d="M248.3,23.8c1.8-3.7,2.9-7.7,2.9-11.9s-1.1-8.2-2.9-11.9h4.9c1.8,3.7,2.9,7.7,2.9,11.9s-1.1,8.2-2.9,11.9
				H248.3z"/>
			<path class="st0" d="M267.4,11.9c0-4.2,1.1-8.2,2.9-11.9h4.9c-1.8,3.7-2.9,7.7-2.9,11.9s1.1,8.2,2.9,11.9h-4.9
				C268.5,20.1,267.4,16.1,267.4,11.9z"/>
			<path class="st0" d="M285.9,15.8h5.3v5.3h-5.3V15.8z"/>
			<path class="st0" d="M301.8,23.8c1.8-3.7,2.9-7.7,2.9-11.9s-1.1-8.2-2.9-11.9h4.9c1.8,3.7,2.9,7.7,2.9,11.9s-1.1,8.2-2.9,11.9
				H301.8z"/>
			<path class="st0" d="M320.9,11.9c0-4.2,1.1-8.2,2.9-11.9h4.9c-1.8,3.7-2.9,7.7-2.9,11.9s1.1,8.2,2.9,11.9h-4.9
				C322,20.1,320.9,16.1,320.9,11.9z"/>
			<path class="st0" d="M339.3,15.8h5.3v5.3h-5.3V15.8z"/>
			<path class="st0" d="M355.2,23.8c1.8-3.7,2.9-7.7,2.9-11.9S357,3.7,355.2,0h4.9c1.8,3.7,2.9,7.7,2.9,11.9s-1.1,8.2-2.9,11.9
				H355.2z"/>
			<path class="st0" d="M374.4,11.9c0-4.2,1.1-8.2,2.9-11.9h4.9c-1.8,3.7-2.9,7.7-2.9,11.9s1.1,8.2,2.9,11.9h-4.9
				C375.5,20.1,374.4,16.1,374.4,11.9z"/>
			<path class="st0" d="M392.8,15.8h5.3v5.3h-5.3V15.8z"/>
			<path class="st0" d="M408.7,23.8c1.8-3.7,2.9-7.7,2.9-11.9s-1.1-8.2-2.9-11.9h4.9c1.8,3.7,2.9,7.7,2.9,11.9s-1.1,8.2-2.9,11.9
				H408.7z"/>
			<path class="st0" d="M427.9,11.9c0-4.2,1.1-8.2,2.9-11.9h4.9c-1.8,3.7-2.9,7.7-2.9,11.9s1.1,8.2,2.9,11.9h-4.9
				C428.9,20.1,427.9,16.1,427.9,11.9z"/>
			<path class="st0" d="M446.3,15.8h5.3v5.3h-5.3V15.8z"/>
			<path class="st0" d="M462.2,23.8c1.8-3.7,2.9-7.7,2.9-11.9S464,3.7,462.2,0h4.9c1.8,3.7,2.9,7.7,2.9,11.9s-1.1,8.2-2.9,11.9
				H462.2z"/>
		</g>
	</g>
	<g>
		<g>
			<path class="st0" d="M0,80c0-4.2,1.1-8.2,2.9-11.9h4.9C5.9,71.9,4.9,75.8,4.9,80S6,88.2,7.8,91.9H2.9C1.1,88.2,0,84.3,0,80z"/>
			<path class="st0" d="M18.4,84h5.3v5.3h-5.3C18.4,89.3,18.4,84,18.4,84z"/>
			<path class="st0" d="M34.3,91.9c1.8-3.7,2.9-7.7,2.9-11.9s-1.1-8.2-2.9-11.9h4.9c1.8,3.7,2.9,7.7,2.9,11.9s-1.1,8.2-2.9,11.9
				H34.3z"/>
			<path class="st0" d="M53.5,80c0-4.2,1.1-8.2,2.9-11.9h4.9c-1.8,3.7-2.9,7.7-2.9,11.9s1.1,8.2,2.9,11.9h-4.9
				C54.5,88.2,53.5,84.3,53.5,80z"/>
			<path class="st0" d="M71.9,84h5.3v5.3h-5.3V84z"/>
			<path class="st0" d="M87.8,91.9c1.8-3.7,2.9-7.7,2.9-11.9s-1.1-8.2-2.9-11.9h4.9c1.8,3.7,2.9,7.7,2.9,11.9s-1.1,8.2-2.9,11.9
				H87.8z"/>
			<path class="st0" d="M107,80c0-4.2,1.1-8.2,2.9-11.9h4.9c-1.8,3.7-2.9,7.7-2.9,11.9s1.1,8.2,2.9,11.9h-4.9
				C108,88.2,107,84.3,107,80z"/>
			<path class="st0" d="M125.4,84h5.3v5.3h-5.3C125.4,89.3,125.4,84,125.4,84z"/>
			<path class="st0" d="M141.3,91.9c1.8-3.7,2.9-7.7,2.9-11.9s-1.1-8.2-2.9-11.9h4.9c1.8,3.7,2.9,7.7,2.9,11.9s-1.1,8.2-2.9,11.9
				H141.3z"/>
			<path class="st0" d="M160.5,80c0-4.2,1.1-8.2,2.9-11.9h4.9c-1.8,3.7-2.9,7.7-2.9,11.9s1.1,8.2,2.9,11.9h-4.9
				C161.5,88.2,160.5,84.3,160.5,80z"/>
			<path class="st0" d="M178.9,84h5.3v5.3h-5.3V84z"/>
			<path class="st0" d="M194.8,91.9c1.8-3.7,2.9-7.7,2.9-11.9s-1.1-8.2-2.9-11.9h4.9c1.8,3.7,2.9,7.7,2.9,11.9s-1.1,8.2-2.9,11.9
				H194.8z"/>
			<path class="st0" d="M213.9,80c0-4.2,1.1-8.2,2.9-11.9h4.9c-1.8,3.7-2.9,7.7-2.9,11.9s1.1,8.2,2.9,11.9h-4.9
				C215,88.2,213.9,84.3,213.9,80z"/>
			<path class="st0" d="M232.4,84h5.3v5.3h-5.3V84z"/>
			<path class="st0" d="M248.3,91.9c1.8-3.7,2.9-7.7,2.9-11.9s-1.1-8.2-2.9-11.9h4.9c1.8,3.7,2.9,7.7,2.9,11.9s-1.1,8.2-2.9,11.9
				H248.3z"/>
			<path class="st0" d="M267.4,80c0-4.2,1.1-8.2,2.9-11.9h4.9c-1.8,3.7-2.9,7.7-2.9,11.9s1.1,8.2,2.9,11.9h-4.9
				C268.5,88.2,267.4,84.3,267.4,80z"/>
			<path class="st0" d="M285.9,84h5.3v5.3h-5.3V84L285.9,84z"/>
			<path class="st0" d="M301.8,91.9c1.8-3.7,2.9-7.7,2.9-11.9s-1.1-8.2-2.9-11.9h4.9c1.8,3.7,2.9,7.7,2.9,11.9s-1.1,8.2-2.9,11.9
				H301.8z"/>
			<path class="st0" d="M320.9,80c0-4.2,1.1-8.2,2.9-11.9h4.9c-1.8,3.7-2.9,7.7-2.9,11.9s1.1,8.2,2.9,11.9h-4.9
				C322,88.2,320.9,84.3,320.9,80z"/>
			<path class="st0" d="M339.3,84h5.3v5.3h-5.3V84z"/>
			<path class="st0" d="M355.2,91.9c1.8-3.7,2.9-7.7,2.9-11.9s-1.1-8.2-2.9-11.9h4.9c1.8,3.7,2.9,7.7,2.9,11.9s-1.1,8.2-2.9,11.9
				H355.2z"/>
			<path class="st0" d="M374.4,80c0-4.2,1.1-8.2,2.9-11.9h4.9c-1.8,3.7-2.9,7.7-2.9,11.9s1.1,8.2,2.9,11.9h-4.9
				C375.5,88.2,374.4,84.3,374.4,80z"/>
			<path class="st0" d="M392.8,84h5.3v5.3h-5.3V84z"/>
			<path class="st0" d="M408.7,91.9c1.8-3.7,2.9-7.7,2.9-11.9s-1.1-8.2-2.9-11.9h4.9c1.8,3.7,2.9,7.7,2.9,11.9s-1.1,8.2-2.9,11.9
				H408.7z"/>
			<path class="st0" d="M427.9,80c0-4.2,1.1-8.2,2.9-11.9h4.9c-1.8,3.7-2.9,7.7-2.9,11.9s1.1,8.2,2.9,11.9h-4.9
				C428.9,88.2,427.9,84.3,427.9,80z"/>
			<path class="st0" d="M446.3,84h5.3v5.3h-5.3V84L446.3,84z"/>
			<path class="st0" d="M462.2,91.9c1.8-3.7,2.9-7.7,2.9-11.9s-1.1-8.2-2.9-11.9h4.9c1.8,3.7,2.9,7.7,2.9,11.9s-1.1,8.2-2.9,11.9
				H462.2z"/>
		</g>
	</g>
	<g>
		<path class="st0" d="M7.6,194.1c1.8-3.7,2.9-7.7,2.9-11.9s-1.1-8.2-2.9-11.9h4.9c1.8,3.7,2.9,7.7,2.9,11.9s-1.1,8.2-2.9,11.9H7.6z
			"/>
		<path class="st0" d="M26.7,182.3c0-4.2,1.1-8.2,2.9-11.9h4.9c-1.8,3.7-2.9,7.7-2.9,11.9s1.1,8.2,2.9,11.9h-4.9
			C27.8,190.5,26.7,186.5,26.7,182.3z"/>
		<path class="st0" d="M45.2,186.2h5.3v5.3h-5.3V186.2z"/>
		<path class="st0" d="M61.1,194.1c1.8-3.7,2.9-7.7,2.9-11.9s-1.1-8.2-2.9-11.9H66c1.8,3.7,2.9,7.7,2.9,11.9s-1.1,8.2-2.9,11.9H61.1
			z"/>
		<path class="st0" d="M80.2,182.3c0-4.2,1.1-8.2,2.9-11.9H88c-1.8,3.7-2.9,7.7-2.9,11.9s1.1,8.2,2.9,11.9h-4.9
			C81.3,190.5,80.2,186.5,80.2,182.3z"/>
		<path class="st0" d="M98.7,186.2h5.3v5.3h-5.3V186.2z"/>
		<path class="st0" d="M114.6,194.1c1.8-3.7,2.9-7.7,2.9-11.9s-1.1-8.2-2.9-11.9h4.9c1.8,3.7,2.9,7.7,2.9,11.9s-1.1,8.2-2.9,11.9
			H114.6z"/>
		<path class="st0" d="M133.7,182.3c0-4.2,1.1-8.2,2.9-11.9h4.9c-1.8,3.7-2.9,7.7-2.9,11.9s1.1,8.2,2.9,11.9h-4.9
			C134.8,190.5,133.7,186.5,133.7,182.3z"/>
		<path class="st0" d="M152.1,186.2h5.3v5.3h-5.3V186.2z"/>
		<path class="st0" d="M168,194.1c1.8-3.7,2.9-7.7,2.9-11.9s-1.1-8.2-2.9-11.9h4.9c1.8,3.7,2.9,7.7,2.9,11.9s-1.1,8.2-2.9,11.9H168z
			"/>
		<path class="st0" d="M187.2,182.3c0-4.2,1.1-8.2,2.9-11.9h4.9c-1.8,3.7-2.9,7.7-2.9,11.9s1.1,8.2,2.9,11.9h-4.9
			C188.3,190.5,187.2,186.5,187.2,182.3z"/>
		<path class="st0" d="M205.6,186.2h5.3v5.3h-5.3V186.2z"/>
		<path class="st0" d="M221.5,194.1c1.8-3.7,2.9-7.7,2.9-11.9s-1.1-8.2-2.9-11.9h4.9c1.8,3.7,2.9,7.7,2.9,11.9s-1.1,8.2-2.9,11.9
			H221.5z"/>
		<path class="st0" d="M240.7,182.3c0-4.2,1.1-8.2,2.9-11.9h4.9c-1.8,3.7-2.9,7.7-2.9,11.9s1.1,8.2,2.9,11.9h-4.9
			C241.7,190.5,240.7,186.5,240.7,182.3z"/>
		<path class="st0" d="M259.1,186.2h5.3v5.3h-5.3V186.2z"/>
		<path class="st0" d="M275,194.1c1.8-3.7,2.9-7.7,2.9-11.9s-1.1-8.2-2.9-11.9h4.9c1.8,3.7,2.9,7.7,2.9,11.9s-1.1,8.2-2.9,11.9H275z
			"/>
		<path class="st0" d="M294.2,182.3c0-4.2,1.1-8.2,2.9-11.9h4.9c-1.8,3.7-2.9,7.7-2.9,11.9s1.1,8.2,2.9,11.9h-4.9
			C295.2,190.5,294.2,186.5,294.2,182.3z"/>
		<path class="st0" d="M312.6,186.2h5.3v5.3h-5.3V186.2z"/>
		<path class="st0" d="M328.5,194.1c1.8-3.7,2.9-7.7,2.9-11.9s-1.1-8.2-2.9-11.9h4.9c1.8,3.7,2.9,7.7,2.9,11.9s-1.1,8.2-2.9,11.9
			H328.5z"/>
		<path class="st0" d="M347.7,182.3c0-4.2,1.1-8.2,2.9-11.9h4.9c-1.8,3.7-2.9,7.7-2.9,11.9s1.1,8.2,2.9,11.9h-4.9
			C348.7,190.5,347.7,186.5,347.7,182.3z"/>
		<path class="st0" d="M366.1,186.2h5.3v5.3h-5.3V186.2z"/>
		<path class="st0" d="M382,194.1c1.8-3.7,2.9-7.7,2.9-11.9s-1.1-8.2-2.9-11.9h4.9c1.8,3.7,2.9,7.7,2.9,11.9s-1.1,8.2-2.9,11.9H382z
			"/>
		<path class="st0" d="M401.1,182.3c0-4.2,1.1-8.2,2.9-11.9h4.9c-1.8,3.7-2.9,7.7-2.9,11.9s1.1,8.2,2.9,11.9H404
			C402.2,190.5,401.1,186.5,401.1,182.3z"/>
		<path class="st0" d="M419.6,186.2h5.3v5.3h-5.3V186.2z"/>
		<path class="st0" d="M435.5,194.1c1.8-3.7,2.9-7.7,2.9-11.9s-1.1-8.2-2.9-11.9h4.9c1.8,3.7,2.9,7.7,2.9,11.9s-1.1,8.2-2.9,11.9
			H435.5z"/>
		<path class="st0" d="M454.6,182.3c0-4.2,1.1-8.2,2.9-11.9h4.9c-1.8,3.7-2.9,7.7-2.9,11.9s1.1,8.2,2.9,11.9h-4.9
			C455.7,190.5,454.6,186.5,454.6,182.3z"/>
	</g>
	<g>
		<g>
			<path class="st0" d="M0,148.2c0-4.2,1.1-8.2,2.9-11.9h4.9C6,140,4.9,144,4.9,148.2s1.1,8.2,2.9,11.9H2.9
				C1.1,156.4,0,152.4,0,148.2z"/>
			<path class="st0" d="M18.4,152.2h5.3v5.3h-5.3C18.4,157.5,18.4,152.2,18.4,152.2z"/>
			<path class="st0" d="M34.3,160.1c1.8-3.7,2.9-7.7,2.9-11.9s-1.1-8.2-2.9-11.9h4.9c1.8,3.7,2.9,7.7,2.9,11.9s-1.1,8.2-2.9,11.9
				H34.3z"/>
			<path class="st0" d="M53.5,148.2c0-4.2,1.1-8.2,2.9-11.9h4.9c-1.8,3.7-2.9,7.7-2.9,11.9s1.1,8.2,2.9,11.9h-4.9
				C54.5,156.4,53.5,152.4,53.5,148.2z"/>
			<path class="st0" d="M71.9,152.2h5.3v5.3h-5.3V152.2z"/>
			<path class="st0" d="M87.8,160.1c1.8-3.7,2.9-7.7,2.9-11.9s-1.1-8.2-2.9-11.9h4.9c1.8,3.7,2.9,7.7,2.9,11.9s-1.1,8.2-2.9,11.9
				H87.8z"/>
			<path class="st0" d="M107,148.2c0-4.2,1.1-8.2,2.9-11.9h4.9c-1.8,3.7-2.9,7.7-2.9,11.9s1.1,8.2,2.9,11.9h-4.9
				C108,156.4,107,152.4,107,148.2z"/>
			<path class="st0" d="M125.4,152.2h5.3v5.3h-5.3C125.4,157.4,125.4,152.2,125.4,152.2z"/>
			<path class="st0" d="M141.3,160.1c1.8-3.7,2.9-7.7,2.9-11.9s-1.1-8.2-2.9-11.9h4.9c1.8,3.7,2.9,7.7,2.9,11.9s-1.1,8.2-2.9,11.9
				H141.3z"/>
			<path class="st0" d="M160.5,148.2c0-4.2,1.1-8.2,2.9-11.9h4.9c-1.8,3.7-2.9,7.7-2.9,11.9s1.1,8.2,2.9,11.9h-4.9
				C161.5,156.4,160.5,152.4,160.5,148.2z"/>
			<path class="st0" d="M178.9,152.2h5.3v5.3h-5.3V152.2z"/>
			<path class="st0" d="M194.8,160.1c1.8-3.7,2.9-7.7,2.9-11.9s-1.1-8.2-2.9-11.9h4.9c1.8,3.7,2.9,7.7,2.9,11.9s-1.1,8.2-2.9,11.9
				H194.8z"/>
			<path class="st0" d="M213.9,148.2c0-4.2,1.1-8.2,2.9-11.9h4.9c-1.8,3.7-2.9,7.7-2.9,11.9s1.1,8.2,2.9,11.9h-4.9
				C215,156.4,213.9,152.4,213.9,148.2z"/>
			<path class="st0" d="M232.4,152.2h5.3v5.3h-5.3V152.2z"/>
			<path class="st0" d="M248.3,160.1c1.8-3.7,2.9-7.7,2.9-11.9s-1.1-8.2-2.9-11.9h4.9c1.8,3.7,2.9,7.7,2.9,11.9s-1.1,8.2-2.9,11.9
				H248.3z"/>
			<path class="st0" d="M267.4,148.2c0-4.2,1.1-8.2,2.9-11.9h4.9c-1.8,3.7-2.9,7.7-2.9,11.9s1.1,8.2,2.9,11.9h-4.9
				C268.5,156.4,267.4,152.4,267.4,148.2z"/>
			<path class="st0" d="M285.9,152.2h5.3v5.3h-5.3V152.2L285.9,152.2z"/>
			<path class="st0" d="M301.8,160.1c1.8-3.7,2.9-7.7,2.9-11.9s-1.1-8.2-2.9-11.9h4.9c1.8,3.7,2.9,7.7,2.9,11.9s-1.1,8.2-2.9,11.9
				H301.8z"/>
			<path class="st0" d="M320.9,148.2c0-4.2,1.1-8.2,2.9-11.9h4.9c-1.8,3.7-2.9,7.7-2.9,11.9s1.1,8.2,2.9,11.9h-4.9
				C322,156.4,320.9,152.4,320.9,148.2z"/>
			<path class="st0" d="M339.3,152.2h5.3v5.3h-5.3V152.2z"/>
			<path class="st0" d="M355.2,160.1c1.8-3.7,2.9-7.7,2.9-11.9s-1.1-8.2-2.9-11.9h4.9c1.8,3.7,2.9,7.7,2.9,11.9s-1.1,8.2-2.9,11.9
				H355.2z"/>
			<path class="st0" d="M374.4,148.2c0-4.2,1.1-8.2,2.9-11.9h4.9c-1.8,3.7-2.9,7.7-2.9,11.9s1.1,8.2,2.9,11.9h-4.9
				C375.5,156.4,374.4,152.4,374.4,148.2z"/>
			<path class="st0" d="M392.8,152.2h5.3v5.3h-5.3V152.2z"/>
			<path class="st0" d="M408.7,160.1c1.8-3.7,2.9-7.7,2.9-11.9s-1.1-8.2-2.9-11.9h4.9c1.8,3.7,2.9,7.7,2.9,11.9s-1.1,8.2-2.9,11.9
				H408.7z"/>
			<path class="st0" d="M427.9,148.2c0-4.2,1.1-8.2,2.9-11.9h4.9c-1.8,3.7-2.9,7.7-2.9,11.9s1.1,8.2,2.9,11.9h-4.9
				C428.9,156.4,427.9,152.4,427.9,148.2z"/>
			<path class="st0" d="M446.3,152.2h5.3v5.3h-5.3V152.2L446.3,152.2z"/>
			<path class="st0" d="M462.2,160.1c1.8-3.7,2.9-7.7,2.9-11.9s-1.1-8.2-2.9-11.9h4.9c1.8,3.7,2.9,7.7,2.9,11.9s-1.1,8.2-2.9,11.9
				H462.2z"/>
		</g>
	</g>
	<g>
		<path class="st0" d="M11.3,262.3c1.8-3.7,2.9-7.7,2.9-11.9s-1.1-8.2-2.9-11.9h4.4c1.8,3.7,2.9,7.7,2.9,11.9s-1.1,8.2-2.9,11.9
			H11.3z"/>
		<path class="st0" d="M30.2,250.4c0-4.2,1.1-8.2,2.9-11.9h4.4c-1.8,3.7-2.9,7.7-2.9,11.9s1.1,8.2,2.9,11.9h-4.4
			C31.2,258.6,30.2,254.7,30.2,250.4z"/>
		<path class="st0" d="M48.4,254.9h4.7v4.7h-4.7V254.9z"/>
		<path class="st0" d="M63.9,262.3c1.8-3.7,2.9-7.7,2.9-11.9s-1.1-8.2-2.9-11.9h4.4c1.8,3.7,2.9,7.7,2.9,11.9s-1.1,8.2-2.9,11.9
			H63.9z"/>
		<path class="st0" d="M82.8,250.4c0-4.2,1.1-8.2,2.9-11.9h4.4c-1.8,3.7-2.9,7.7-2.9,11.9s1.1,8.2,2.9,11.9h-4.4
			C83.9,258.6,82.8,254.7,82.8,250.4z"/>
		<path class="st0" d="M101,254.9h4.7v4.7H101V254.9z"/>
		<path class="st0" d="M116.6,262.3c1.8-3.7,2.9-7.7,2.9-11.9s-1.1-8.2-2.9-11.9h4.4c1.8,3.7,2.9,7.7,2.9,11.9s-1.1,8.2-2.9,11.9
			H116.6z"/>
		<path class="st0" d="M135.5,250.4c0-4.2,1.1-8.2,2.9-11.9h4.4c-1.8,3.7-2.9,7.7-2.9,11.9s1.1,8.2,2.9,11.9h-4.4
			C136.6,258.6,135.5,254.7,135.5,250.4z"/>
		<path class="st0" d="M153.7,254.9h4.7v4.7h-4.7V254.9z"/>
		<path class="st0" d="M169.2,262.3c1.8-3.7,2.9-7.7,2.9-11.9s-1.1-8.2-2.9-11.9h4.4c1.8,3.7,2.9,7.7,2.9,11.9s-1.1,8.2-2.9,11.9
			H169.2z"/>
		<path class="st0" d="M188.2,250.4c0-4.2,1.1-8.2,2.9-11.9h4.4c-1.8,3.7-2.9,7.7-2.9,11.9s1.1,8.2,2.9,11.9h-4.4
			C189.2,258.6,188.2,254.7,188.2,250.4z"/>
		<path class="st0" d="M206.3,254.9h4.7v4.7h-4.7V254.9z"/>
		<path class="st0" d="M221.9,262.3c1.8-3.7,2.9-7.7,2.9-11.9s-1.1-8.2-2.9-11.9h4.4c1.8,3.7,2.9,7.7,2.9,11.9s-1.1,8.2-2.9,11.9
			H221.9z"/>
		<path class="st0" d="M240.8,250.4c0-4.2,1.1-8.2,2.9-11.9h4.4c-1.8,3.7-2.9,7.7-2.9,11.9s1.1,8.2,2.9,11.9h-4.4
			C241.9,258.6,240.8,254.7,240.8,250.4z"/>
		<path class="st0" d="M259,254.9h4.7v4.7H259V254.9z"/>
		<path class="st0" d="M274.5,262.3c1.8-3.7,2.9-7.7,2.9-11.9s-1.1-8.2-2.9-11.9h4.4c1.8,3.7,2.9,7.7,2.9,11.9s-1.1,8.2-2.9,11.9
			H274.5z"/>
		<path class="st0" d="M293.5,250.4c0-4.2,1.1-8.2,2.9-11.9h4.4c-1.8,3.7-2.9,7.7-2.9,11.9s1.1,8.2,2.9,11.9h-4.4
			C294.5,258.6,293.5,254.7,293.5,250.4z"/>
		<path class="st0" d="M311.6,254.9h4.7v4.7h-4.7V254.9z"/>
		<path class="st0" d="M327.2,262.3c1.8-3.7,2.9-7.7,2.9-11.9s-1.1-8.2-2.9-11.9h4.4c1.8,3.7,2.9,7.7,2.9,11.9s-1.1,8.2-2.9,11.9
			H327.2z"/>
		<path class="st0" d="M346.1,250.4c0-4.2,1.1-8.2,2.9-11.9h4.4c-1.8,3.7-2.9,7.7-2.9,11.9s1.1,8.2,2.9,11.9H349
			C347.2,258.6,346.1,254.7,346.1,250.4z"/>
		<path class="st0" d="M364.3,254.9h4.7v4.7h-4.7V254.9z"/>
		<path class="st0" d="M379.8,262.3c1.8-3.7,2.9-7.7,2.9-11.9s-1.1-8.2-2.9-11.9h4.4c1.8,3.7,2.9,7.7,2.9,11.9s-1.1,8.2-2.9,11.9
			H379.8z"/>
		<path class="st0" d="M398.8,250.4c0-4.2,1.1-8.2,2.9-11.9h4.4c-1.8,3.7-2.9,7.7-2.9,11.9s1.1,8.2,2.9,11.9h-4.4
			C399.8,258.6,398.8,254.7,398.8,250.4z"/>
		<path class="st0" d="M416.9,254.9h4.7v4.7h-4.7V254.9z"/>
		<path class="st0" d="M432.5,262.3c1.8-3.7,2.9-7.7,2.9-11.9s-1.1-8.2-2.9-11.9h4.4c1.8,3.7,2.9,7.7,2.9,11.9s-1.1,8.2-2.9,11.9
			H432.5z"/>
		<path class="st0" d="M451.4,250.4c0-4.2,1.1-8.2,2.9-11.9h4.4c-1.8,3.7-2.9,7.7-2.9,11.9s1.1,8.2,2.9,11.9h-4.4
			C452.5,258.6,451.4,254.7,451.4,250.4z"/>
	</g>
	<g>
		<g>
			<path class="st0" d="M0,216.4c0-4.2,1.1-8.2,2.9-11.9h4.9c-1.8,3.7-2.9,7.7-2.9,11.9s1.1,8.2,2.9,11.9H2.9
				C1.1,224.5,0,220.6,0,216.4z"/>
			<path class="st0" d="M18.4,220.3h5.3v5.3h-5.3C18.4,225.6,18.4,220.3,18.4,220.3z"/>
			<path class="st0" d="M34.3,228.2c1.8-3.7,2.9-7.7,2.9-11.9s-1.1-8.2-2.9-11.9h4.9c1.8,3.7,2.9,7.7,2.9,11.9s-1.1,8.2-2.9,11.9
				H34.3z"/>
			<path class="st0" d="M53.5,216.4c0-4.2,1.1-8.2,2.9-11.9h4.9c-1.8,3.7-2.9,7.7-2.9,11.9s1.1,8.2,2.9,11.9h-4.9
				C54.5,224.5,53.5,220.6,53.5,216.4z"/>
			<path class="st0" d="M71.9,220.3h5.3v5.3h-5.3V220.3z"/>
			<path class="st0" d="M87.8,228.2c1.8-3.7,2.9-7.7,2.9-11.9s-1.1-8.2-2.9-11.9h4.9c1.8,3.7,2.9,7.7,2.9,11.9s-1.1,8.2-2.9,11.9
				H87.8z"/>
			<path class="st0" d="M107,216.4c0-4.2,1.1-8.2,2.9-11.9h4.9c-1.8,3.7-2.9,7.7-2.9,11.9s1.1,8.2,2.9,11.9h-4.9
				C108,224.5,107,220.6,107,216.4z"/>
			<path class="st0" d="M125.4,220.3h5.3v5.3h-5.3C125.4,225.6,125.4,220.3,125.4,220.3z"/>
			<path class="st0" d="M141.3,228.2c1.8-3.7,2.9-7.7,2.9-11.9s-1.1-8.2-2.9-11.9h4.9c1.8,3.7,2.9,7.7,2.9,11.9s-1.1,8.2-2.9,11.9
				H141.3z"/>
			<path class="st0" d="M160.5,216.4c0-4.2,1.1-8.2,2.9-11.9h4.9c-1.8,3.7-2.9,7.7-2.9,11.9s1.1,8.2,2.9,11.9h-4.9
				C161.5,224.5,160.5,220.6,160.5,216.4z"/>
			<path class="st0" d="M178.9,220.3h5.3v5.3h-5.3V220.3z"/>
			<path class="st0" d="M194.8,228.2c1.8-3.7,2.9-7.7,2.9-11.9s-1.1-8.2-2.9-11.9h4.9c1.8,3.7,2.9,7.7,2.9,11.9s-1.1,8.2-2.9,11.9
				H194.8z"/>
			<path class="st0" d="M213.9,216.4c0-4.2,1.1-8.2,2.9-11.9h4.9c-1.8,3.7-2.9,7.7-2.9,11.9s1.1,8.2,2.9,11.9h-4.9
				C215,224.5,213.9,220.6,213.9,216.4z"/>
			<path class="st0" d="M232.4,220.3h5.3v5.3h-5.3V220.3z"/>
			<path class="st0" d="M248.3,228.2c1.8-3.7,2.9-7.7,2.9-11.9s-1.1-8.2-2.9-11.9h4.9c1.8,3.7,2.9,7.7,2.9,11.9s-1.1,8.2-2.9,11.9
				H248.3z"/>
			<path class="st0" d="M267.4,216.4c0-4.2,1.1-8.2,2.9-11.9h4.9c-1.8,3.7-2.9,7.7-2.9,11.9s1.1,8.2,2.9,11.9h-4.9
				C268.5,224.5,267.4,220.6,267.4,216.4z"/>
			<path class="st0" d="M285.9,220.3h5.3v5.3h-5.3V220.3L285.9,220.3z"/>
			<path class="st0" d="M301.8,228.2c1.8-3.7,2.9-7.7,2.9-11.9s-1.1-8.2-2.9-11.9h4.9c1.8,3.7,2.9,7.7,2.9,11.9s-1.1,8.2-2.9,11.9
				H301.8z"/>
			<path class="st0" d="M320.9,216.4c0-4.2,1.1-8.2,2.9-11.9h4.9c-1.8,3.7-2.9,7.7-2.9,11.9s1.1,8.2,2.9,11.9h-4.9
				C322,224.5,320.9,220.6,320.9,216.4z"/>
			<path class="st0" d="M339.3,220.3h5.3v5.3h-5.3V220.3z"/>
			<path class="st0" d="M355.2,228.2c1.8-3.7,2.9-7.7,2.9-11.9s-1.1-8.2-2.9-11.9h4.9c1.8,3.7,2.9,7.7,2.9,11.9s-1.1,8.2-2.9,11.9
				H355.2z"/>
			<path class="st0" d="M374.4,216.4c0-4.2,1.1-8.2,2.9-11.9h4.9c-1.8,3.7-2.9,7.7-2.9,11.9s1.1,8.2,2.9,11.9h-4.9
				C375.5,224.5,374.4,220.6,374.4,216.4z"/>
			<path class="st0" d="M392.8,220.3h5.3v5.3h-5.3V220.3z"/>
			<path class="st0" d="M408.7,228.2c1.8-3.7,2.9-7.7,2.9-11.9s-1.1-8.2-2.9-11.9h4.9c1.8,3.7,2.9,7.7,2.9,11.9s-1.1,8.2-2.9,11.9
				H408.7z"/>
			<path class="st0" d="M427.9,216.4c0-4.2,1.1-8.2,2.9-11.9h4.9c-1.8,3.7-2.9,7.7-2.9,11.9s1.1,8.2,2.9,11.9h-4.9
				C428.9,224.5,427.9,220.6,427.9,216.4z"/>
			<path class="st0" d="M446.3,220.3h5.3v5.3h-5.3V220.3L446.3,220.3z"/>
			<path class="st0" d="M462.2,228.2c1.8-3.7,2.9-7.7,2.9-11.9s-1.1-8.2-2.9-11.9h4.9c1.8,3.7,2.9,7.7,2.9,11.9s-1.1,8.2-2.9,11.9
				H462.2z"/>
		</g>
	</g>
	<g>
		<g>
			<path class="st0" d="M3.9,284.5c0-4.2,1.1-8.2,2.9-11.9h4.4c-1.8,3.7-2.9,7.7-2.9,11.9s1.1,8.2,2.9,11.9H6.8
				C4.9,292.7,3.9,288.7,3.9,284.5z"/>
			<path class="st0" d="M22,289h4.7v4.7H22V289z"/>
			<path class="st0" d="M37.6,296.4c1.8-3.7,2.9-7.7,2.9-11.9s-1.1-8.2-2.9-11.9H42c1.8,3.7,2.9,7.7,2.9,11.9s-1.1,8.2-2.9,11.9
				H37.6z"/>
			<path class="st0" d="M56.5,284.5c0-4.2,1.1-8.2,2.9-11.9h4.4c-1.8,3.7-2.9,7.7-2.9,11.9s1.1,8.2,2.9,11.9h-4.4
				C57.6,292.7,56.5,288.7,56.5,284.5z"/>
			<path class="st0" d="M74.7,289h4.7v4.7h-4.7V289z"/>
			<path class="st0" d="M90.2,296.4c1.8-3.7,2.9-7.7,2.9-11.9s-1.1-8.2-2.9-11.9h4.4c1.8,3.7,2.9,7.7,2.9,11.9s-1.1,8.2-2.9,11.9
				H90.2z"/>
			<path class="st0" d="M109.2,284.5c0-4.2,1.1-8.2,2.9-11.9h4.4c-1.8,3.7-2.9,7.7-2.9,11.9s1.1,8.2,2.9,11.9h-4.4
				C110.2,292.7,109.2,288.7,109.2,284.5z"/>
			<path class="st0" d="M127.3,289h4.7v4.7h-4.7C127.3,293.8,127.3,289,127.3,289z"/>
			<path class="st0" d="M142.9,296.4c1.8-3.7,2.9-7.7,2.9-11.9s-1.1-8.2-2.9-11.9h4.4c1.8,3.7,2.9,7.7,2.9,11.9s-1.1,8.2-2.9,11.9
				H142.9z"/>
			<path class="st0" d="M161.8,284.5c0-4.2,1.1-8.2,2.9-11.9h4.4c-1.8,3.7-2.9,7.7-2.9,11.9s1.1,8.2,2.9,11.9h-4.4
				C162.9,292.7,161.8,288.7,161.8,284.5z"/>
			<path class="st0" d="M180,289h4.7v4.7H180V289z"/>
			<path class="st0" d="M195.6,296.4c1.8-3.7,2.9-7.7,2.9-11.9s-1.1-8.2-2.9-11.9h4.4c1.8,3.7,2.9,7.7,2.9,11.9s-1.1,8.2-2.9,11.9
				H195.6z"/>
			<path class="st0" d="M214.5,284.5c0-4.2,1.1-8.2,2.9-11.9h4.4c-1.8,3.7-2.9,7.7-2.9,11.9s1.1,8.2,2.9,11.9h-4.4
				C215.5,292.7,214.5,288.7,214.5,284.5z"/>
			<path class="st0" d="M232.6,289h4.7v4.7h-4.7V289z"/>
			<path class="st0" d="M248.2,296.4c1.8-3.7,2.9-7.7,2.9-11.9s-1.1-8.2-2.9-11.9h4.4c1.8,3.7,2.9,7.7,2.9,11.9s-1.1,8.2-2.9,11.9
				H248.2z"/>
			<path class="st0" d="M267.1,284.5c0-4.2,1.1-8.2,2.9-11.9h4.4c-1.8,3.7-2.9,7.7-2.9,11.9s1.1,8.2,2.9,11.9H270
				C268.2,292.7,267.1,288.7,267.1,284.5z"/>
			<path class="st0" d="M285.3,289h4.7v4.7h-4.7V289z"/>
			<path class="st0" d="M300.9,296.4c1.8-3.7,2.9-7.7,2.9-11.9s-1.1-8.2-2.9-11.9h4.4c1.8,3.7,2.9,7.7,2.9,11.9s-1.1,8.2-2.9,11.9
				H300.9z"/>
			<path class="st0" d="M319.8,284.5c0-4.2,1.1-8.2,2.9-11.9h4.4c-1.8,3.7-2.9,7.7-2.9,11.9s1.1,8.2,2.9,11.9h-4.4
				C320.8,292.7,319.8,288.7,319.8,284.5z"/>
			<path class="st0" d="M337.9,289h4.7v4.7h-4.7V289z"/>
			<path class="st0" d="M353.5,296.4c1.8-3.7,2.9-7.7,2.9-11.9s-1.1-8.2-2.9-11.9h4.4c1.8,3.7,2.9,7.7,2.9,11.9s-1.1,8.2-2.9,11.9
				H353.5z"/>
			<path class="st0" d="M372.4,284.5c0-4.2,1.1-8.2,2.9-11.9h4.4c-1.8,3.7-2.9,7.7-2.9,11.9s1.1,8.2,2.9,11.9h-4.4
				C373.5,292.7,372.4,288.7,372.4,284.5z"/>
			<path class="st0" d="M390.6,289h4.7v4.7h-4.7V289z"/>
			<path class="st0" d="M406.2,296.4c1.8-3.7,2.9-7.7,2.9-11.9s-1.1-8.2-2.9-11.9h4.4c1.8,3.7,2.9,7.7,2.9,11.9s-1.1,8.2-2.9,11.9
				H406.2z"/>
			<path class="st0" d="M425.1,284.5c0-4.2,1.1-8.2,2.9-11.9h4.4c-1.8,3.7-2.9,7.7-2.9,11.9s1.1,8.2,2.9,11.9H428
				C426.1,292.7,425.1,288.7,425.1,284.5z"/>
			<path class="st0" d="M443.3,289h4.7v4.7h-4.7V289z"/>
			<path class="st0" d="M458.8,296.4c1.8-3.7,2.9-7.7,2.9-11.9s-1.1-8.2-2.9-11.9h4.4c1.8,3.7,2.9,7.7,2.9,11.9s-1.1,8.2-2.9,11.9
				H458.8z"/>
		</g>
	</g>
	<g>
		<path class="st0" d="M0,352.7c0-4.2,1.1-8.2,2.9-11.9h4.9c-1.8,3.7-2.9,7.7-2.9,11.9s1.1,8.2,2.9,11.9H2.9
			C1.1,360.9,0,356.9,0,352.7z"/>
		<path class="st0" d="M18.4,356.6h5.3v5.3h-5.3C18.4,361.9,18.4,356.6,18.4,356.6z"/>
		<path class="st0" d="M34.3,364.5c1.8-3.7,2.9-7.7,2.9-11.9s-1.1-8.2-2.9-11.9h4.9c1.8,3.7,2.9,7.7,2.9,11.9s-1.1,8.2-2.9,11.9
			H34.3z"/>
		<path class="st0" d="M53.5,352.7c0-4.2,1.1-8.2,2.9-11.9h4.9c-1.8,3.7-2.9,7.7-2.9,11.9s1.1,8.2,2.9,11.9h-4.9
			C54.5,360.9,53.5,356.9,53.5,352.7z"/>
		<path class="st0" d="M71.9,356.6h5.3v5.3h-5.3V356.6z"/>
		<path class="st0" d="M87.8,364.5c1.8-3.7,2.9-7.7,2.9-11.9s-1.1-8.2-2.9-11.9h4.9c1.8,3.7,2.9,7.7,2.9,11.9s-1.1,8.2-2.9,11.9
			H87.8z"/>
		<path class="st0" d="M107,352.7c0-4.2,1.1-8.2,2.9-11.9h4.9c-1.8,3.7-2.9,7.7-2.9,11.9s1.1,8.2,2.9,11.9h-4.9
			C108,360.9,107,356.9,107,352.7z"/>
		<path class="st0" d="M125.4,356.6h5.3v5.3h-5.3C125.4,361.9,125.4,356.6,125.4,356.6z"/>
		<path class="st0" d="M141.3,364.5c1.8-3.7,2.9-7.7,2.9-11.9s-1.1-8.2-2.9-11.9h4.9c1.8,3.7,2.9,7.7,2.9,11.9s-1.1,8.2-2.9,11.9
			H141.3z"/>
		<path class="st0" d="M160.5,352.7c0-4.2,1.1-8.2,2.9-11.9h4.9c-1.8,3.7-2.9,7.7-2.9,11.9s1.1,8.2,2.9,11.9h-4.9
			C161.5,360.9,160.5,356.9,160.5,352.7z"/>
		<path class="st0" d="M178.9,356.6h5.3v5.3h-5.3V356.6z"/>
		<path class="st0" d="M194.8,364.5c1.8-3.7,2.9-7.7,2.9-11.9s-1.1-8.2-2.9-11.9h4.9c1.8,3.7,2.9,7.7,2.9,11.9s-1.1,8.2-2.9,11.9
			H194.8z"/>
		<path class="st0" d="M213.9,352.7c0-4.2,1.1-8.2,2.9-11.9h4.9c-1.8,3.7-2.9,7.7-2.9,11.9s1.1,8.2,2.9,11.9h-4.9
			C215,360.9,213.9,356.9,213.9,352.7z"/>
		<path class="st0" d="M232.4,356.6h5.3v5.3h-5.3V356.6z"/>
		<path class="st0" d="M248.3,364.5c1.8-3.7,2.9-7.7,2.9-11.9s-1.1-8.2-2.9-11.9h4.9c1.8,3.7,2.9,7.7,2.9,11.9s-1.1,8.2-2.9,11.9
			H248.3z"/>
		<path class="st0" d="M267.4,352.7c0-4.2,1.1-8.2,2.9-11.9h4.9c-1.8,3.7-2.9,7.7-2.9,11.9s1.1,8.2,2.9,11.9h-4.9
			C268.5,360.9,267.4,356.9,267.4,352.7z"/>
		<path class="st0" d="M285.9,356.6h5.3v5.3h-5.3V356.6z"/>
		<path class="st0" d="M301.8,364.5c1.8-3.7,2.9-7.7,2.9-11.9s-1.1-8.2-2.9-11.9h4.9c1.8,3.7,2.9,7.7,2.9,11.9s-1.1,8.2-2.9,11.9
			H301.8z"/>
		<path class="st0" d="M320.9,352.7c0-4.2,1.1-8.2,2.9-11.9h4.9c-1.8,3.7-2.9,7.7-2.9,11.9s1.1,8.2,2.9,11.9h-4.9
			C322,360.9,320.9,356.9,320.9,352.7z"/>
		<path class="st0" d="M339.3,356.6h5.3v5.3h-5.3V356.6z"/>
		<path class="st0" d="M355.2,364.5c1.8-3.7,2.9-7.7,2.9-11.9s-1.1-8.2-2.9-11.9h4.9c1.8,3.7,2.9,7.7,2.9,11.9s-1.1,8.2-2.9,11.9
			H355.2z"/>
		<path class="st0" d="M374.4,352.7c0-4.2,1.1-8.2,2.9-11.9h4.9c-1.8,3.7-2.9,7.7-2.9,11.9s1.1,8.2,2.9,11.9h-4.9
			C375.4,360.9,374.4,356.9,374.4,352.7z"/>
		<path class="st0" d="M392.8,356.6h5.3v5.3h-5.3V356.6z"/>
		<path class="st0" d="M408.7,364.5c1.8-3.7,2.9-7.7,2.9-11.9s-1.1-8.2-2.9-11.9h4.9c1.8,3.7,2.9,7.7,2.9,11.9s-1.1,8.2-2.9,11.9
			H408.7z"/>
		<path class="st0" d="M427.9,352.7c0-4.2,1.1-8.2,2.9-11.9h4.9c-1.8,3.7-2.9,7.7-2.9,11.9s1.1,8.2,2.9,11.9h-4.9
			C428.9,360.9,427.9,356.9,427.9,352.7z"/>
		<path class="st0" d="M446.3,356.6h5.3v5.3h-5.3V356.6z"/>
		<path class="st0" d="M462.2,364.5c1.8-3.7,2.9-7.7,2.9-11.9s-1.1-8.2-2.9-11.9h4.9c1.8,3.7,2.9,7.7,2.9,11.9s-1.1,8.2-2.9,11.9
			H462.2z"/>
	</g>
	<g>
		<g>
			<path class="st0" d="M7.6,330.5c1.8-3.7,2.9-7.7,2.9-11.9s-1.1-8.2-2.9-11.9h4.9c1.8,3.7,2.9,7.7,2.9,11.9s-1.1,8.2-2.9,11.9H7.6
				z"/>
			<path class="st0" d="M26.7,318.6c0-4.2,1.1-8.2,2.9-11.9h4.9c-1.8,3.7-2.9,7.7-2.9,11.9s1.1,8.2,2.9,11.9h-4.9
				C27.8,326.8,26.7,322.8,26.7,318.6z"/>
			<path class="st0" d="M45.2,322.6h5.3v5.3h-5.3V322.6z"/>
			<path class="st0" d="M61.1,330.5c1.8-3.7,2.9-7.7,2.9-11.9s-1.1-8.2-2.9-11.9H66c1.8,3.7,2.9,7.7,2.9,11.9s-1.1,8.2-2.9,11.9
				H61.1z"/>
			<path class="st0" d="M80.2,318.6c0-4.2,1.1-8.2,2.9-11.9H88c-1.8,3.7-2.9,7.7-2.9,11.9s1.1,8.2,2.9,11.9h-4.9
				C81.3,326.8,80.2,322.8,80.2,318.6z"/>
			<path class="st0" d="M98.7,322.6h5.3v5.3h-5.3V322.6z"/>
			<path class="st0" d="M114.6,330.5c1.8-3.7,2.9-7.7,2.9-11.9s-1.1-8.2-2.9-11.9h4.9c1.8,3.7,2.9,7.7,2.9,11.9s-1.1,8.2-2.9,11.9
				H114.6z"/>
			<path class="st0" d="M133.7,318.6c0-4.2,1.1-8.2,2.9-11.9h4.9c-1.8,3.7-2.9,7.7-2.9,11.9s1.1,8.2,2.9,11.9h-4.9
				C134.8,326.8,133.7,322.8,133.7,318.6z"/>
			<path class="st0" d="M152.1,322.6h5.3v5.3h-5.3V322.6z"/>
			<path class="st0" d="M168,330.5c1.8-3.7,2.9-7.7,2.9-11.9s-1.1-8.2-2.9-11.9h4.9c1.8,3.7,2.9,7.7,2.9,11.9s-1.1,8.2-2.9,11.9H168
				z"/>
			<path class="st0" d="M187.2,318.6c0-4.2,1.1-8.2,2.9-11.9h4.9c-1.8,3.7-2.9,7.7-2.9,11.9s1.1,8.2,2.9,11.9h-4.9
				C188.3,326.8,187.2,322.8,187.2,318.6z"/>
			<path class="st0" d="M205.6,322.6h5.3v5.3h-5.3V322.6z"/>
			<path class="st0" d="M221.5,330.5c1.8-3.7,2.9-7.7,2.9-11.9s-1.1-8.2-2.9-11.9h4.9c1.8,3.7,2.9,7.7,2.9,11.9s-1.1,8.2-2.9,11.9
				H221.5z"/>
			<path class="st0" d="M240.7,318.6c0-4.2,1.1-8.2,2.9-11.9h4.9c-1.8,3.7-2.9,7.7-2.9,11.9s1.1,8.2,2.9,11.9h-4.9
				C241.7,326.8,240.7,322.8,240.7,318.6z"/>
			<path class="st0" d="M259.1,322.6h5.3v5.3h-5.3V322.6z"/>
			<path class="st0" d="M275,330.5c1.8-3.7,2.9-7.7,2.9-11.9s-1.1-8.2-2.9-11.9h4.9c1.8,3.7,2.9,7.7,2.9,11.9s-1.1,8.2-2.9,11.9H275
				z"/>
			<path class="st0" d="M294.2,318.6c0-4.2,1.1-8.2,2.9-11.9h4.9c-1.8,3.7-2.9,7.7-2.9,11.9s1.1,8.2,2.9,11.9h-4.9
				C295.2,326.8,294.2,322.8,294.2,318.6z"/>
			<path class="st0" d="M312.6,322.6h5.3v5.3h-5.3V322.6z"/>
			<path class="st0" d="M328.5,330.5c1.8-3.7,2.9-7.7,2.9-11.9s-1.1-8.2-2.9-11.9h4.9c1.8,3.7,2.9,7.7,2.9,11.9s-1.1,8.2-2.9,11.9
				H328.5z"/>
			<path class="st0" d="M347.6,318.6c0-4.2,1.1-8.2,2.9-11.9h4.9c-1.8,3.7-2.9,7.7-2.9,11.9s1.1,8.2,2.9,11.9h-4.9
				C348.7,326.8,347.6,322.8,347.6,318.6z"/>
			<path class="st0" d="M366.1,322.6h5.3v5.3h-5.3V322.6z"/>
			<path class="st0" d="M382,330.5c1.8-3.7,2.9-7.7,2.9-11.9s-1.1-8.2-2.9-11.9h4.9c1.8,3.7,2.9,7.7,2.9,11.9s-1.1,8.2-2.9,11.9H382
				z"/>
			<path class="st0" d="M401.1,318.6c0-4.2,1.1-8.2,2.9-11.9h4.9c-1.8,3.7-2.9,7.7-2.9,11.9s1.1,8.2,2.9,11.9H404
				C402.2,326.8,401.1,322.8,401.1,318.6z"/>
			<path class="st0" d="M419.6,322.6h5.3v5.3h-5.3V322.6z"/>
			<path class="st0" d="M435.5,330.5c1.8-3.7,2.9-7.7,2.9-11.9s-1.1-8.2-2.9-11.9h4.9c1.8,3.7,2.9,7.7,2.9,11.9s-1.1,8.2-2.9,11.9
				H435.5z"/>
			<path class="st0" d="M454.6,318.6c0-4.2,1.1-8.2,2.9-11.9h4.9c-1.8,3.7-2.9,7.7-2.9,11.9s1.1,8.2,2.9,11.9h-4.9
				C455.7,326.8,454.6,322.8,454.6,318.6z"/>
		</g>
	</g>
	<g>
		<path class="st0" d="M7.6,126c1.8-3.7,2.9-7.7,2.9-11.9s-1.1-8.2-2.9-11.9h4.9c1.8,3.7,2.9,7.7,2.9,11.9c0,4.2-1.1,8.2-2.9,11.9
			H7.6z"/>
		<path class="st0" d="M26.7,114.1c0-4.2,1.1-8.2,2.9-11.9h4.9c-1.8,3.7-2.9,7.7-2.9,11.9c0,4.2,1.1,8.2,2.9,11.9h-4.9
			C27.8,122.3,26.7,118.3,26.7,114.1z"/>
		<path class="st0" d="M45.2,118.1h5.3v5.3h-5.3V118.1z"/>
		<path class="st0" d="M61.1,126c1.8-3.7,2.9-7.7,2.9-11.9s-1.1-8.2-2.9-11.9H66c1.8,3.7,2.9,7.7,2.9,11.9c0,4.2-1.1,8.2-2.9,11.9
			H61.1z"/>
		<path class="st0" d="M80.2,114.1c0-4.2,1.1-8.2,2.9-11.9H88c-1.8,3.7-2.9,7.7-2.9,11.9c0,4.2,1.1,8.2,2.9,11.9h-4.9
			C81.3,122.3,80.2,118.3,80.2,114.1z"/>
		<path class="st0" d="M98.7,118.1h5.3v5.3h-5.3V118.1z"/>
		<path class="st0" d="M114.6,126c1.8-3.7,2.9-7.7,2.9-11.9s-1.1-8.2-2.9-11.9h4.9c1.8,3.7,2.9,7.7,2.9,11.9c0,4.2-1.1,8.2-2.9,11.9
			H114.6z"/>
		<path class="st0" d="M133.7,114.1c0-4.2,1.1-8.2,2.9-11.9h4.9c-1.8,3.7-2.9,7.7-2.9,11.9c0,4.2,1.1,8.2,2.9,11.9h-4.9
			C134.8,122.3,133.7,118.3,133.7,114.1z"/>
		<path class="st0" d="M152.1,118.1h5.3v5.3h-5.3V118.1z"/>
		<path class="st0" d="M168,126c1.8-3.7,2.9-7.7,2.9-11.9s-1.1-8.2-2.9-11.9h4.9c1.8,3.7,2.9,7.7,2.9,11.9c0,4.2-1.1,8.2-2.9,11.9
			H168z"/>
		<path class="st0" d="M187.2,114.1c0-4.2,1.1-8.2,2.9-11.9h4.9c-1.8,3.7-2.9,7.7-2.9,11.9c0,4.2,1.1,8.2,2.9,11.9h-4.9
			C188.3,122.3,187.2,118.3,187.2,114.1z"/>
		<path class="st0" d="M205.6,118.1h5.3v5.3h-5.3V118.1z"/>
		<path class="st0" d="M221.5,126c1.8-3.7,2.9-7.7,2.9-11.9s-1.1-8.2-2.9-11.9h4.9c1.8,3.7,2.9,7.7,2.9,11.9c0,4.2-1.1,8.2-2.9,11.9
			H221.5z"/>
		<path class="st0" d="M240.7,114.1c0-4.2,1.1-8.2,2.9-11.9h4.9c-1.8,3.7-2.9,7.7-2.9,11.9c0,4.2,1.1,8.2,2.9,11.9h-4.9
			C241.7,122.3,240.7,118.3,240.7,114.1z"/>
		<path class="st0" d="M259.1,118.1h5.3v5.3h-5.3V118.1z"/>
		<path class="st0" d="M275,126c1.8-3.7,2.9-7.7,2.9-11.9s-1.1-8.2-2.9-11.9h4.9c1.8,3.7,2.9,7.7,2.9,11.9c0,4.2-1.1,8.2-2.9,11.9
			H275z"/>
		<path class="st0" d="M294.2,114.1c0-4.2,1.1-8.2,2.9-11.9h4.9c-1.8,3.7-2.9,7.7-2.9,11.9c0,4.2,1.1,8.2,2.9,11.9h-4.9
			C295.2,122.3,294.2,118.3,294.2,114.1z"/>
		<path class="st0" d="M312.6,118.1h5.3v5.3h-5.3V118.1z"/>
		<path class="st0" d="M328.5,126c1.8-3.7,2.9-7.7,2.9-11.9s-1.1-8.2-2.9-11.9h4.9c1.8,3.7,2.9,7.7,2.9,11.9c0,4.2-1.1,8.2-2.9,11.9
			H328.5z"/>
		<path class="st0" d="M347.7,114.1c0-4.2,1.1-8.2,2.9-11.9h4.9c-1.8,3.7-2.9,7.7-2.9,11.9c0,4.2,1.1,8.2,2.9,11.9h-4.9
			C348.7,122.3,347.7,118.3,347.7,114.1z"/>
		<path class="st0" d="M366.1,118.1h5.3v5.3h-5.3V118.1z"/>
		<path class="st0" d="M382,126c1.8-3.7,2.9-7.7,2.9-11.9s-1.1-8.2-2.9-11.9h4.9c1.8,3.7,2.9,7.7,2.9,11.9c0,4.2-1.1,8.2-2.9,11.9
			H382z"/>
		<path class="st0" d="M401.1,114.1c0-4.2,1.1-8.2,2.9-11.9h4.9c-1.8,3.7-2.9,7.7-2.9,11.9c0,4.2,1.1,8.2,2.9,11.9H404
			C402.2,122.3,401.1,118.3,401.1,114.1z"/>
		<path class="st0" d="M419.6,118.1h5.3v5.3h-5.3V118.1z"/>
		<path class="st0" d="M435.5,126c1.8-3.7,2.9-7.7,2.9-11.9s-1.1-8.2-2.9-11.9h4.9c1.8,3.7,2.9,7.7,2.9,11.9c0,4.2-1.1,8.2-2.9,11.9
			H435.5z"/>
		<path class="st0" d="M454.6,114.1c0-4.2,1.1-8.2,2.9-11.9h4.9c-1.8,3.7-2.9,7.7-2.9,11.9c0,4.2,1.1,8.2,2.9,11.9h-4.9
			C455.7,122.3,454.6,118.3,454.6,114.1z"/>
	</g>
	<g>
		<g>
			
				<rect x="363" y="391.1" transform="matrix(0.7076 -0.7066 0.7066 0.7076 -170.1047 375.5076)" class="st0" width="11.4" height="4.4"/>
		</g>
		<g>
			
				<rect x="366.5" y="387.6" transform="matrix(0.707 -0.7072 0.7072 0.707 -170.1134 375.9504)" class="st0" width="4.4" height="11.4"/>
		</g>
	</g>
	<g>
		<g>
			
				<rect x="309.5" y="391.2" transform="matrix(0.7071 -0.7071 0.7071 0.7071 -185.8742 338.1142)" class="st0" width="11.4" height="4.4"/>
		</g>
		<g>
			
				<rect x="313" y="387.6" transform="matrix(0.7071 -0.7071 0.7071 0.7071 -185.7868 338.0437)" class="st0" width="4.4" height="11.4"/>
		</g>
	</g>
	<g>
		<g>
			<path class="st0" d="M7.6,398.6c1.8-3.7,2.9-7.7,2.9-11.9c0-4.2-1.1-8.2-2.9-11.9h4.9c1.8,3.7,2.9,7.7,2.9,11.9
				c0,4.2-1.1,8.2-2.9,11.9H7.6z"/>
			<path class="st0" d="M26.7,386.8c0-4.2,1.1-8.2,2.9-11.9h4.9c-1.8,3.7-2.9,7.7-2.9,11.9c0,4.2,1.1,8.2,2.9,11.9h-4.9
				C27.8,394.9,26.7,391,26.7,386.8z"/>
			<path class="st0" d="M45.2,390.7h5.3v5.3h-5.3V390.7z"/>
			<path class="st0" d="M61.1,398.6c1.8-3.7,2.9-7.7,2.9-11.9c0-4.2-1.1-8.2-2.9-11.9H66c1.8,3.7,2.9,7.7,2.9,11.9
				c0,4.2-1.1,8.2-2.9,11.9H61.1z"/>
			<path class="st0" d="M80.2,386.8c0-4.2,1.1-8.2,2.9-11.9H88c-1.8,3.7-2.9,7.7-2.9,11.9c0,4.2,1.1,8.2,2.9,11.9h-4.9
				C81.3,394.9,80.2,391,80.2,386.8z"/>
			<path class="st0" d="M98.7,390.7h5.3v5.3h-5.3V390.7z"/>
			<path class="st0" d="M114.6,398.6c1.8-3.7,2.9-7.7,2.9-11.9c0-4.2-1.1-8.2-2.9-11.9h4.9c1.8,3.7,2.9,7.7,2.9,11.9
				c0,4.2-1.1,8.2-2.9,11.9H114.6z"/>
			<path class="st0" d="M133.7,386.8c0-4.2,1.1-8.2,2.9-11.9h4.9c-1.8,3.7-2.9,7.7-2.9,11.9c0,4.2,1.1,8.2,2.9,11.9h-4.9
				C134.8,394.9,133.7,391,133.7,386.8z"/>
			<path class="st0" d="M152.1,390.7h5.3v5.3h-5.3V390.7z"/>
			<path class="st0" d="M168,398.6c1.8-3.7,2.9-7.7,2.9-11.9c0-4.2-1.1-8.2-2.9-11.9h4.9c1.8,3.7,2.9,7.7,2.9,11.9
				c0,4.2-1.1,8.2-2.9,11.9H168z"/>
			<path class="st0" d="M187.2,386.8c0-4.2,1.1-8.2,2.9-11.9h4.9c-1.8,3.7-2.9,7.7-2.9,11.9c0,4.2,1.1,8.2,2.9,11.9h-4.9
				C188.3,394.9,187.2,391,187.2,386.8z"/>
			<path class="st0" d="M205.6,390.7h5.3v5.3h-5.3V390.7z"/>
			<path class="st0" d="M221.5,398.6c1.8-3.7,2.9-7.7,2.9-11.9c0-4.2-1.1-8.2-2.9-11.9h4.9c1.8,3.7,2.9,7.7,2.9,11.9
				c0,4.2-1.1,8.2-2.9,11.9H221.5z"/>
			<path class="st0" d="M240.7,386.8c0-4.2,1.1-8.2,2.9-11.9h4.9c-1.8,3.7-2.9,7.7-2.9,11.9c0,4.2,1.1,8.2,2.9,11.9h-4.9
				C241.7,394.9,240.7,391,240.7,386.8z"/>
			<path class="st0" d="M259.1,390.7h5.3v5.3h-5.3V390.7z"/>
			<path class="st0" d="M275,398.6c1.8-3.7,2.9-7.7,2.9-11.9c0-4.2-1.1-8.2-2.9-11.9h4.9c1.8,3.7,2.9,7.7,2.9,11.9
				c0,4.2-1.1,8.2-2.9,11.9H275z"/>
			<path class="st0" d="M294.2,386.8c0-4.2,1.1-8.2,2.9-11.9h4.9c-1.8,3.7-2.9,7.7-2.9,11.9c0,4.2,1.1,8.2,2.9,11.9h-4.9
				C295.2,394.9,294.2,391,294.2,386.8z"/>
			<path class="st0" d="M312.6,390.7h5.3v5.3h-5.3V390.7z"/>
			<path class="st0" d="M328.5,398.6c1.8-3.7,2.9-7.7,2.9-11.9c0-4.2-1.1-8.2-2.9-11.9h4.9c1.8,3.7,2.9,7.7,2.9,11.9
				c0,4.2-1.1,8.2-2.9,11.9H328.5z"/>
			<path class="st0" d="M347.7,386.8c0-4.2,1.1-8.2,2.9-11.9h4.9c-1.8,3.7-2.9,7.7-2.9,11.9c0,4.2,1.1,8.2,2.9,11.9h-4.9
				C348.7,394.9,347.7,391,347.7,386.8z"/>
			<path class="st0" d="M366.1,390.7h5.3v5.3h-5.3V390.7z"/>
			<path class="st0" d="M382,398.6c1.8-3.7,2.9-7.7,2.9-11.9c0-4.2-1.1-8.2-2.9-11.9h4.9c1.8,3.7,2.9,7.7,2.9,11.9
				c0,4.2-1.1,8.2-2.9,11.9H382z"/>
			<path class="st0" d="M401.1,386.8c0-4.2,1.1-8.2,2.9-11.9h4.9c-1.8,3.7-2.9,7.7-2.9,11.9c0,4.2,1.1,8.2,2.9,11.9H404
				C402.2,394.9,401.1,391,401.1,386.8z"/>
			<path class="st0" d="M419.6,390.7h5.3v5.3h-5.3V390.7z"/>
			<path class="st0" d="M435.5,398.6c1.8-3.7,2.9-7.7,2.9-11.9c0-4.2-1.1-8.2-2.9-11.9h4.9c1.8,3.7,2.9,7.7,2.9,11.9
				c0,4.2-1.1,8.2-2.9,11.9H435.5z"/>
			<path class="st0" d="M454.6,386.8c0-4.2,1.1-8.2,2.9-11.9h4.9c-1.8,3.7-2.9,7.7-2.9,11.9c0,4.2,1.1,8.2,2.9,11.9h-4.9
				C455.7,394.9,454.6,391,454.6,386.8z"/>
		</g>
		<g>
			<g>
				<path class="st0" d="M0,420.8c0-4.2,1.1-8.2,2.9-11.9h4.9c-1.8,3.7-2.9,7.7-2.9,11.9S6,429,7.8,432.7H2.9
					C1.1,429,0,425.1,0,420.8z"/>
				<path class="st0" d="M18.4,424.8h5.3v5.3h-5.3C18.4,430.1,18.4,424.8,18.4,424.8z"/>
				<path class="st0" d="M34.3,432.7c1.8-3.7,2.9-7.7,2.9-11.9s-1.1-8.2-2.9-11.9h4.9c1.8,3.7,2.9,7.7,2.9,11.9s-1.1,8.2-2.9,11.9
					H34.3z"/>
				<path class="st0" d="M53.5,420.8c0-4.2,1.1-8.2,2.9-11.9h4.9c-1.8,3.7-2.9,7.7-2.9,11.9s1.1,8.2,2.9,11.9h-4.9
					C54.5,429,53.5,425.1,53.5,420.8z"/>
				<path class="st0" d="M71.9,424.8h5.3v5.3h-5.3V424.8z"/>
				<path class="st0" d="M87.8,432.7c1.8-3.7,2.9-7.7,2.9-11.9s-1.1-8.2-2.9-11.9h4.9c1.8,3.7,2.9,7.7,2.9,11.9s-1.1,8.2-2.9,11.9
					H87.8z"/>
				<path class="st0" d="M107,420.8c0-4.2,1.1-8.2,2.9-11.9h4.9c-1.8,3.7-2.9,7.7-2.9,11.9s1.1,8.2,2.9,11.9h-4.9
					C108,429,107,425.1,107,420.8z"/>
				<path class="st0" d="M125.4,424.8h5.3v5.3h-5.3C125.4,430.1,125.4,424.8,125.4,424.8z"/>
				<path class="st0" d="M141.3,432.7c1.8-3.7,2.9-7.7,2.9-11.9s-1.1-8.2-2.9-11.9h4.9c1.8,3.7,2.9,7.7,2.9,11.9s-1.1,8.2-2.9,11.9
					H141.3z"/>
				<path class="st0" d="M160.5,420.8c0-4.2,1.1-8.2,2.9-11.9h4.9c-1.8,3.7-2.9,7.7-2.9,11.9s1.1,8.2,2.9,11.9h-4.9
					C161.5,429,160.5,425.1,160.5,420.8z"/>
				<path class="st0" d="M178.9,424.8h5.3v5.3h-5.3V424.8z"/>
				<path class="st0" d="M194.8,432.7c1.8-3.7,2.9-7.7,2.9-11.9s-1.1-8.2-2.9-11.9h4.9c1.8,3.7,2.9,7.7,2.9,11.9s-1.1,8.2-2.9,11.9
					H194.8z"/>
				<path class="st0" d="M213.9,420.8c0-4.2,1.1-8.2,2.9-11.9h4.9c-1.8,3.7-2.9,7.7-2.9,11.9s1.1,8.2,2.9,11.9h-4.9
					C215,429,213.9,425.1,213.9,420.8z"/>
				<path class="st0" d="M232.4,424.8h5.3v5.3h-5.3V424.8z"/>
				<path class="st0" d="M248.3,432.7c1.8-3.7,2.9-7.7,2.9-11.9s-1.1-8.2-2.9-11.9h4.9c1.8,3.7,2.9,7.7,2.9,11.9s-1.1,8.2-2.9,11.9
					H248.3z"/>
				<path class="st0" d="M267.4,420.8c0-4.2,1.1-8.2,2.9-11.9h4.9c-1.8,3.7-2.9,7.7-2.9,11.9s1.1,8.2,2.9,11.9h-4.9
					C268.5,429,267.4,425.1,267.4,420.8z"/>
				<path class="st0" d="M285.9,424.8h5.3v5.3h-5.3V424.8L285.9,424.8z"/>
				<path class="st0" d="M301.8,432.7c1.8-3.7,2.9-7.7,2.9-11.9s-1.1-8.2-2.9-11.9h4.9c1.8,3.7,2.9,7.7,2.9,11.9s-1.1,8.2-2.9,11.9
					H301.8z"/>
				<path class="st0" d="M320.9,420.8c0-4.2,1.1-8.2,2.9-11.9h4.9c-1.8,3.7-2.9,7.7-2.9,11.9s1.1,8.2,2.9,11.9h-4.9
					C322,429,320.9,425.1,320.9,420.8z"/>
				<path class="st0" d="M339.3,424.8h5.3v5.3h-5.3V424.8z"/>
				<path class="st0" d="M355.2,432.7c1.8-3.7,2.9-7.7,2.9-11.9s-1.1-8.2-2.9-11.9h4.9c1.8,3.7,2.9,7.7,2.9,11.9s-1.1,8.2-2.9,11.9
					H355.2z"/>
				<path class="st0" d="M374.4,420.8c0-4.2,1.1-8.2,2.9-11.9h4.9c-1.8,3.7-2.9,7.7-2.9,11.9s1.1,8.2,2.9,11.9h-4.9
					C375.5,429,374.4,425.1,374.4,420.8z"/>
				<path class="st0" d="M392.8,424.8h5.3v5.3h-5.3V424.8z"/>
				<path class="st0" d="M408.7,432.7c1.8-3.7,2.9-7.7,2.9-11.9s-1.1-8.2-2.9-11.9h4.9c1.8,3.7,2.9,7.7,2.9,11.9s-1.1,8.2-2.9,11.9
					H408.7z"/>
				<path class="st0" d="M427.9,420.8c0-4.2,1.1-8.2,2.9-11.9h4.9c-1.8,3.7-2.9,7.7-2.9,11.9s1.1,8.2,2.9,11.9h-4.9
					C428.9,429,427.9,425.1,427.9,420.8z"/>
				<path class="st0" d="M446.3,424.8h5.3v5.3h-5.3V424.8L446.3,424.8z"/>
				<path class="st0" d="M462.2,432.7c1.8-3.7,2.9-7.7,2.9-11.9s-1.1-8.2-2.9-11.9h4.9c1.8,3.7,2.9,7.7,2.9,11.9s-1.1,8.2-2.9,11.9
					H462.2z"/>
			</g>
		</g>
		<g>
			<path class="st0" d="M7.6,466.8c1.8-3.7,2.9-7.7,2.9-11.9s-1.1-8.2-2.9-11.9h4.9c1.8,3.7,2.9,7.7,2.9,11.9s-1.1,8.2-2.9,11.9H7.6
				z"/>
			<path class="st0" d="M26.7,454.9c0-4.2,1.1-8.2,2.9-11.9h4.9c-1.8,3.7-2.9,7.7-2.9,11.9s1.1,8.2,2.9,11.9h-4.9
				C27.8,463.1,26.7,459.1,26.7,454.9z"/>
			<path class="st0" d="M45.2,458.9h5.3v5.3h-5.3V458.9z"/>
			<path class="st0" d="M61.1,466.8c1.8-3.7,2.9-7.7,2.9-11.9s-1.1-8.2-2.9-11.9H66c1.8,3.7,2.9,7.7,2.9,11.9s-1.1,8.2-2.9,11.9
				H61.1z"/>
			<path class="st0" d="M80.2,454.9c0-4.2,1.1-8.2,2.9-11.9H88c-1.8,3.7-2.9,7.7-2.9,11.9s1.1,8.2,2.9,11.9h-4.9
				C81.3,463.1,80.2,459.1,80.2,454.9z"/>
			<path class="st0" d="M98.7,458.9h5.3v5.3h-5.3V458.9z"/>
			<path class="st0" d="M114.6,466.8c1.8-3.7,2.9-7.7,2.9-11.9s-1.1-8.2-2.9-11.9h4.9c1.8,3.7,2.9,7.7,2.9,11.9s-1.1,8.2-2.9,11.9
				H114.6z"/>
			<path class="st0" d="M133.7,454.9c0-4.2,1.1-8.2,2.9-11.9h4.9c-1.8,3.7-2.9,7.7-2.9,11.9s1.1,8.2,2.9,11.9h-4.9
				C134.8,463.1,133.7,459.1,133.7,454.9z"/>
			<path class="st0" d="M152.1,458.9h5.3v5.3h-5.3V458.9z"/>
			<path class="st0" d="M168,466.8c1.8-3.7,2.9-7.7,2.9-11.9s-1.1-8.2-2.9-11.9h4.9c1.8,3.7,2.9,7.7,2.9,11.9s-1.1,8.2-2.9,11.9H168
				z"/>
			<path class="st0" d="M187.2,454.9c0-4.2,1.1-8.2,2.9-11.9h4.9c-1.8,3.7-2.9,7.7-2.9,11.9s1.1,8.2,2.9,11.9h-4.9
				C188.3,463.1,187.2,459.1,187.2,454.9z"/>
			<path class="st0" d="M205.6,458.9h5.3v5.3h-5.3V458.9z"/>
			<path class="st0" d="M221.5,466.8c1.8-3.7,2.9-7.7,2.9-11.9s-1.1-8.2-2.9-11.9h4.9c1.8,3.7,2.9,7.7,2.9,11.9s-1.1,8.2-2.9,11.9
				H221.5z"/>
			<path class="st0" d="M240.7,454.9c0-4.2,1.1-8.2,2.9-11.9h4.9c-1.8,3.7-2.9,7.7-2.9,11.9s1.1,8.2,2.9,11.9h-4.9
				C241.7,463.1,240.7,459.1,240.7,454.9z"/>
			<path class="st0" d="M259.1,458.9h5.3v5.3h-5.3V458.9z"/>
			<path class="st0" d="M275,466.8c1.8-3.7,2.9-7.7,2.9-11.9s-1.1-8.2-2.9-11.9h4.9c1.8,3.7,2.9,7.7,2.9,11.9s-1.1,8.2-2.9,11.9H275
				z"/>
			<path class="st0" d="M294.2,454.9c0-4.2,1.1-8.2,2.9-11.9h4.9c-1.8,3.7-2.9,7.7-2.9,11.9s1.1,8.2,2.9,11.9h-4.9
				C295.2,463.1,294.2,459.1,294.2,454.9z"/>
			<path class="st0" d="M312.6,458.9h5.3v5.3h-5.3V458.9z"/>
			<path class="st0" d="M328.5,466.8c1.8-3.7,2.9-7.7,2.9-11.9s-1.1-8.2-2.9-11.9h4.9c1.8,3.7,2.9,7.7,2.9,11.9s-1.1,8.2-2.9,11.9
				H328.5z"/>
			<path class="st0" d="M347.7,454.9c0-4.2,1.1-8.2,2.9-11.9h4.9c-1.8,3.7-2.9,7.7-2.9,11.9s1.1,8.2,2.9,11.9h-4.9
				C348.7,463.1,347.7,459.1,347.7,454.9z"/>
			<path class="st0" d="M366.1,458.9h5.3v5.3h-5.3V458.9z"/>
			<path class="st0" d="M382,466.8c1.8-3.7,2.9-7.7,2.9-11.9s-1.1-8.2-2.9-11.9h4.9c1.8,3.7,2.9,7.7,2.9,11.9s-1.1,8.2-2.9,11.9H382
				z"/>
			<path class="st0" d="M401.1,454.9c0-4.2,1.1-8.2,2.9-11.9h4.9c-1.8,3.7-2.9,7.7-2.9,11.9s1.1,8.2,2.9,11.9H404
				C402.2,463.1,401.1,459.1,401.1,454.9z"/>
			<path class="st0" d="M419.6,458.9h5.3v5.3h-5.3V458.9z"/>
			<path class="st0" d="M435.5,466.8c1.8-3.7,2.9-7.7,2.9-11.9s-1.1-8.2-2.9-11.9h4.9c1.8,3.7,2.9,7.7,2.9,11.9s-1.1,8.2-2.9,11.9
				H435.5z"/>
			<path class="st0" d="M454.6,454.9c0-4.2,1.1-8.2,2.9-11.9h4.9c-1.8,3.7-2.9,7.7-2.9,11.9s1.1,8.2,2.9,11.9h-4.9
				C455.7,463.1,454.6,459.1,454.6,454.9z"/>
		</g>
	</g>
</g>
<g>
	<rect x="330.8" y="216.4" class="st1" width="16.8" height="11.9"/>
	<rect x="330.8" y="148.9" class="st1" width="16.8" height="11.9"/>
	<rect x="123.7" y="216.7" class="st1" width="16.8" height="11.9"/>
	<rect x="330.8" y="285.2" class="st1" width="16.8" height="11.9"/>
	<rect x="123.7" y="285.5" class="st1" width="16.8" height="11.9"/>
	<rect x="123.7" y="149.2" class="st1" width="16.8" height="11.9"/>
</g>
<g>
	<rect x="132" y="102.2" class="st2" width="205.9" height="228.3"/>
</g>
<g>
	<path class="st1" d="M156.5,140.1H149v-3.8h19.2v3.8h-7.5v20h-4.3L156.5,140.1L156.5,140.1z"/>
	<path class="st1" d="M171.1,136.3h4.2v8.8c1.2-1.6,2.8-2.2,4.4-2.2c4.8,0,6.6,3.7,6.6,7.4v9.9h-4.2v-9.7c0-2-0.6-3.5-2.7-3.5
		c-2,0-3.7,1.4-4.1,3v10.2h-4.2V136.3L171.1,136.3z"/>
	<path class="st1" d="M189.8,155.1c0-3.9,3.1-5,6.9-5h4.4c0-2.1-1-3.5-3.5-3.5c-1.7,0-3.2,1.1-3.8,2.3l-3.1-2.3
		c1.7-2.3,3.9-3.6,7.1-3.6c4.6,0,7.3,2.8,7.3,6.9v10.2h-3.2l-0.4-2.4c-1.5,2.1-3.2,2.8-5.4,2.8C192.7,160.5,189.8,158.5,189.8,155.1
		z M201.1,153.1H197c-1.9,0-2.9,1-2.9,2c0,1.1,1.1,1.9,2.7,1.9C199.1,157,201,155.2,201.1,153.1z"/>
	<path class="st1" d="M209.2,143.3h4.2v2c1.4-1.7,3.2-2.2,4.9-2.2c4.4,0,6.2,3.5,6.2,7v10.1h-4.2v-9.6c0-2.1-0.6-3.7-2.7-3.7
		c-2.3,0-4.2,2-4.2,4.1v9.2h-4.2V143.3z"/>
	<path class="st1" d="M229.3,136.3h4.1v14l6.4-7h5.4l-6.3,6.5l7,10.3H241l-4.9-7.8l-2.6,2.9v4.9h-4.1L229.3,136.3L229.3,136.3z"/>
	<path class="st1" d="M261,159.7l-6.6-16.4h4.5l4.2,11.7l4.3-11.7h4.5l-9.7,24.1h-4.5L261,159.7z"/>
	<path class="st1" d="M273.2,151.8c0-4.8,3.6-8.7,8.8-8.7c5.2,0,8.8,4,8.8,8.7c0,4.8-3.6,8.7-8.8,8.7
		C276.8,160.5,273.2,156.6,273.2,151.8z M286.4,151.8c0-2.8-1.2-5.2-4.4-5.2c-3.1,0-4.4,2.4-4.4,5.2s1.2,5.2,4.4,5.2
		C285.2,157,286.4,154.6,286.4,151.8z"/>
	<path class="st1" d="M294.1,153.2v-9.9h4.2v9.7c0,2.1,0.6,3.6,2.7,3.6c2.3,0,4.2-1.9,4.2-4v-9.3h4.2v16.9h-4.2v-2
		c-1.2,1.6-3,2.4-4.9,2.4C295.9,160.6,294.1,156.9,294.1,153.2z"/>
	<path class="st1" d="M314.2,155.7h4.5v4.5h-4.5V155.7z M314.4,136h4.1l-0.5,17h-3.1L314.4,136z"/>
</g>
<g>
	<path class="st1" d="M175.7,181.9h7.1v1h-6v4.1h5.2v0.9h-5.2v4h6v1h-7.1V181.9z"/>
	<path class="st1" d="M185.6,185.1h1.1v1.3c0.5-0.8,1.5-1.4,2.5-1.4c1.9,0,2.7,1.4,2.7,3.2v4.8h-1.1v-4.7c0-1.1-0.3-2.3-1.7-2.3
		c-1.3,0-2.4,1.1-2.4,2.5v4.5h-1.1V185.1L185.6,185.1z"/>
	<path class="st1" d="M192.5,196.1l0.2-0.8c0,0,0.5,0.1,0.9,0.1c0.7,0,0.9-0.6,0.9-1.1v-9.2h1.1v9.1c0,1.3-0.6,2.2-2,2.2
		C193.1,196.4,192.5,196.1,192.5,196.1z M194.4,181.8h1.3v1.5h-1.3V181.8z"/>
	<path class="st1" d="M198,189.1c0-2.2,1.5-4,3.6-4c2.2,0,3.7,1.8,3.7,4s-1.5,4-3.7,4C199.5,193.1,198,191.3,198,189.1z
		 M204.1,189.1c0-1.6-0.7-3.1-2.4-3.1c-1.8,0-2.4,1.5-2.4,3.1s0.7,3.1,2.4,3.1C203.5,192.1,204.1,190.7,204.1,189.1z"/>
	<path class="st1" d="M209.6,192.9l-3-7.8h1.2l2.3,6.5l2.2-6.5h1.2l-4.1,11.2h-1.1L209.6,192.9z"/>
	<path class="st1" d="M220,190.9V186h-1.2v-0.9h1.2v-1.7l1.1-1.1v2.8h2v0.9h-2v5c0,0.9,0.3,1.2,0.8,1.2c0.7,0,0.9-0.1,0.9-0.1v0.9
		c0,0-0.4,0.2-1,0.2C220.5,193.1,220,192.2,220,190.9z"/>
	<path class="st1" d="M225.1,181.9h1.1v4.6c0.5-0.9,1.5-1.5,2.5-1.5c1.9,0,2.6,1.4,2.6,3.1v4.8h-1.1v-4.7c0-1.1-0.3-2.3-1.7-2.3
		s-2.4,1.2-2.4,2.6v4.3H225L225.1,181.9L225.1,181.9z"/>
	<path class="st1" d="M233.3,189.1c0-2.1,1.1-4,3.3-4c2.5,0,3.3,2,3.3,4.1v0.2h-5.4c0,1.4,0.8,2.7,2.3,2.7c0.9,0,1.6-0.2,2.2-0.8
		l0.7,0.6c-0.9,0.8-1.7,1.2-3,1.2C234.4,193,233.3,191.2,233.3,189.1z M238.8,188.5c0-1.5-0.7-2.5-2.2-2.5s-2.2,1.1-2.2,2.5H238.8z"
		/>
	<path class="st1" d="M242.1,185.1h1.1v1.4c0.3-0.9,1.1-1.6,2.1-1.6c1.1,0,2.1,0.5,2.4,1.6c0.5-1,1.3-1.6,2.4-1.6
		c1.9,0,2.7,1.4,2.7,3.2v4.8h-1.1v-4.7c0-1.1-0.3-2.4-1.7-2.4c-1.3,0-2,1.3-2,2.6v4.5h-1.1v-4.7c0-1.1-0.3-2.4-1.7-2.4
		c-1.3,0-2,1.3-2,2.6v4.5h-1.1L242.1,185.1L242.1,185.1z"/>
	<path class="st1" d="M260.3,190.9V186h-1.2v-0.9h1.2v-1.7l1.1-1.1v2.8h2v0.9h-2v5c0,0.9,0.3,1.2,0.8,1.2c0.7,0,0.9-0.1,0.9-0.1v0.9
		c0,0-0.4,0.2-1,0.2C260.8,193.1,260.3,192.2,260.3,190.9z"/>
	<path class="st1" d="M265.3,181.9h1.3v1.5h-1.3V181.9z M265.4,185.1h1.1v7.8h-1.1V185.1z"/>
	<path class="st1" d="M269.8,190.9V186h-1.2v-0.9h1.2v-1.7l1.1-1.1v2.8h2v0.9h-2v5c0,0.9,0.3,1.2,0.8,1.2c0.7,0,0.9-0.1,0.9-0.1v0.9
		c0,0-0.4,0.2-1,0.2C270.3,193.1,269.8,192.2,269.8,190.9z"/>
	<path class="st1" d="M274.8,181.9h1.3v1.5h-1.3V181.9z M274.9,185.1h1.1v7.8h-1.1V185.1z"/>
	<path class="st1" d="M278.4,189.1c0-2.1,1.1-4,3.3-4c2.5,0,3.3,2,3.3,4.1v0.2h-5.4c0,1.4,0.8,2.7,2.3,2.7c0.9,0,1.6-0.2,2.2-0.8
		l0.7,0.6c-0.9,0.8-1.7,1.2-3,1.2C279.5,193,278.4,191.2,278.4,189.1z M284,188.5c0-1.5-0.7-2.5-2.2-2.5s-2.2,1.1-2.2,2.5H284z"/>
	<path class="st1" d="M286.5,191.2l0.9-0.5c0.3,0.8,1,1.4,2,1.4c0.8,0,1.6-0.3,1.6-1.3c0-2.1-4.2-0.7-4.2-3.6c0-1.2,1.1-2.2,2.4-2.2
		s2.1,0.7,2.5,1.5l-0.8,0.5c-0.4-0.6-0.9-1-1.7-1c-0.8,0-1.4,0.4-1.4,1.2c0,1.8,4.3,0.4,4.3,3.5c0,1.5-1.2,2.4-2.7,2.4
		C287.9,193.1,286.8,192.2,286.5,191.2z"/>
	<path class="st1" d="M293.5,191.5h1.5v1.4h-1.5V191.5z"/>
</g>
</svg>
