<svg xmlns="http://www.w3.org/2000/svg" width="636.36" height="20" viewBox="0 0 636.36 20"><g transform="translate(-5212 826)"><g transform="translate(5040 -1018.5)"><g transform="translate(172 192.5)"><g transform="translate(0 0.001)"><rect width="20.413" height="7.869" transform="translate(0 14.435) rotate(-45)" fill="#1a1a1a"/></g><g transform="translate(0.012 0.001)"><rect width="7.869" height="20.413" transform="translate(0 5.565) rotate(-45)" fill="#1a1a1a"/></g><path d="M519.1-12.91h11.8v11.8H519.1Z" transform="translate(-514.993 17.047)" fill="#1a1a1a"/></g></g><g transform="translate(5376 -1018.5)"><g transform="translate(172 192.5)"><g transform="translate(0 0.001)"><rect width="20.413" height="7.869" transform="translate(0 14.435) rotate(-45)" fill="#1a1a1a"/></g><g transform="translate(0.012 0.001)"><rect width="7.869" height="20.413" transform="translate(0 5.565) rotate(-45)" fill="#1a1a1a"/></g><path d="M519.1-12.91h11.8v11.8H519.1Z" transform="translate(-514.993 17.047)" fill="#1a1a1a"/></g></g><g transform="translate(5208 -1018.5)"><g transform="translate(172 192.5)"><g transform="translate(0 0.001)"><rect width="20.413" height="7.869" transform="translate(0 14.435) rotate(-45)" fill="#1a1a1a"/></g><g transform="translate(0.012 0.001)"><rect width="7.869" height="20.413" transform="translate(0 5.565) rotate(-45)" fill="#1a1a1a"/></g><path d="M519.1-12.91h11.8v11.8H519.1Z" transform="translate(-514.993 17.047)" fill="#1a1a1a"/></g></g><g transform="translate(5544 -1018.5)"><g transform="translate(172 192.5)"><g transform="translate(0 0.001)"><rect width="20.413" height="7.869" transform="translate(0 14.435) rotate(-45)" fill="#1a1a1a"/></g><g transform="translate(0.012 0.001)"><rect width="7.869" height="20.413" transform="translate(0 5.565) rotate(-45)" fill="#1a1a1a"/></g><path d="M519.1-12.91h11.8v11.8H519.1Z" transform="translate(-514.993 17.047)" fill="#1a1a1a"/></g></g><g transform="translate(5068 -1018.5)"><g transform="translate(172 192.5)"><g transform="translate(0 0.001)"><rect width="20.413" height="7.869" transform="translate(0 14.435) rotate(-45)" fill="#1a1a1a"/></g><g transform="translate(0.012 0.001)"><rect width="7.869" height="20.413" transform="translate(0 5.565) rotate(-45)" fill="#1a1a1a"/></g><path d="M519.1-12.91h11.8v11.8H519.1Z" transform="translate(-514.993 17.047)" fill="#1a1a1a"/></g></g><g transform="translate(5404 -1018.5)"><g transform="translate(172 192.5)"><g transform="translate(0 0.001)"><rect width="20.413" height="7.869" transform="translate(0 14.435) rotate(-45)" fill="#1a1a1a"/></g><g transform="translate(0.012 0.001)"><rect width="7.869" height="20.413" transform="translate(0 5.565) rotate(-45)" fill="#1a1a1a"/></g><path d="M519.1-12.91h11.8v11.8H519.1Z" transform="translate(-514.993 17.047)" fill="#1a1a1a"/></g></g><g transform="translate(5236 -1018.5)"><g transform="translate(172 192.5)"><g transform="translate(0 0.001)"><rect width="20.413" height="7.869" transform="translate(0 14.435) rotate(-45)" fill="#1a1a1a"/></g><g transform="translate(0.012 0.001)"><rect width="7.869" height="20.413" transform="translate(0 5.565) rotate(-45)" fill="#1a1a1a"/></g><path d="M519.1-12.91h11.8v11.8H519.1Z" transform="translate(-514.993 17.047)" fill="#1a1a1a"/></g></g><g transform="translate(5572 -1018.5)"><g transform="translate(172 192.5)"><g transform="translate(0 0.001)"><rect width="20.413" height="7.869" transform="translate(0 14.435) rotate(-45)" fill="#1a1a1a"/></g><g transform="translate(0.012 0.001)"><rect width="7.869" height="20.413" transform="translate(0 5.565) rotate(-45)" fill="#1a1a1a"/></g><path d="M519.1-12.91h11.8v11.8H519.1Z" transform="translate(-514.993 17.047)" fill="#1a1a1a"/></g></g><g transform="translate(5096 -1018.5)"><g transform="translate(172 192.5)"><g transform="translate(0 0.001)"><rect width="20.413" height="7.869" transform="translate(0 14.435) rotate(-45)" fill="#1a1a1a"/></g><g transform="translate(0.012 0.001)"><rect width="7.869" height="20.413" transform="translate(0 5.565) rotate(-45)" fill="#1a1a1a"/></g><path d="M519.1-12.91h11.8v11.8H519.1Z" transform="translate(-514.993 17.047)" fill="#1a1a1a"/></g></g><g transform="translate(5432 -1018.5)"><g transform="translate(172 192.5)"><g transform="translate(0 0.001)"><rect width="20.413" height="7.869" transform="translate(0 14.435) rotate(-45)" fill="#1a1a1a"/></g><g transform="translate(0.012 0.001)"><rect width="7.869" height="20.413" transform="translate(0 5.565) rotate(-45)" fill="#1a1a1a"/></g><path d="M519.1-12.91h11.8v11.8H519.1Z" transform="translate(-514.993 17.047)" fill="#1a1a1a"/></g></g><g transform="translate(5264 -1018.5)"><g transform="translate(172 192.5)"><g transform="translate(0 0.001)"><rect width="20.413" height="7.869" transform="translate(0 14.435) rotate(-45)" fill="#1a1a1a"/></g><g transform="translate(0.012 0.001)"><rect width="7.869" height="20.413" transform="translate(0 5.565) rotate(-45)" fill="#1a1a1a"/></g><path d="M519.1-12.91h11.8v11.8H519.1Z" transform="translate(-514.993 17.047)" fill="#1a1a1a"/></g></g><g transform="translate(5600 -1018.5)"><g transform="translate(172 192.5)"><g transform="translate(0 0.001)"><rect width="20.413" height="7.869" transform="translate(0 14.435) rotate(-45)" fill="#1a1a1a"/></g><g transform="translate(0.012 0.001)"><rect width="7.869" height="20.413" transform="translate(0 5.565) rotate(-45)" fill="#1a1a1a"/></g><path d="M519.1-12.91h11.8v11.8H519.1Z" transform="translate(-514.993 17.047)" fill="#1a1a1a"/></g></g><g transform="translate(5124 -1018.5)"><g transform="translate(172 192.5)"><g transform="translate(0 0.001)"><rect width="20.413" height="7.869" transform="translate(0 14.435) rotate(-45)" fill="#1a1a1a"/></g><g transform="translate(0.012 0.001)"><rect width="7.869" height="20.413" transform="translate(0 5.565) rotate(-45)" fill="#1a1a1a"/></g><path d="M519.1-12.91h11.8v11.8H519.1Z" transform="translate(-514.993 17.047)" fill="#1a1a1a"/></g></g><g transform="translate(5460 -1018.5)"><g transform="translate(172 192.5)"><g transform="translate(0 0.001)"><rect width="20.413" height="7.869" transform="translate(0 14.435) rotate(-45)" fill="#1a1a1a"/></g><g transform="translate(0.012 0.001)"><rect width="7.869" height="20.413" transform="translate(0 5.565) rotate(-45)" fill="#1a1a1a"/></g><path d="M519.1-12.91h11.8v11.8H519.1Z" transform="translate(-514.993 17.047)" fill="#1a1a1a"/></g></g><g transform="translate(5292 -1018.5)"><g transform="translate(172 192.5)"><g transform="translate(0 0.001)"><rect width="20.413" height="7.869" transform="translate(0 14.435) rotate(-45)" fill="#1a1a1a"/></g><g transform="translate(0.012 0.001)"><rect width="7.869" height="20.413" transform="translate(0 5.565) rotate(-45)" fill="#1a1a1a"/></g><path d="M519.1-12.91h11.8v11.8H519.1Z" transform="translate(-514.993 17.047)" fill="#1a1a1a"/></g></g><g transform="translate(5628 -1018.5)"><g transform="translate(172 192.5)"><g transform="translate(0 0.001)"><rect width="20.413" height="7.869" transform="translate(0 14.435) rotate(-45)" fill="#1a1a1a"/></g><g transform="translate(0.012 0.001)"><rect width="7.869" height="20.413" transform="translate(0 5.565) rotate(-45)" fill="#1a1a1a"/></g><path d="M519.1-12.91h11.8v11.8H519.1Z" transform="translate(-514.993 17.047)" fill="#1a1a1a"/></g></g><g transform="translate(5152 -1018.5)"><g transform="translate(172 192.5)"><g transform="translate(0 0.001)"><rect width="20.413" height="7.869" transform="translate(0 14.435) rotate(-45)" fill="#1a1a1a"/></g><g transform="translate(0.012 0.001)"><rect width="7.869" height="20.413" transform="translate(0 5.565) rotate(-45)" fill="#1a1a1a"/></g><path d="M519.1-12.91h11.8v11.8H519.1Z" transform="translate(-514.993 17.047)" fill="#1a1a1a"/></g></g><g transform="translate(5488 -1018.5)"><g transform="translate(172 192.5)"><g transform="translate(0 0.001)"><rect width="20.413" height="7.869" transform="translate(0 14.435) rotate(-45)" fill="#1a1a1a"/></g><g transform="translate(0.012 0.001)"><rect width="7.869" height="20.413" transform="translate(0 5.565) rotate(-45)" fill="#1a1a1a"/></g><path d="M519.1-12.91h11.8v11.8H519.1Z" transform="translate(-514.993 17.047)" fill="#1a1a1a"/></g></g><g transform="translate(5320 -1018.5)"><g transform="translate(172 192.5)"><g transform="translate(0 0.001)"><rect width="20.413" height="7.869" transform="translate(0 14.435) rotate(-45)" fill="#1a1a1a"/></g><g transform="translate(0.012 0.001)"><rect width="7.869" height="20.413" transform="translate(0 5.565) rotate(-45)" fill="#1a1a1a"/></g><path d="M519.1-12.91h11.8v11.8H519.1Z" transform="translate(-514.993 17.047)" fill="#1a1a1a"/></g></g><g transform="translate(5656 -1018.5)"><g transform="translate(172 192.5)"><g transform="translate(0 0.001)"><rect width="20.413" height="7.869" transform="translate(0 14.435) rotate(-45)" fill="#1a1a1a"/></g><g transform="translate(0.012 0.001)"><rect width="7.869" height="20.413" transform="translate(0 5.565) rotate(-45)" fill="#1a1a1a"/></g><path d="M519.1-12.91h11.8v11.8H519.1Z" transform="translate(-514.993 17.047)" fill="#1a1a1a"/></g></g><g transform="translate(5180 -1018.5)"><g transform="translate(172 192.5)"><g transform="translate(0 0.001)"><rect width="20.413" height="7.869" transform="translate(0 14.435) rotate(-45)" fill="#1a1a1a"/></g><g transform="translate(0.012 0.001)"><rect width="7.869" height="20.413" transform="translate(0 5.565) rotate(-45)" fill="#1a1a1a"/></g><path d="M519.1-12.91h11.8v11.8H519.1Z" transform="translate(-514.993 17.047)" fill="#1a1a1a"/></g></g><g transform="translate(5516 -1018.5)"><g transform="translate(172 192.5)"><g transform="translate(0 0.001)"><rect width="20.413" height="7.869" transform="translate(0 14.435) rotate(-45)" fill="#1a1a1a"/></g><g transform="translate(0.012 0.001)"><rect width="7.869" height="20.413" transform="translate(0 5.565) rotate(-45)" fill="#1a1a1a"/></g><path d="M519.1-12.91h11.8v11.8H519.1Z" transform="translate(-514.993 17.047)" fill="#1a1a1a"/></g></g><g transform="translate(5348 -1018.5)"><g transform="translate(172 192.5)"><g transform="translate(0 0.001)"><rect width="20.413" height="7.869" transform="translate(0 14.435) rotate(-45)" fill="#1a1a1a"/></g><g transform="translate(0.012 0.001)"><rect width="7.869" height="20.413" transform="translate(0 5.565) rotate(-45)" fill="#1a1a1a"/></g><path d="M519.1-12.91h11.8v11.8H519.1Z" transform="translate(-514.993 17.047)" fill="#1a1a1a"/></g></g><rect width="132.36" height="20" transform="translate(5212 -826)" fill="none"/><rect width="132.36" height="20" transform="translate(5548 -826)" fill="none"/><rect width="132.36" height="20" transform="translate(5380 -826)" fill="none"/><rect width="132.36" height="20" transform="translate(5716 -826)" fill="none"/></g></svg>