<svg xmlns="http://www.w3.org/2000/svg" xmlns:xlink="http://www.w3.org/1999/xlink" width="132.36" height="20" viewBox="0 0 132.36 20"><defs><clipPath id="a"><rect width="132.36" height="20" fill="none"/></clipPath></defs><g clip-path="url(#a)"><g transform="translate(-172 -192.5)"><g transform="translate(172 192.5)"><g transform="translate(0 0.001)"><rect width="20.413" height="7.869" transform="translate(0 14.435) rotate(-45)" fill="#1a1a1a"/></g><g transform="translate(0.012 0.001)"><rect width="7.869" height="20.413" transform="translate(0 5.565) rotate(-45)" fill="#1a1a1a"/></g><path d="M519.1-12.91h11.8v11.8H519.1Z" transform="translate(-514.993 17.047)" fill="#1a1a1a"/></g></g><g transform="translate(-144 -192.5)"><g transform="translate(172 192.5)"><g transform="translate(0 0.001)"><rect width="20.413" height="7.869" transform="translate(0 14.435) rotate(-45)" fill="#1a1a1a"/></g><g transform="translate(0.012 0.001)"><rect width="7.869" height="20.413" transform="translate(0 5.565) rotate(-45)" fill="#1a1a1a"/></g><path d="M519.1-12.91h11.8v11.8H519.1Z" transform="translate(-514.993 17.047)" fill="#1a1a1a"/></g></g><g transform="translate(-116 -192.5)"><g transform="translate(172 192.5)"><g transform="translate(0 0.001)"><rect width="20.413" height="7.869" transform="translate(0 14.435) rotate(-45)" fill="#1a1a1a"/></g><g transform="translate(0.012 0.001)"><rect width="7.869" height="20.413" transform="translate(0 5.565) rotate(-45)" fill="#1a1a1a"/></g><path d="M519.1-12.91h11.8v11.8H519.1Z" transform="translate(-514.993 17.047)" fill="#1a1a1a"/></g></g><g transform="translate(-88 -192.5)"><g transform="translate(172 192.5)"><g transform="translate(0 0.001)"><rect width="20.413" height="7.869" transform="translate(0 14.435) rotate(-45)" fill="#1a1a1a"/></g><g transform="translate(0.012 0.001)"><rect width="7.869" height="20.413" transform="translate(0 5.565) rotate(-45)" fill="#1a1a1a"/></g><path d="M519.1-12.91h11.8v11.8H519.1Z" transform="translate(-514.993 17.047)" fill="#1a1a1a"/></g></g><g transform="translate(-60 -192.5)"><g transform="translate(172 192.5)"><g transform="translate(0 0.001)"><rect width="20.413" height="7.869" transform="translate(0 14.435) rotate(-45)" fill="#1a1a1a"/></g><g transform="translate(0.012 0.001)"><rect width="7.869" height="20.413" transform="translate(0 5.565) rotate(-45)" fill="#1a1a1a"/></g><path d="M519.1-12.91h11.8v11.8H519.1Z" transform="translate(-514.993 17.047)" fill="#1a1a1a"/></g></g></g></svg>