<svg xmlns="http://www.w3.org/2000/svg" width="104.011" height="19.999" viewBox="0 0 104.011 19.999"><g transform="translate(-5212 825.998)"><g transform="translate(5040 -1018.5)"><g transform="translate(172 192.5)"><g transform="translate(0 0.001)"><rect width="20.413" height="7.869" transform="translate(0 14.435) rotate(-45)" fill="#1a1a1a"/></g><g transform="translate(0.012 0.001)"><rect width="7.869" height="20.413" transform="translate(0 5.565) rotate(-45)" fill="#1a1a1a"/></g><path d="M519.1-12.91h11.8v11.8H519.1Z" transform="translate(-514.993 17.047)" fill="#1a1a1a"/></g></g><g transform="translate(5068 -1018.5)"><g transform="translate(172 192.5)"><g transform="translate(0 0.001)"><rect width="20.413" height="7.869" transform="translate(0 14.435) rotate(-45)" fill="#1a1a1a"/></g><g transform="translate(0.012 0.001)"><rect width="7.869" height="20.413" transform="translate(0 5.565) rotate(-45)" fill="#1a1a1a"/></g><path d="M519.1-12.91h11.8v11.8H519.1Z" transform="translate(-514.993 17.047)" fill="#1a1a1a"/></g></g><g transform="translate(5096 -1018.5)"><g transform="translate(172 192.5)"><g transform="translate(0 0.001)"><rect width="20.413" height="7.869" transform="translate(0 14.435) rotate(-45)" fill="#1a1a1a"/></g><g transform="translate(0.012 0.001)"><rect width="7.869" height="20.413" transform="translate(0 5.565) rotate(-45)" fill="#1a1a1a"/></g><path d="M519.1-12.91h11.8v11.8H519.1Z" transform="translate(-514.993 17.047)" fill="#1a1a1a"/></g></g><g transform="translate(5124 -1018.5)"><g transform="translate(172 192.5)"><g transform="translate(0 0.001)"><rect width="20.413" height="7.869" transform="translate(0 14.435) rotate(-45)" fill="#1a1a1a"/></g><g transform="translate(0.012 0.001)"><rect width="7.869" height="20.413" transform="translate(0 5.565) rotate(-45)" fill="#1a1a1a"/></g><path d="M519.1-12.91h11.8v11.8H519.1Z" transform="translate(-514.993 17.047)" fill="#1a1a1a"/></g></g></g></svg>